<?xml version="1.0" encoding="utf-8"?>
<svg xmlns="http://www.w3.org/2000/svg" width="203" height="44" viewBox="0 0 203 44" fill="none">
  <path fill-rule="evenodd" clip-rule="evenodd" d="M93.5017 11.1459C93.4555 11.04 93.3626 10.9897 93.2696 11.0017C93.1766 10.9897 93.0842 11.04 93.038 11.1459L83.9296 29.5809H89.034L90.0466 27.3875H96.4931L97.5057 29.5809H102.61L93.5017 11.1459ZM91.5757 23.9559L93.2696 20.2037L94.964 23.9559H91.5757ZM111.325 29.7C106.134 29.7 101.704 25.8599 101.704 20.3937C101.704 14.9271 106.106 11.1143 111.052 11.1143C115.047 11.1143 117.493 12.7675 119.043 15.0074L115.319 17.487C114.613 16.4209 113.471 15.3274 111.135 15.3274C108.417 15.3274 106.758 17.5405 106.758 20.3937C106.758 23.247 108.471 25.4863 111.297 25.4863C113.689 25.4863 114.857 24.4201 115.645 22.9799L119.45 25.3798C117.63 28.3936 115.075 29.7 111.325 29.7ZM121.351 11.4491H134.315V15.529H126.298V18.4843H132.984V22.3507H126.298V25.5016H134.695V29.5809H121.351V11.4491ZM156.001 11.4491H163.556C167.224 11.4491 169.954 13.1023 169.954 15.8753C169.954 18.6444 168.726 19.5182 167.531 20.0781C169.542 20.6384 170.761 22.0028 170.761 24.1416C170.761 27.6082 168.475 29.5809 163.882 29.5809H156.001V11.4491ZM163.175 18.5684C164.723 18.5684 165.068 17.8513 165.068 16.7551C165.068 15.6628 164.317 15.2887 163.23 15.2887H160.784V18.5684H163.175ZM163.773 25.7413C165.675 25.7413 165.915 24.596 165.915 23.6883C165.915 22.8783 165.646 21.9274 163.773 21.9274H160.784V25.7413H163.773ZM173.339 11.4491H178.284V25.5016H186.139V29.5809H173.339V11.4491ZM188.421 11.4491H201.384V15.529H193.367V18.5324H200.052V22.3993H193.367V25.5016H201.764V29.5809H188.421V11.4491ZM145.55 11.1459C145.504 11.04 145.412 10.9897 145.319 11.0017C145.226 10.9897 145.133 11.04 145.086 11.1459L135.978 29.5809H141.083L142.096 27.3875H148.542L149.554 29.5809H154.659L145.55 11.1459ZM143.624 23.9559L145.319 20.2037L147.013 23.9559H143.624Z" fill="#12BDCD"/>
  <mask id="mask0_8146_32690" style="mask-type:alpha" maskUnits="userSpaceOnUse" x="0" y="9" width="33" height="20">
    <path d="M0.0333252 9.61237H32.2784V28.2293H0.0333252V9.61237Z" fill="white"/>
  </mask>
  <g mask="url(#mask0_8146_32690)">
    <path fill-rule="evenodd" clip-rule="evenodd" d="M27.1021 20.1762H2.51013C3.62734 23.0269 5.05637 25.7241 6.75219 28.2293H23.1568L27.1021 20.1762Z" fill="#12BDCD"/>
    <path fill-rule="evenodd" clip-rule="evenodd" d="M32.2785 9.61237H0.667022C0.268495 9.61237 -0.0444344 9.95667 0.00503401 10.3477C0.319631 12.8431 0.858226 15.2686 1.5997 17.6066H28.3616L32.2785 9.61237Z" fill="#12BDCD"/>
  </g>
  <path fill-rule="evenodd" clip-rule="evenodd" d="M21.6772 30.8H8.3374C10.7735 33.8843 13.6352 36.6184 16.8313 38.9198C17.1758 39.167 17.6596 39.0501 17.8447 38.6709L21.6772 30.8Z" fill="#12BDCD"/>
  <path fill-rule="evenodd" clip-rule="evenodd" d="M55.5825 20.35H80.0388C78.9273 23.2704 77.5067 26.0335 75.8208 28.6H59.5065L55.5825 20.35Z" fill="#12BDCD"/>
  <path fill-rule="evenodd" clip-rule="evenodd" d="M50.5801 9.35004H82.1516C82.5497 9.35004 82.8622 9.70535 82.8128 10.1089C82.4986 12.6841 81.9607 15.1872 81.2201 17.6H54.492L50.5801 9.35004Z" fill="#12BDCD"/>
  <path fill-rule="evenodd" clip-rule="evenodd" d="M60.7467 30.7989H74.0048C71.5836 33.8453 68.7395 36.5458 65.5624 38.819C65.2205 39.0632 64.7398 38.9477 64.5558 38.5731L60.7467 30.7989Z" fill="#12BDCD"/>
  <path fill-rule="evenodd" clip-rule="evenodd" d="M41.917 0.806859C41.8097 0.558809 41.594 0.440559 41.3784 0.469159C41.1622 0.440559 40.947 0.558809 40.8392 0.806859L19.679 44H31.538L33.8903 38.8603H48.8664L51.2187 44H63.0772L41.917 0.806859ZM37.442 30.8198L41.3784 22.0286L45.3142 30.8198H37.442Z" fill="#12BDCD"/>
</svg>