<svg id="Turquoise_Divers_Logo" data-name="Turquoise Divers Logo" xmlns="http://www.w3.org/2000/svg" xmlns:xlink="http://www.w3.org/1999/xlink" width="293.205" height="86.342" viewBox="0 0 293.205 86.342">
  <defs>
    <clipPath id="clip-path">
      <rect id="Rectangle_2588" data-name="Rectangle 2588" width="293.205" height="86.342" fill="#fff"/>
    </clipPath>
  </defs>
  <path id="Path_7736" data-name="Path 7736" d="M3.238,2.878H83.464V83.464H3.238Zm83.1,0H290.327V83.464H86.342ZM0,0V86.342H293.2V0Z" fill="#fff"/>
  <g id="Group_3870" data-name="Group 3870">
    <g id="Group_3869" data-name="Group 3869" clip-path="url(#clip-path)">
      <path id="Path_7737" data-name="Path 7737" d="M146.479,35.315a.374.374,0,0,1,.158.02,1.229,1.229,0,0,1,.066.484V45.6a1.83,1.83,0,0,1-.359,1.047l-.225.051v.791h3.439V46.7l-.225-.051a1.768,1.768,0,0,1-.358-1.119V36.142a2.479,2.479,0,0,1,.063-.8.341.341,0,0,1,.16-.022h2.215a1.423,1.423,0,0,1,1.32.912l.067.274h.8v-2.32H142.081V36.5l.788-.01.075-.262a1.427,1.427,0,0,1,1.322-.915Z" transform="translate(-39.851 -9.587)" fill="#fff"/>
      <path id="Path_7738" data-name="Path 7738" d="M178.143,34.971l.224.052a1.772,1.772,0,0,1,.358,1.119v6.2a3.851,3.851,0,0,1-3.758,4.19c-1.831,0-3.679-1.3-3.679-4.19v-6.2a1.751,1.751,0,0,1,.347-1.115l.235-.048v-.8h-3.437v.79l.223.052a1.768,1.768,0,0,1,.358,1.119v6.2a5.209,5.209,0,0,0,5.391,5.485,5.312,5.312,0,0,0,5.486-5.485v-6.2a1.747,1.747,0,0,1,.347-1.115l.236-.048v-.8h-2.331Z" transform="translate(-47.242 -9.587)" fill="#fff"/>
      <path id="Path_7739" data-name="Path 7739" d="M207.078,46.465c-1.068-.007-1.371-.68-1.856-1.968a5.629,5.629,0,0,0-2.286-3.213,3.7,3.7,0,0,0,2.849-3.38c0-1.793-1.633-3.723-5.215-3.723h-4.788v.8l.234.048a1.75,1.75,0,0,1,.348,1.115v9.388a1.75,1.75,0,0,1-.348,1.115l-.234.048v.8h3.439v-.8l-.237-.048a1.752,1.752,0,0,1-.346-1.115v-3.9h.92c1.72.008,2.182,1.066,2.768,2.4.673,1.54,1.513,3.459,4.769,3.459h.382l-.062-1.022Zm-8.441-10.323a2.479,2.479,0,0,1,.063-.8.343.343,0,0,1,.16-.022h1.2c2.289,0,3.331,1.342,3.331,2.589s-1.043,2.59-3.331,2.59h-1.425Z" transform="translate(-54.913 -9.587)" fill="#fff"/>
      <path id="Path_7740" data-name="Path 7740" d="M235.2,40.731c0-3.335-2.307-6.924-7.371-6.924s-7.371,3.589-7.371,6.924a6.733,6.733,0,0,0,5.56,6.756L224.658,48l.367,1.066.339-.115a2.7,2.7,0,0,1,2.842.291,3.305,3.305,0,0,0,1.936.681,7.9,7.9,0,0,0,3.571-1.194l.329-.178-.579-.975-.3.159a4,4,0,0,1-1.794.57,2.858,2.858,0,0,1-1.207-.341,6.692,6.692,0,0,0-1.06-.4,6.731,6.731,0,0,0,6.1-6.833m-7.371-5.791c3.408,0,4.961,3,4.961,5.791s-1.553,5.791-4.961,5.791-4.982-3-4.982-5.791,1.559-5.791,4.982-5.791" transform="translate(-61.835 -9.482)" fill="#fff"/>
      <path id="Path_7741" data-name="Path 7741" d="M263.426,36.142a1.751,1.751,0,0,1,.347-1.115l.237-.048v-.8h-2.332v.79l.224.052a1.772,1.772,0,0,1,.358,1.119v6.2a3.851,3.851,0,0,1-3.758,4.19c-1.831,0-3.679-1.3-3.679-4.19v-6.2a1.755,1.755,0,0,1,.347-1.115l.235-.048v-.8h-3.438v.79l.224.052a1.772,1.772,0,0,1,.358,1.119v6.2a5.209,5.209,0,0,0,5.391,5.485,5.312,5.312,0,0,0,5.486-5.485Z" transform="translate(-70.672 -9.587)" fill="#fff"/>
      <path id="Path_7742" data-name="Path 7742" d="M287.092,33.807c-5.064,0-7.371,3.589-7.371,6.924s2.307,6.924,7.371,6.924c4.84,0,7.371-3.483,7.371-6.924,0-3.335-2.307-6.924-7.371-6.924m0,1.133c3.409,0,4.962,3,4.962,5.791s-1.553,5.791-4.962,5.791-4.981-3-4.981-5.791,1.559-5.791,4.981-5.791" transform="translate(-78.456 -9.482)" fill="#fff"/>
      <path id="Path_7743" data-name="Path 7743" d="M311.5,34.979l.235.048a1.75,1.75,0,0,1,.348,1.115V45.53a1.75,1.75,0,0,1-.348,1.115l-.235.048v.8h3.439v-.8l-.236-.048a1.747,1.747,0,0,1-.347-1.115V36.142a1.747,1.747,0,0,1,.347-1.115l.236-.048v-.8H311.5Z" transform="translate(-87.369 -9.587)" fill="#fff"/>
      <path id="Path_7744" data-name="Path 7744" d="M332.727,39.549c-1.81-.6-3.372-1.122-3.372-2.364,0-1.516,1.468-2.195,2.923-2.195,1.243,0,2.688.9,2.688,2.051v.36h.617l1.4-1.292-.2-.262a5.663,5.663,0,0,0-4.48-1.989c-2.2,0-4.574,1.187-4.574,3.794,0,2.671,2.556,3.552,4.809,4.33,1.807.624,3.368,1.162,3.368,2.414,0,1.458-1.847,2.123-3.564,2.123a2.673,2.673,0,0,1-2.923-2.536v-.36h-.8L327.3,45.47l.168.211a6.156,6.156,0,0,0,4.847,1.935c2.659,0,5.351-1.248,5.351-3.633,0-2.79-2.625-3.663-4.941-4.433" transform="translate(-91.802 -9.496)" fill="#fff"/>
      <path id="Path_7745" data-name="Path 7745" d="M361.785,45.181l-.074.261a1.423,1.423,0,0,1-1.322.915h-4.447a.345.345,0,0,1-.16-.022,2.458,2.458,0,0,1-.064-.805V41.394h3.214a1.65,1.65,0,0,1,1.368.575l.107.163h.709V39.505l-.709,0-.107.159a1.632,1.632,0,0,1-1.368.593h-3.214V36.142a2.479,2.479,0,0,1,.063-.8.347.347,0,0,1,.16-.022h4.233a1.426,1.426,0,0,1,1.322.912l.066.274h.8v-2.32h-9.5v.8l.235.049a1.752,1.752,0,0,1,.347,1.115V45.53a1.753,1.753,0,0,1-.347,1.115l-.235.049v.8h9.712V45.17Z" transform="translate(-98.971 -9.587)" fill="#fff"/>
      <path id="Path_7746" data-name="Path 7746" d="M149.3,71.529h-4.54v.8l.237.048a1.751,1.751,0,0,1,.347,1.115v9.388A1.751,1.751,0,0,1,145,83.992l-.237.048v.8h4.54c4.121-.037,7.348-2.961,7.348-6.654s-3.227-6.615-7.348-6.654m-1.619,12.153a2.46,2.46,0,0,1-.064-.805V73.49a2.5,2.5,0,0,1,.063-.8.348.348,0,0,1,.16-.022h1.36a5.542,5.542,0,0,1,0,11.041h-1.36a.35.35,0,0,1-.158-.022" transform="translate(-40.602 -20.062)" fill="#fff"/>
      <path id="Path_7747" data-name="Path 7747" d="M172.571,72.327l.235.048a1.75,1.75,0,0,1,.348,1.115v9.388a1.75,1.75,0,0,1-.348,1.115l-.235.048v.8h3.439v-.8l-.236-.048a1.747,1.747,0,0,1-.347-1.115V73.49a1.747,1.747,0,0,1,.347-1.115l.236-.048v-.8h-3.439Z" transform="translate(-48.403 -20.063)" fill="#fff"/>
      <path id="Path_7748" data-name="Path 7748" d="M199.14,72.351l.239.029a1.535,1.535,0,0,1-.2.882l-4.084,8.513-4.116-8.571a1.335,1.335,0,0,1-.11-.815l.313-.042v-.82H187.41l-.026.817.317.039a3.476,3.476,0,0,1,.909,1.279l5.361,11.175h.939l5.4-11.249a3.44,3.44,0,0,1,.848-1.2l.312-.042v-.82H199.14Z" transform="translate(-52.557 -20.062)" fill="#fff"/>
      <path id="Path_7749" data-name="Path 7749" d="M225.886,82.79a1.426,1.426,0,0,1-1.322.915h-4.447a.35.35,0,0,1-.158-.022,2.458,2.458,0,0,1-.064-.805V78.742h3.214a1.653,1.653,0,0,1,1.369.575l.106.162h.71V76.853l-.71,0-.106.159a1.632,1.632,0,0,1-1.369.593h-3.214V73.49a2.507,2.507,0,0,1,.063-.8.348.348,0,0,1,.16-.022h4.234a1.423,1.423,0,0,1,1.321.912l.068.275h.8V71.53h-9.5v.8l.235.048a1.755,1.755,0,0,1,.347,1.115v9.388a1.755,1.755,0,0,1-.347,1.115l-.235.048v.8h9.712v-2.32l-.79.011Z" transform="translate(-60.875 -20.063)" fill="#fff"/>
      <path id="Path_7750" data-name="Path 7750" d="M252.714,83.813c-1.068-.007-1.371-.68-1.856-1.968a5.622,5.622,0,0,0-2.286-3.213,3.7,3.7,0,0,0,2.849-3.38c0-1.793-1.633-3.723-5.215-3.723h-4.788v.8l.235.048A1.75,1.75,0,0,1,242,73.49v9.388a1.75,1.75,0,0,1-.348,1.115l-.235.048v.8h3.439v-.8l-.237-.048a1.751,1.751,0,0,1-.347-1.115v-3.9h.92c1.72.008,2.182,1.066,2.768,2.4.673,1.54,1.513,3.459,4.769,3.459h.382l-.062-1.022ZM244.274,73.49a2.479,2.479,0,0,1,.063-.8.346.346,0,0,1,.16-.022h1.2c2.289,0,3.331,1.342,3.331,2.589s-1.042,2.59-3.331,2.59h-1.426Z" transform="translate(-67.713 -20.062)" fill="#fff"/>
      <path id="Path_7751" data-name="Path 7751" d="M272.446,76.9c-1.81-.6-3.372-1.122-3.372-2.364,0-1.516,1.468-2.195,2.923-2.195,1.243,0,2.688.9,2.688,2.051v.36h.617l1.4-1.292-.2-.262a5.663,5.663,0,0,0-4.48-1.989c-2.2,0-4.574,1.187-4.574,3.794,0,2.671,2.556,3.552,4.809,4.33,1.807.624,3.368,1.162,3.368,2.414,0,1.458-1.847,2.123-3.564,2.123a2.673,2.673,0,0,1-2.923-2.536v-.36h-.8l-1.314,1.847.168.211a6.156,6.156,0,0,0,4.847,1.935c2.659,0,5.351-1.248,5.351-3.633,0-2.79-2.625-3.663-4.941-4.433" transform="translate(-74.894 -19.972)" fill="#fff"/>
      <path id="Path_7752" data-name="Path 7752" d="M81.621,62.489l-.028-.046c-1.263-2.15-3.081-5.192-8.906-4.746-1.826.14-3.293,1.218-4.806,2.136a15.243,15.243,0,0,1-2.465,1.327,4.2,4.2,0,0,1-2.51.219c-1.045-.269-1.492-1.037-2.341-1.61a2.354,2.354,0,0,0-1.591-.444,4.285,4.285,0,0,0-1.648.8c-1.809,1.148-5.906,1.681-6.556-1.258a3.172,3.172,0,0,1-.057-.907,3.59,3.59,0,0,1,.519-1.738c1.1-1.653,3.958-2.318,5.791-1.938a8.343,8.343,0,0,1,4.369,2.43c.633.675,1.227,1.5,2.121,1.722a1.25,1.25,0,0,0,.488.015,1.8,1.8,0,0,0,.735-3.43,10.123,10.123,0,0,0-1.288-.371,1.285,1.285,0,0,1-.94-.866,1.168,1.168,0,0,1,.181-.791,3.646,3.646,0,0,1,2.65-1.422c.976-.169,3.743-1.746,4.668-1.392A9.474,9.474,0,0,1,72.3,51.756a8.583,8.583,0,0,0,5.88,1.97,2.78,2.78,0,0,0,1.941-.821,1.448,1.448,0,0,0,.314-.583c.286-1.1-.75-1.864-1.725-2.168-1.551-.482-3.439-.448-4.461-1.711a3.342,3.342,0,0,1-.4-3.115,10.5,10.5,0,0,0,.635-1.887,2.62,2.62,0,0,0-1.267-2.536,2.725,2.725,0,0,0-2.845.127,2.026,2.026,0,0,0-.841,1.134c-.389,1.543,1.577,3.158.189,4.59a2.426,2.426,0,0,1-.5.385c-1.737,1.038-5.526,3.041-7.546,2.919a3.727,3.727,0,0,1-1.787-.474,1.639,1.639,0,0,1-.707-1.966c.445-1.3,3.212-5.065,4.372-5.705a7.325,7.325,0,0,0,2.036-1.279,3.38,3.38,0,0,0,.68-2.747,3.018,3.018,0,0,0-1.584-2.415,3.162,3.162,0,0,0-2.838.453,3.229,3.229,0,0,0-1.258,1.293c-.54,1.139-.013,2.49-.168,3.741-.2,1.6-2.99,5.544-4.632,5.558a1.364,1.364,0,0,1-.883-.313c-1.24-1.02,1.886-3.762,2.056-4.688a1.345,1.345,0,0,0-1.34-1.445,2.1,2.1,0,0,0-1.768,1.2,36.925,36.925,0,0,0-1.828,4.3,16.986,16.986,0,0,1-1.052,2.582,1.136,1.136,0,0,1-.254.4c-.555.491-1.164.022-1.329-.514a6.265,6.265,0,0,1,.106-2.285c.305-1.929,1.454-3.439,2.391-5.183.439-.818,2.649-2.917,3.01-5.287.773-5.081-4.242-5.154-5.368-4.887-1.191.283-2.7,1.429-2.733,2.774a1.467,1.467,0,0,0,.135.648c.332.71.976.714,1.566.791,1.987.258.484,5.658-.173,7.208a1.9,1.9,0,0,1-.533.766.973.973,0,0,1-.884.2,1.133,1.133,0,0,1-.6-.573,2.443,2.443,0,0,1-.171-.418,50.107,50.107,0,0,0-1.12-8.417c-.2-.1-.415-.206-.619-.309-.276,0-.558,0-.842.006-9.647.091-20.216,3.017-23.262,8.716-4.433,8.29-7.519,8.839-11.072,8.6-1.668-.115,1.7,2.781,5.074,3.715,6.018,1.666,2.888,9.949,15.47,13.459C32.935,79.7,40.5,77.767,46.519,75.931c-4.126-.738-10.73-6.248-11.949-6.619l-2.143-2.33a9.2,9.2,0,0,0,5.373-.391c.524,1,2.433,1.993,4.74,2.718v0a1.792,1.792,0,0,0,.729.167c1.635.009,2.129-1.8,1.907-3.122-.153-.915-1.052-2.1-.817-3.022a1.137,1.137,0,0,1,.446-.614,1.614,1.614,0,0,1,1.767-.061c.986.621.733,1.958.743,2.943.065,6.486,7.735,10.576,13.476,8.95a6.116,6.116,0,0,0,2.01-1.1c1.12-.906,1.928-2.2.98-3.4a1.955,1.955,0,0,0-1.243-.7,6.458,6.458,0,0,0-3.09.149,15.244,15.244,0,0,0-2.369,1.308,3.55,3.55,0,0,1-2.587.545,2.511,2.511,0,0,1-1.742-2.041,3.359,3.359,0,0,1,.814-2.629c.983-1.161,2.582-1.646,3.965-2.147a5.351,5.351,0,0,1,5.414.943c1.413,1.059,2.866,2.066,4.317,3.074a2.2,2.2,0,0,0,.822.291,9.371,9.371,0,0,0,5.135-.282c1.156-.427,2.4-.734,3-2.092.321-.722.222-1.567-.7-1.71a2.186,2.186,0,0,0-1.359.332c-.415.231-.8.521-1.231.715a2.541,2.541,0,0,1-3.471-1.228,1.976,1.976,0,0,1-.148-.733,2.673,2.673,0,0,1,2.278-2.373,5.827,5.827,0,0,1,6.048,2.159,6.378,6.378,0,0,0,1.152,1.453,1.957,1.957,0,0,0,2.836-2.6M23.966,46.69a1.285,1.285,0,1,1,.931-1.561,1.285,1.285,0,0,1-.931,1.561" transform="translate(-2.462 -8.503)" fill="#fff"/>
    </g>
  </g>
</svg>
