<?xml version="1.0" encoding="UTF-8"?> <svg xmlns="http://www.w3.org/2000/svg" width="361" height="40" viewBox="0 0 361 40" fill="none"><path d="M99.5406 6.49896V20.595H108.536C113.125 20.595 114.869 17.1168 114.869 13.6385C114.869 10.1603 113.125 6.59049 108.811 6.59049H99.5406V6.49896ZM120.285 39.4508H114.043L104.314 25.3547H99.4488V39.4508H94.3086V1.73926H108.811C116.797 1.73926 120.01 7.68889 120.01 13.547C120.01 19.1305 117.256 24.5309 110.096 25.1716L120.285 39.4508Z" fill="#C62800"></path><path d="M137.909 18.2151C133.32 18.2151 129.556 21.5103 129.556 26.5446C129.556 31.5789 133.32 35.0572 137.909 35.0572C142.499 35.0572 146.445 31.945 146.445 26.5446C146.445 21.1442 142.04 18.2151 137.909 18.2151ZM146.445 35.5148C144.701 38.4439 141.03 39.9999 137.45 39.9999C130.474 39.9999 124.416 34.7826 124.416 26.6361C124.416 18.4897 130.382 13.3639 137.45 13.3639C141.03 13.3639 144.701 14.8284 146.445 17.7575V13.9131H151.402V39.4507H146.445V35.5148Z" fill="#C62800"></path><path d="M171.413 18.215C166.823 18.215 163.152 21.5102 163.152 26.5445C163.152 31.5788 166.823 35.0571 171.413 35.0571C175.911 35.0571 179.949 31.9449 179.949 26.5445C179.949 21.1441 175.543 18.215 171.413 18.215ZM179.949 35.5147C178.205 38.4438 174.534 39.9998 170.954 39.9998C163.978 39.9998 158.012 34.7825 158.012 26.636C158.012 18.4896 163.886 13.3638 170.862 13.3638C174.626 13.3638 178.205 14.8283 179.949 17.7574V0H184.906V39.4506H179.949V35.5147Z" fill="#C62800"></path><path d="M199.317 13.9129H194.36V39.4505H199.317V13.9129ZM196.839 1.28137C198.766 1.28137 200.327 2.65436 200.327 4.48502C200.327 6.31567 198.766 7.68867 196.839 7.68867C195.003 7.68867 193.351 6.31567 193.351 4.48502C193.442 2.65436 195.003 1.28137 196.839 1.28137Z" fill="#C62800"></path><path d="M208.31 19.8627C208.678 16.1099 212.625 13.3639 217.214 13.3639C221.528 13.3639 225.659 15.3776 226.118 20.595H221.345C221.069 18.6728 219.325 17.6659 217.306 17.6659C215.47 17.6659 213.818 18.5813 213.451 19.9543C213.267 20.778 213.267 21.4188 213.542 21.968C214.001 22.9748 215.286 23.524 216.572 23.9817L220.335 24.897C225.659 26.1785 226.944 29.4737 226.944 32.3112C226.944 37.0709 222.354 39.9999 217.03 39.9999C212.441 39.9999 207.668 37.0709 207.484 31.762H212.074C212.257 32.8604 212.992 34.0503 214.185 34.691C215.286 35.3318 216.572 35.6979 218.224 35.6064C220.518 35.4233 222.079 34.1418 222.079 32.3112C222.171 30.4805 220.518 29.5652 218.683 29.1075L215.195 28.2837C210.422 26.9107 207.852 24.5309 208.31 19.8627Z" fill="#C62800"></path><path d="M238.968 39.4506H234.012V0H238.968V17.7574C240.529 14.7368 244.659 13.3638 247.413 13.3638C253.838 13.3638 257.877 17.4828 257.785 24.7138V39.4506H252.829V24.9884C252.829 20.7779 250.35 18.215 246.77 18.215C243.282 18.215 238.968 20.2287 238.968 25.6292V39.4506Z" fill="#C62800"></path><path d="M273.85 1.73926V39.4508H294.319V34.6911H278.898V1.73926H273.85Z" fill="#C62800"></path><path d="M311.666 18.2151C307.076 18.2151 303.313 21.5103 303.313 26.5446C303.313 31.5789 307.076 35.0572 311.666 35.0572C316.255 35.0572 320.202 31.945 320.202 26.5446C320.202 21.1442 315.796 18.2151 311.666 18.2151ZM320.294 35.5148C318.55 38.4439 314.879 39.9999 311.299 39.9999C304.323 39.9999 298.265 34.7826 298.265 26.6361C298.265 18.4897 304.231 13.3639 311.299 13.3639C314.879 13.3639 318.55 14.8284 320.294 17.7575V13.9131H325.251V39.4507H320.294V35.5148Z" fill="#C62800"></path><path d="M347.097 35.1486C351.686 35.1486 355.358 31.6703 355.358 26.636C355.358 21.5102 351.686 18.3066 347.097 18.3066C342.966 18.3066 338.56 21.2356 338.56 26.636C338.56 31.9449 342.507 35.1486 347.097 35.1486ZM338.56 39.4506H333.604V0H338.56V17.7574C340.304 14.8283 343.792 13.3638 347.556 13.3638C354.623 13.3638 360.498 18.4896 360.498 26.636C360.498 34.6909 354.532 39.9998 347.464 39.9998C343.884 39.9998 340.212 38.4438 338.56 35.5147V39.4506Z" fill="#C62800"></path><path d="M3.43726 39.9998C1.78505 39.9998 0.5 38.7184 0.5 37.0708C0.5 17.2081 16.5632 1.00684 36.2979 1.00684C37.9501 1.00684 39.2352 2.2883 39.2352 3.93589C39.2352 5.58348 37.9501 6.86494 36.2979 6.86494C19.7758 6.86494 6.37453 20.5033 6.37453 37.0708C6.37453 38.7184 5.08947 39.9998 3.43726 39.9998Z" fill="#C62800"></path><path d="M13.8103 39.9998C12.1581 39.9998 10.873 38.7184 10.873 37.0708C10.873 22.8832 22.2549 11.3501 36.2987 11.3501C37.9509 11.3501 39.236 12.7231 39.236 14.3707C39.236 15.9267 37.9509 17.2997 36.2987 17.2997C25.5594 17.2997 16.7476 26.0869 16.7476 37.0708C16.7476 38.7184 15.2789 39.9998 13.8103 39.9998Z" fill="#C62800"></path><path d="M23.9968 39.9999C22.4364 39.9999 21.0596 38.7185 21.0596 37.0709C21.0596 28.6499 27.9438 21.7849 36.2966 21.7849C37.9488 21.7849 39.2339 23.0664 39.2339 24.714C39.2339 26.3616 37.9488 27.643 36.2966 27.643C31.1564 27.643 26.9341 31.8535 26.9341 37.0709C26.9341 38.7185 25.649 39.9999 23.9968 39.9999Z" fill="#C62800"></path><path d="M77.7862 39.9998C58.1432 39.9998 41.9883 23.7985 41.9883 3.93589C41.9883 2.2883 43.2733 1.00684 44.9255 1.00684C46.5778 1.00684 47.8628 2.2883 47.8628 3.93589C47.8628 20.5949 61.2641 34.1417 77.7862 34.1417C79.4384 34.1417 80.7234 35.4232 80.7234 37.0708C80.7234 38.7184 79.4384 39.9998 77.7862 39.9998Z" fill="#C62800"></path><path d="M77.787 29.6566C63.7432 29.6566 52.3613 18.0319 52.3613 3.93589C52.3613 2.2883 53.6464 1.00684 55.2986 1.00684C56.859 1.00684 58.2359 2.2883 58.2359 3.93589C58.2359 14.9198 67.0476 23.707 77.787 23.707C79.4392 23.707 80.7243 25.08 80.7243 26.7276C80.7243 28.2836 79.4392 29.6566 77.787 29.6566Z" fill="#C62800"></path><path d="M77.7878 19.2219C69.5268 19.2219 62.5508 12.3569 62.5508 3.93588C62.5508 2.2883 63.9276 1.00684 65.488 1.00684C67.1403 1.00684 68.4253 2.2883 68.4253 3.93588C68.4253 9.15325 72.6476 13.3638 77.7878 13.3638C79.4401 13.3638 80.7251 14.6452 80.7251 16.2928C80.7251 17.9404 79.4401 19.2219 77.7878 19.2219Z" fill="#C62800"></path></svg> 