<svg width="1028" height="222" viewBox="0 0 1028 222" fill="none" xmlns="http://www.w3.org/2000/svg">
<path d="M632.252 184.667C632.252 191.666 628.638 196.026 623.073 196.026C618.884 196.026 615.729 193.502 614.926 189.601H614.811V203.427H609.705V173.71H614.524L614.753 179.676H614.811C615.557 175.775 618.77 173.251 622.958 173.251C628.466 173.251 632.08 177.554 632.08 184.61L632.252 184.667ZM627.146 185.126C627.146 180.365 624.736 177.21 620.72 177.21C617.106 177.21 614.811 179.791 614.811 184.381C614.811 188.97 617.22 192.297 621.237 192.297C624.851 192.297 627.146 189.716 627.146 185.184V185.126Z" fill="#9C9EA1"/>
<path d="M634.662 189.314C634.662 185.241 637.416 182.889 643.325 182.488C646.997 182.143 650.841 183.004 650.841 180.308C650.841 178.414 648.948 176.923 645.907 176.923C643.038 176.923 640.973 178.3 640.456 180.709H635.35C636.039 176.234 640.112 173.423 645.85 173.423C651.587 173.423 655.718 176.579 655.718 181.34V188.339C655.718 191.953 656.005 194.191 656.578 195.625H651.702C651.185 194.477 650.956 192.297 650.841 188.569H650.726C650.038 193.043 646.423 196.084 641.891 196.084C637.358 196.084 634.604 193.445 634.604 189.314H634.662ZM650.841 184.209V183.807H650.726C649.751 185.528 647.112 185.241 644.128 185.585C641.719 185.815 639.653 186.618 639.653 188.683C639.653 190.749 641.26 191.953 643.669 191.953C647.513 191.953 650.784 189.257 650.784 184.209H650.841Z" fill="#9C9EA1"/>
<path d="M660.365 195.625V173.768H665.184L665.414 180.25H665.471C666.102 176.12 668.799 173.309 672.586 173.309C673.504 173.309 674.479 173.481 675.053 173.71V178.472C674.135 178.185 672.987 178.013 672.012 178.013C667.938 178.013 665.414 180.709 665.414 184.897V195.51H660.308L660.365 195.625Z" fill="#9C9EA1"/>
<path d="M692.781 177.439H686.011V187.077C686.011 190.519 687.388 192.068 690.142 192.068C691.174 192.068 692.15 191.781 692.781 191.38V195.281C691.805 195.74 690.371 195.969 688.879 195.969C683.716 195.969 681.019 193.158 681.019 187.593V177.382H675.798V173.71H681.019V167.744L686.011 168.031V173.71H692.781V177.382V177.439Z" fill="#9C9EA1"/>
<path d="M703.911 184.725C703.911 177.898 708.386 173.366 715.099 173.366C721.812 173.366 726.287 177.898 726.287 184.725C726.287 191.552 721.812 196.084 715.099 196.084C708.386 196.084 703.911 191.552 703.911 184.725ZM721.238 185.356C721.238 181.283 719.287 177.152 714.87 177.152C711.255 177.152 709.075 179.734 709.075 184.151C709.075 188.282 711.083 192.355 715.443 192.355C719.058 192.355 721.295 189.773 721.295 185.413L721.238 185.356Z" fill="#9C9EA1"/>
<path d="M737.36 172.907V173.825H745.45V177.496H737.36V195.682H732.368V177.496H726.975V173.825H732.368V172.505C732.368 167.342 735.18 164.646 740.63 164.646C742.581 164.646 744.417 165.048 745.45 165.679V169.522C744.359 168.834 743.097 168.49 741.778 168.49C738.278 168.49 737.36 170.612 737.36 172.964V172.907Z" fill="#9C9EA1"/>
<g clip-path="url(#clip0_269_1795)">
<path d="M0 97.8138H16.0727V1.37766H0V97.8138ZM62.4539 27.5532C41.3872 27.5532 27.668 41.6168 27.668 63.3723C27.668 85.1278 40.9854 99.1914 62.0521 99.1914C79.732 99.1914 92.5328 89.5478 95.6899 73.5899H79.9616C78.1247 81.8559 71.9253 87.3091 62.7983 87.3091C50.6864 87.3091 44.7165 76.9193 43.5111 65.3814H97.1824V63.3723C97.1824 41.502 83.6928 27.5532 62.5113 27.5532H62.4539ZM43.5685 55.4508C45.1757 44.8313 51.777 38.8041 61.8224 38.8041C71.6957 38.8041 78.2969 44.7165 80.3634 55.4508H43.6259H43.5685ZM193.044 27.5532C180.646 27.5532 171.92 34.8433 169.739 46.8978H169.452C167.443 34.7285 159.407 27.5532 147.41 27.5532C135.412 27.5532 126.458 34.8433 124.678 46.783H124.449L123.702 28.9308H108.433V97.8138H124.506V58.3783C124.506 47.0126 130.992 40.3539 140.464 40.3539C149.361 40.3539 154.47 46.6682 154.47 57.6895V97.8138H170.543V58.2061C170.543 46.8404 177.029 40.3539 186.328 40.3539C195.628 40.3539 200.449 46.6682 200.449 57.6895V97.8138H216.522V53.4417C216.522 37.2542 207.739 27.4958 193.159 27.4958L193.044 27.5532ZM262.674 27.5532C241.377 27.5532 227.314 41.789 227.314 63.3723C227.314 84.9556 241.377 99.1914 262.674 99.1914C283.97 99.1914 298.034 84.9556 298.034 63.3723C298.034 41.789 283.913 27.5532 262.674 27.5532ZM263.535 87.3091C249.701 87.3091 243.444 74.451 243.444 61.4206C243.444 47.4718 250.389 39.4355 261.755 39.4355C275.761 39.4355 281.903 52.5806 281.903 65.3814C281.903 79.158 274.958 87.3091 263.535 87.3091ZM350.098 27.5532C337.182 27.5532 327.883 35.0155 325.702 47.4144H325.472L324.726 28.9308H309.457V97.8138H325.529V60.33C325.529 47.5866 332.762 40.3539 343.209 40.3539C353.14 40.3539 358.823 47.4144 358.823 59.7559V97.8138H374.895V55.4508C374.895 38.0004 365.539 27.5532 350.212 27.5532H350.098ZM452.044 52.5232C452.044 37.4838 439.875 27.5532 420.817 27.5532C401.76 27.5532 389.763 36.5654 387.696 50.5716H403.769C405.491 43.1092 411.92 38.6893 420.99 38.6893C430.691 38.6893 436.603 43.3963 436.603 49.3087C436.603 57.8617 424.434 55.1063 412.896 56.197C394.355 57.4599 385.63 64.8648 385.63 77.7803C385.63 90.6959 394.814 99.134 408.591 99.134C422.367 99.134 434.192 89.6626 436.431 75.4842H436.718C437.12 87.1943 437.751 94.0826 439.358 97.7564H454.8V97.5842C453.02 93.0494 452.044 85.9889 452.044 74.5658V52.4658V52.5232ZM436.603 61.7076C436.603 77.6081 426.328 86.1611 414.216 86.1611C406.524 86.1611 401.473 82.3151 401.473 75.8286C401.473 69.3422 407.959 66.8165 415.479 66.0128C424.95 65.037 433.159 65.8406 436.259 60.4448H436.546V61.7076H436.603ZM466.739 97.8138H482.812V28.9308H466.739V97.8138ZM549.341 47.8162H549.055C546.644 35.4173 536.656 27.5532 523.453 27.5532C505.888 27.5532 494.58 41.3298 494.58 63.4297C494.58 85.5296 505.945 99.1914 523.396 99.1914C536.656 99.1914 546.701 91.3273 549.055 78.9284H549.341L550.088 97.8138H565.357V1.37766H549.284V47.8162H549.341ZM531.087 87.1369C518.516 87.1369 510.824 77.0915 510.824 62.1094C510.824 47.1274 517.942 39.6077 529.365 39.6077C541.994 39.6077 549.628 49.4809 549.628 64.4629C549.628 79.445 542.453 87.0795 531.087 87.0795V87.1369ZM651.116 27.5532C638.201 27.5532 628.901 35.0155 626.72 47.4144H626.49V1.37766H610.418V97.8138H626.49V60.33C626.49 47.5866 633.723 40.3539 644.17 40.3539C654.101 40.3539 659.784 47.4144 659.784 59.7559V97.8138H675.856V55.4508C675.856 38.0004 666.5 27.5532 651.173 27.5532H651.116ZM721.778 27.5532C700.712 27.5532 686.993 41.6168 686.993 63.3723C686.993 85.1278 700.31 99.1914 721.377 99.1914C739.057 99.1914 751.857 89.5478 755.014 73.5899H739.286C737.449 81.8559 731.25 87.3091 722.123 87.3091C710.011 87.3091 704.041 76.9193 702.836 65.3814H756.507V63.3723C756.507 41.502 743.017 27.5532 721.836 27.5532H721.778ZM702.95 55.4508C704.558 44.8313 711.159 38.8041 721.204 38.8041C731.078 38.8041 737.679 44.7165 739.745 55.4508H703.008H702.95ZM829.523 52.5232C829.523 37.4838 817.354 27.5532 798.296 27.5532C779.238 27.5532 767.241 36.5654 765.175 50.5716H781.247C782.969 43.1092 789.399 38.6893 798.468 38.6893C808.169 38.6893 814.082 43.3963 814.082 49.3087C814.082 57.8617 801.912 55.1063 790.374 56.197C771.833 57.4599 763.108 64.8648 763.108 77.7803C763.108 90.6959 772.293 99.134 786.069 99.134C799.846 99.134 811.671 89.6626 813.909 75.4842H814.196C814.598 87.1943 815.23 94.0826 816.837 97.7564H832.278V97.5842C830.499 93.0494 829.523 85.9889 829.523 74.5658V52.4658V52.5232ZM814.082 61.7076C814.082 77.6081 803.807 86.1611 791.695 86.1611C784.003 86.1611 778.951 82.3151 778.951 75.8286C778.951 69.3422 785.438 66.8165 792.957 66.0128C802.429 65.037 810.637 65.8406 813.737 60.4448H814.024V61.7076H814.082ZM844.218 97.8138H860.291V1.37766H844.218V97.8138ZM921.826 40.5261V28.9308H900.472V11.0213L884.744 10.1602V28.9308H868.269V40.5261H884.744V72.7863C884.744 90.4089 893.125 99.1914 909.427 99.1914C914.249 99.1914 918.726 98.3878 921.769 96.9527V84.5538C919.702 85.9889 916.66 86.7925 913.388 86.7925C904.72 86.7925 900.415 81.7985 900.415 71.0068V40.5261H921.769H921.826ZM973.66 27.5532C960.745 27.5532 951.446 35.0155 949.264 47.4144H949.035V1.37766H932.962V97.8138H949.035V60.33C949.035 47.5866 956.268 40.3539 966.715 40.3539C976.645 40.3539 982.328 47.4144 982.328 59.7559V97.8138H998.401V55.4508C998.401 38.0004 989.044 27.5532 973.718 27.5532H973.66ZM474.776 0C469.609 0 465.362 4.19038 465.362 9.414C465.362 14.6376 469.552 18.828 474.776 18.828C479.999 18.828 484.19 14.6376 484.19 9.414C484.19 4.19038 479.999 0 474.776 0Z" fill="#6B6B6B"/>
</g>
<g clip-path="url(#clip1_269_1795)">
<path fill-rule="evenodd" clip-rule="evenodd" d="M931.876 196.316H937.97V164.316H931.539V176.039C929.993 173.638 927.913 172.584 924.772 172.584C919.203 172.584 915.438 177.536 915.438 184.79C915.438 191.896 919.401 196.847 925.059 196.847C928.061 196.847 930.38 195.647 931.876 193.245V196.316ZM931.628 184.682C931.628 188.865 929.647 191.601 926.694 191.601C923.89 191.601 921.908 188.766 921.908 184.731C921.908 180.547 923.791 177.86 926.793 177.86C929.785 177.86 931.579 180.41 931.628 184.682ZM979.268 196.316H972.838V170.557L964.951 196.306H957.935L949.959 170.557V196.306H943.528V164.316H954.309L961.711 188.53L968.964 164.316H979.268V196.316ZM995.419 196.838C988.166 196.838 983.519 192.083 983.519 184.583C983.519 177.378 988.216 172.575 995.221 172.575C1002.29 172.575 1006.73 177.378 1006.73 185.164C1006.73 185.319 1006.73 185.459 1006.72 185.625C1006.7 185.868 1006.69 186.168 1006.69 186.66H990.148C990.297 190.026 992.278 191.946 995.558 191.946C997.738 191.946 999.185 191.03 999.819 189.209H1006.69C1005.19 194.2 1001.23 196.838 995.419 196.838ZM1000.07 182.044C999.967 179.209 998.035 177.289 995.182 177.289C992.377 177.289 990.634 178.913 990.108 182.044H1000.07ZM897.533 175.99C899.228 173.736 901.497 172.584 904.35 172.584C907.739 172.584 910.642 174.366 911.653 177.102C912.237 178.539 912.327 179.701 912.327 183.156V196.326H905.896V182.713C905.896 178.963 904.836 177.476 902.17 177.476C899.218 177.476 897.87 179.642 897.87 184.298V196.306H891.439V173.106H897.533V175.99ZM884.821 175.124C883.077 173.352 880.372 172.437 876.983 172.437C870.691 172.437 866.777 175.419 866.45 180.37H873.069C873.218 178.106 874.516 176.955 877.082 176.955C879.787 176.955 880.946 178.343 880.946 181.61C878.717 181.758 876.061 182.142 873.594 182.575C870.394 183.195 868.709 183.914 867.352 185.311C866.232 186.473 865.558 188.107 865.558 189.829C865.558 193.963 869.036 196.847 874.02 196.847C877.845 196.847 880.213 195.647 881.907 192.763V193.727C881.907 194.584 881.907 195.017 882.145 196.316H887.615C887.189 194.397 886.991 191.995 886.991 188.343V186.178C887.007 185.526 887.018 184.968 887.028 184.503L887.028 184.502C887.046 183.591 887.057 183.033 887.09 182.811C887.09 178.677 886.515 176.807 884.821 175.124ZM877.895 186.276L880.074 185.941L880.946 185.794C880.857 190.164 879.113 192.329 875.774 192.329C873.693 192.329 872.237 191.227 872.237 189.593C872.237 187.812 873.832 186.896 877.895 186.276ZM847 186.896C847 189.879 848.981 191.749 852.033 191.749C854.887 191.749 856.72 190.164 856.72 187.713C856.72 184.78 854.887 183.628 850.141 183.628H849.417V178.392H850.091C854.629 178.392 856.423 177.289 856.423 174.455C856.423 172.151 854.629 170.468 852.113 170.468C849.11 170.468 847.475 172.25 847.475 175.508V175.547H840.748C840.946 171.61 841.857 169.543 844.275 167.624C846.257 166.039 848.922 165.212 852.251 165.212C858.731 165.212 862.992 168.529 862.992 173.618C862.992 177.221 860.911 179.858 857.235 180.774C858.543 181.059 859.019 181.256 859.702 181.64C862.12 182.89 863.379 185.144 863.379 188.028C863.379 193.511 859.029 196.916 852.162 196.916C844.671 196.916 840.361 193.028 840.361 186.109H847.039C847.045 186.323 847.03 186.494 847.016 186.64C847.008 186.735 847 186.818 847 186.896ZM815.996 196.316H837.834V190.991H823.953C824.438 188.875 825.013 188.304 829.61 185.371C835.664 181.473 837.884 178.5 837.884 174.169C837.884 168.697 833.683 165.232 827.054 165.232C823.913 165.232 821.446 166.049 819.415 167.683C816.997 169.661 816.036 172.053 815.937 176.187H822.417C822.506 172.437 824.151 170.419 827.054 170.419C829.422 170.419 831.067 172.043 831.067 174.455C831.067 175.37 830.829 176.335 830.344 177.142C829.868 177.91 829.283 178.589 828.56 179.12C828.02 179.499 826.824 180.289 824.951 181.526C824.488 181.832 823.984 182.165 823.437 182.526C818.117 185.991 815.947 189.593 815.947 195.066V195.066C815.947 195.401 815.947 195.834 815.996 196.316Z" fill="#9C9EA1"/>
<path fill-rule="evenodd" clip-rule="evenodd" d="M800.004 137.858C801.748 134.413 805.969 133.016 809.447 134.738C812.915 136.471 814.322 140.664 812.588 144.119L794.386 180.272L788.52 160.665L800.004 137.858ZM772.894 207.35C769.416 205.618 768.009 201.415 769.743 197.97L779.315 178.963L785.181 198.57L782.337 204.22C780.593 207.675 776.372 209.072 772.894 207.35Z" fill="#92C746"/>
<path d="M779.315 178.963L785.181 198.57L794.386 180.272L788.52 160.665L779.315 178.963Z" fill="#3BA510"/>
<path fill-rule="evenodd" clip-rule="evenodd" d="M775.916 143.046C779.641 141.943 783.555 144.06 784.665 147.76L788.509 160.665L779.304 178.963L771.169 151.737C770.07 148.036 772.19 144.148 775.916 143.046ZM799.181 220.884C795.466 221.977 791.552 219.87 790.442 216.169L785.171 198.58L794.386 180.282L803.927 212.193C805.037 215.894 802.907 219.782 799.181 220.884Z" fill="#D50F67"/>
<path d="M1019.59 188.481C1018.51 188.481 1017.48 188.274 1016.52 187.862C1015.57 187.449 1014.73 186.883 1014 186.164C1013.28 185.43 1012.72 184.589 1012.31 183.641C1011.89 182.678 1011.69 181.646 1011.69 180.545C1011.69 179.459 1011.89 178.442 1012.31 177.494C1012.72 176.531 1013.28 175.69 1014 174.971C1014.73 174.237 1015.57 173.664 1016.52 173.251C1017.48 172.838 1018.51 172.632 1019.59 172.632C1020.69 172.632 1021.72 172.838 1022.68 173.251C1023.64 173.664 1024.48 174.237 1025.2 174.971C1025.93 175.69 1026.51 176.531 1026.92 177.494C1027.33 178.442 1027.54 179.459 1027.54 180.545C1027.54 181.646 1027.33 182.678 1026.92 183.641C1026.51 184.589 1025.93 185.43 1025.2 186.164C1024.48 186.883 1023.64 187.449 1022.68 187.862C1021.72 188.274 1020.69 188.481 1019.59 188.481ZM1019.59 186.898C1020.46 186.898 1021.28 186.738 1022.04 186.417C1022.82 186.08 1023.5 185.621 1024.08 185.04C1024.66 184.459 1025.11 183.787 1025.43 183.022C1025.77 182.242 1025.93 181.417 1025.93 180.545C1025.93 179.673 1025.77 178.855 1025.43 178.091C1025.11 177.326 1024.66 176.653 1024.08 176.072C1023.5 175.491 1022.82 175.04 1022.04 174.719C1021.28 174.383 1020.46 174.215 1019.59 174.215C1018.72 174.215 1017.9 174.383 1017.14 174.719C1016.39 175.04 1015.73 175.491 1015.15 176.072C1014.57 176.653 1014.11 177.326 1013.77 178.091C1013.45 178.855 1013.29 179.673 1013.29 180.545C1013.29 181.417 1013.45 182.242 1013.77 183.022C1014.11 183.787 1014.57 184.459 1015.15 185.04C1015.73 185.621 1016.39 186.08 1017.14 186.417C1017.9 186.738 1018.72 186.898 1019.59 186.898ZM1015.99 184.513V176.072H1019.45C1020.18 176.072 1020.83 176.149 1021.4 176.302C1021.98 176.439 1022.44 176.699 1022.77 177.082C1023.11 177.449 1023.28 177.984 1023.28 178.687C1023.28 179.161 1023.14 179.627 1022.86 180.086C1022.6 180.545 1022.08 180.881 1021.28 181.095L1023.73 184.513H1021.26L1018.95 181.325H1018.21V184.513H1015.99ZM1018.21 179.605H1019.41C1019.85 179.605 1020.22 179.551 1020.51 179.444C1020.81 179.322 1020.96 179.077 1020.96 178.71C1020.96 178.343 1020.81 178.106 1020.51 177.999C1020.22 177.877 1019.85 177.816 1019.41 177.816H1018.21V179.605Z" fill="#9C9EA1"/>
</g>
<defs>
<clipPath id="clip0_269_1795">
<rect width="998.343" height="99.1914" fill="white"/>
</clipPath>
<clipPath id="clip1_269_1795">
<rect width="258.537" height="87.1694" fill="white" transform="translate(769 134)"/>
</clipPath>
</defs>
</svg>
