<svg id="Layer_1" data-name="Layer 1" xmlns="http://www.w3.org/2000/svg" viewBox="0 0 307.66 107.4"><defs><style>.cls-1{fill:#fff;}</style></defs><path class="cls-1" d="M186.27,93.08a10.45,10.45,0,0,1-3-3,7,7,0,0,1-1.17-3.63c-5.7,1.65-11.35,3.47-17.52,4.37-2.08.27-4.19.48-6.29.63-.25.18-.5.36-.75.52A10.32,10.32,0,0,1,156,93l-.17.1a1.66,1.66,0,0,1-.43.14l-1.73.63-.26.08L153,94a6.87,6.87,0,0,1-.93.33,7.3,7.3,0,0,1-1.93.23,8.77,8.77,0,0,1-.88,0,7.18,7.18,0,0,1-2.5-.62,5.85,5.85,0,0,1-2.12-1.6,4.07,4.07,0,0,1-.45-.74,84.09,84.09,0,0,1-9.8-1.21q2.88,1,5.84,1.94l.27-.14a3.15,3.15,0,0,1,3.12.35,3.43,3.43,0,0,1,1,1.15c5.12,1.55,10.4,3,15.85,4.19,10.88,2,21.1-.07,30.8-2.72A12.58,12.58,0,0,1,186.27,93.08Z"/><path class="cls-1" d="M224.14,88c-5.95-2.33-11.44-4.14-18.31-4.65a49.21,49.21,0,0,0-14.55.81,7.38,7.38,0,0,0-.56,2.18v.23a1.79,1.79,0,0,0,.09.66.29.29,0,0,0,.07.11,1.16,1.16,0,0,0,.38.14,2.72,2.72,0,0,0,.87.08h.41a30.7,30.7,0,0,0,5.1-1.11,38.72,38.72,0,0,0,4.71-1.71,4.72,4.72,0,0,1,3.8-.21,3.67,3.67,0,0,1,1.4,1,3.22,3.22,0,0,1,.7,1.81v.16a3.25,3.25,0,0,1-.49,1.69,3.93,3.93,0,0,1-1.52,1.38c-.22.13-.61.36-1.12.64a64.32,64.32,0,0,1,24.06-1.43A53.41,53.41,0,0,1,224.14,88Z"/><path class="cls-1" d="M125.05,53.71a11,11,0,0,1-.49,3.55,6.21,6.21,0,0,1-2.47,3.21,7,7,0,0,1-3.92,1.08A6.77,6.77,0,0,1,112.5,59a7.71,7.71,0,0,1,.26-9.45,7,7,0,0,1,5.54-2.26,6.59,6.59,0,0,1,4,1.21,6.91,6.91,0,0,1,2,2.55L121,52.45a3.78,3.78,0,0,0-1-1.4,2.9,2.9,0,0,0-1.92-.67,3.22,3.22,0,0,0-3.18,2.34,4.93,4.93,0,0,0-.33,1.78,4.43,4.43,0,0,0,1.21,3.18,3.16,3.16,0,0,0,2.4.94,2.9,2.9,0,0,0,2.12-.76,2.69,2.69,0,0,0,.67-1.5h-2.87V53.71Z"/><path class="cls-1" d="M140,61.13h-3.72l-.86-2.34h-4.8l-.92,2.34H126l5.15-13.38h3.79Zm-5.51-5L133,51.87l-1.47,4.26Z"/><polygon class="cls-1" points="149.15 61.13 141.5 61.13 141.5 47.75 144.97 47.75 144.97 58.23 149.15 58.23 149.15 61.13"/><path class="cls-1" d="M163.66,61.13h-3.72l-.86-2.34h-4.8l-.92,2.34h-3.68l5.15-13.38h3.79Zm-5.5-5-1.46-4.26-1.47,4.26Z"/><polygon class="cls-1" points="178.06 61.13 173.86 61.13 170.99 56.78 168 61.13 163.79 61.13 169.03 53.99 164.74 47.75 169.02 47.75 171.01 51.22 173.09 47.75 177.37 47.75 173 53.99 178.06 61.13"/><polygon class="cls-1" points="191.16 47.75 186.14 54.7 186.14 61.13 182.67 61.13 182.67 54.7 177.81 47.75 181.97 47.75 184.51 51.41 186.94 47.75 191.16 47.75"/><path class="cls-1" d="M180.8,64.11a7,7,0,0,1,.54.45,2.2,2.2,0,0,1,.26.27h0a4,4,0,0,1,.67,1,2.91,2.91,0,0,1,.16.5l12.83.14c1.07-.81,2.17-1.58,3.29-2.29l.71-.44Z"/><path class="cls-1" d="M127.86,65.75a13.8,13.8,0,0,1,2.4-.22,16,16,0,0,1,2.86.28l2.89,0a3.65,3.65,0,0,1,1.05-.46,4.55,4.55,0,0,1,1.25-.18h0a4.06,4.06,0,0,1,2.25.69l30.45.34a.71.71,0,0,1,.1-.14l.49-.54.09-.09a1.37,1.37,0,0,1,.29-.24l.11-.06.77-.46.78-.46-68.54,1.25Z"/><path class="cls-1" d="M289.63,61c-.07-.08-.22-.1-.42-.06v0a8.52,8.52,0,0,1-1.86,0l-.48,0-3.13,0-3.71,0-5.09-.11c-3.5-.09-7.13-.18-10.7-.11-6.07.14-11.08-.75-15.31-2.71-2.39-1.1-4.71-2.35-7-3.57-2.49-1.35-5.07-2.74-7.76-3.94a108.22,108.22,0,0,0-16.29-5.23l-1.07-.29-6.61-1.7-3.92-1-20.18-5.2L186,36.8c-2.17-5.08-14-9.64-28.58-10.65a79.48,79.48,0,0,0-11.35,0l-4.56-5.81h7.7V18.22h-9.38l-7.68-9.78H136V6.38h-5.44l-5-6.3L125.52,0H120.6l.16.29,1.69,3.18H114v.2l-.35,1.48v.2h9.82l6.25,11.82H115.46v.2l-.34,1.48v.2h15.63l1.72,3.24L122,33,12.58,36.44v.4l28.47.24c.83-.14,1.65-.26,2.47-.35.58-.06,1.09,0,1.66-.08a15.53,15.53,0,0,1,4,.51c3.93,0,7.87.06,11.8.11,12.37.13,24.75.12,37.13.18l7.31.07q8.25-.39,16.87-.4c51.57,0,95,11,108.28,26.07L214,63.5a7,7,0,0,1,1.32,3.23l44.64.49a6.19,6.19,0,0,1,2.88,1.41c2.5,2.27,2.69,6.54.95,11.34l-.09.23c-.07.2-.15.4-.23.6a.49.49,0,0,0,0,.11q-.3.74-.66,1.47l0,.07-.33.66-.07.14-.32.6-.1.17-.32.58-.11.17-.34.57a1.74,1.74,0,0,0-.11.18l-.37.57-.11.17c-.13.2-.26.39-.4.58A.91.91,0,0,1,260,87l-.43.6-.1.14-.47.63-.08.1-.54.68c-.42.52-.86,1-1.32,1.55a37.44,37.44,0,0,1-3.88,3.72,8.83,8.83,0,0,0-.73.6c-.91.82-1.51,1.62-1.35,1.8s1-.34,1.93-1.15l.07-.07h0c2.78-2.29,5.71-4.74,8.71-7.32C278.14,74.3,290.58,62.06,289.63,61Z"/><path class="cls-1" d="M307.61,63.66c-.06-.07-.18-.08-.35,0l0,0a7.22,7.22,0,0,1-1.59,0l-.41,0-2.69,0-3.17,0L295,63.39c-1.55,0-3.12-.08-4.7-.1-1.58,1.73-3.76,3.92-6.39,6.45a4.24,4.24,0,0,1,.69.51c2.15,1.94,2.31,5.6.82,9.71a1.59,1.59,0,0,0-.07.2l-.2.51a.42.42,0,0,0,0,.1c-.17.41-.36.84-.56,1.26l0,.06c-.09.19-.18.38-.28.57a.75.75,0,0,1-.07.12q-.12.25-.27.51a.64.64,0,0,1-.08.14l-.28.5-.09.15-.29.49-.1.15-.31.49-.1.15c-.11.16-.22.33-.34.49l-.09.14-.37.51a.83.83,0,0,0-.08.12l-.41.54-.07.09c-.15.19-.3.39-.46.58-.36.45-.74.89-1.13,1.33a33.07,33.07,0,0,1-3.33,3.19q-.3.23-.63.51c-.77.7-1.29,1.39-1.15,1.55s.88-.3,1.65-1l.07-.07h0c2.38-2,4.89-4.07,7.47-6.28C297.77,75.1,308.43,64.61,307.61,63.66Z"/><path class="cls-1" d="M271.05,93.32a34.34,34.34,0,0,0-3.2-2.52,18.09,18.09,0,0,0-5-2.28l-5,4c1.33,0,2.66.11,4,.26a32.85,32.85,0,0,1,6.17,1.28c1.87.59,3.67,1.4,5.63,1C272.93,95.29,271.62,93.79,271.05,93.32Z"/><polygon class="cls-1" points="118.77 41.77 118.77 42.49 117.35 42.49 117.35 45.7 116.37 45.7 116.37 42.49 114.94 42.49 114.94 41.77 118.77 41.77"/><polygon class="cls-1" points="124.42 41.77 124.42 45.7 123.44 45.7 123.44 44.1 121.5 44.1 121.5 45.7 120.52 45.7 120.52 41.77 121.5 41.77 121.5 43.34 123.44 43.34 123.44 41.77 124.42 41.77"/><polygon class="cls-1" points="129.35 44.98 129.35 45.7 126.46 45.7 126.46 41.77 129.31 41.77 129.31 42.49 127.44 42.49 127.44 43.32 129.23 43.32 129.23 44.04 127.44 44.04 127.44 44.98 129.35 44.98"/><path class="cls-1" d="M105.17,61.66a19,19,0,0,0,1.93-7.8,14.46,14.46,0,0,0-.75-4.9A8.75,8.75,0,0,0,104,45.38h0a5.33,5.33,0,0,0-1.08-.81,3.14,3.14,0,0,0-1.57-.44,2.34,2.34,0,0,0-1.53.54,2,2,0,0,0-.51.65,2,2,0,0,0-.19.84,2.19,2.19,0,0,0,.31,1.1,3.61,3.61,0,0,0,.65.82,5.51,5.51,0,0,1,.9,2,13.38,13.38,0,0,1,.34,3.19c0,.17,0,.35,0,.52a18.56,18.56,0,0,1-2,6.88A44.48,44.48,0,0,1,94,68.91,79,79,0,0,1,79.25,83.15a63.56,63.56,0,0,1-7.41,4.9A14.18,14.18,0,0,1,67,89.87h0a8,8,0,0,1-1,0,6.26,6.26,0,0,1-1.8-.25A3.76,3.76,0,0,1,62.77,89a2.44,2.44,0,0,1-.69-.87,2.35,2.35,0,0,1-.24-1.08V87h0a34.22,34.22,0,0,1,2.57-12.31,83.62,83.62,0,0,1,7.42-13.36h0a2.74,2.74,0,0,0,.32-.79,2.8,2.8,0,0,0,.1-.74,4.34,4.34,0,0,0-.29-1.5,6.26,6.26,0,0,0-1.3-2.08,4.82,4.82,0,0,0-2.14-1.37h0l-.16,0h0a3.19,3.19,0,0,0-.45,0,3,3,0,0,0-1.43.37A4.06,4.06,0,0,0,65,56.44c-.37.44-.65.78-.86,1.06a6.48,6.48,0,0,0-.41.59L49.6,71h0l-5.15,4.73c2.25-3.44,4.31-6.89,6.21-10.4h0a81.09,81.09,0,0,0,4.9-10.61A23.67,23.67,0,0,0,57.21,47c0-.17,0-.34,0-.5a6.58,6.58,0,0,0-1.26-3.59,10,10,0,0,0-3.2-2.78h0A14.36,14.36,0,0,0,45.19,38c-.5,0-1,0-1.5.07h0c-8,.89-16.84,4.13-26.49,9.61h0a66.65,66.65,0,0,0-11.64,8A24.33,24.33,0,0,0,2.1,59.44,12.5,12.5,0,0,0,.24,63.09a3.72,3.72,0,0,0-.21.79,5.79,5.79,0,0,0,0,.69,7.82,7.82,0,0,0,1,3.58,6.79,6.79,0,0,0,1.11,1.54,4.57,4.57,0,0,0,1.53,1.06h0a7.75,7.75,0,0,0,3,.61,11.57,11.57,0,0,0,3.16-.5,5,5,0,0,0,1.08-.28A2.41,2.41,0,0,0,12,69.75a1.83,1.83,0,0,0,.31-1,1.72,1.72,0,0,0-.27-.92,1.87,1.87,0,0,0-.51-.5,2.67,2.67,0,0,0-1-.37,5.86,5.86,0,0,0-1.15-.1,12.89,12.89,0,0,1-2.84-.25,3.27,3.27,0,0,1-.76-.25l0,0a.85.85,0,0,1-.09-.14,1.05,1.05,0,0,1-.07-.42A4.21,4.21,0,0,1,6,64.22c.87-2,2.76-4.2,5.69-6.52a70.67,70.67,0,0,1,11.84-7.28h0a94.12,94.12,0,0,1,13.28-5.55,33.62,33.62,0,0,1,9.91-1.81,9.24,9.24,0,0,1,2.2.24,4.6,4.6,0,0,1,1.16.47,3,3,0,0,1,1.11,1.11,4.88,4.88,0,0,1,.55,1.83h0a3.63,3.63,0,0,1,0,.5,13,13,0,0,1-1,4.21A83.19,83.19,0,0,1,43.82,65c-3.74,6.21-9.09,14.3-16.65,24.8l0,0,0,0L27,90l0,0,0,0a4,4,0,0,0-.18.55A2.61,2.61,0,0,0,27,92.47a3,3,0,0,0,1.39,1.34,5.52,5.52,0,0,0,2.46.49A4.21,4.21,0,0,0,32.31,94a3.2,3.2,0,0,0,1.22-.8h0c.92-1,1.75-1.88,2.48-2.69h0c.88-1,1.62-1.8,2.27-2.41L60.66,67.25c-3.13,6.09-4.74,11.88-4.74,17.32A21.86,21.86,0,0,0,56,87.15h0a7.37,7.37,0,0,0,1,3,8.51,8.51,0,0,0,3.53,3.26,11.54,11.54,0,0,0,5.2,1.19,17.56,17.56,0,0,0,1.82-.12h0l.19,0h.06a24.31,24.31,0,0,0,7.09-2.61,66.33,66.33,0,0,0,8.65-5.63h0a81.9,81.9,0,0,0,15.9-15.51h0A47.41,47.41,0,0,0,105.17,61.66Zm38.41,32.81a2.09,2.09,0,0,0-.73-.9,1.83,1.83,0,0,0-1.09-.36,1.62,1.62,0,0,0-.71.15h0a2.15,2.15,0,0,0-.81.67,3.06,3.06,0,0,0-.43.82,4.72,4.72,0,0,1-1.32,1.42,11.91,11.91,0,0,1-2.5,1.39,16.07,16.07,0,0,1-1.89.63h0a19.58,19.58,0,0,1-5.19.71,9.68,9.68,0,0,1-2.09-.2,4.31,4.31,0,0,1-1.07-.37,2.12,2.12,0,0,1-.9-.81,2.43,2.43,0,0,1-.3-1.23,5.61,5.61,0,0,1,.06-1,24.24,24.24,0,0,1,2.21-6.59,52,52,0,0,1,4.7-7.2c2.18-2.87,4.55-5.8,6.84-8.65l2.32-2.87,0,0,0,0,.12-.2,0-.06,0,0a1.69,1.69,0,0,0,.14-.68,2,2,0,0,0-.27-1,3,3,0,0,0-.38-.55h0a2.8,2.8,0,0,0-2.07-1,3.09,3.09,0,0,0-.89.13,2.75,2.75,0,0,0-.93.45l0,0,0,0a1.06,1.06,0,0,1-.36.22,3.5,3.5,0,0,1-.7.16h-.19l-.37,0h0l-.29,0a17.91,17.91,0,0,0-4.27-.61,15,15,0,0,0-3.92.6h0C121.56,69,116.43,72,111,76.32h0a41.36,41.36,0,0,0-7.2,7,14.61,14.61,0,0,0-1.85,3.16,7.85,7.85,0,0,0-.64,3,4.66,4.66,0,0,0,.41,2,3.13,3.13,0,0,0,.78,1.05,3.52,3.52,0,0,0,1.48.79,4.93,4.93,0,0,0,1.35.17,6.1,6.1,0,0,0,2.81-.72h0a94.93,94.93,0,0,0,12.57-7.41h0c1-.69,1.94-1.35,2.83-2a42.5,42.5,0,0,0-3.07,6.18,16.69,16.69,0,0,0-1.06,5.43h0c0,.13,0,.26,0,.38a7.5,7.5,0,0,0,.94,3.81,6.3,6.3,0,0,0,2.75,2.5h0a15.62,15.62,0,0,0,7.46,1.91,17.18,17.18,0,0,0,5.29-.72l1.84-.39.09,0,.08,0a12.56,12.56,0,0,0,3.63-2.3,7.62,7.62,0,0,0,2-3.13h0a4.4,4.4,0,0,0,.3-1.48A2.75,2.75,0,0,0,143.58,94.47ZM110.2,87.72a2.31,2.31,0,0,1-.62.19,1.17,1.17,0,0,1-.2,0,1.06,1.06,0,0,1-.13-.64,2.82,2.82,0,0,1,.23-1.14A35.3,35.3,0,0,1,117,77.2c3.71-3.29,6.78-5.2,9.12-5.67a7.65,7.65,0,0,1,1.6-.17c1.57,0,2.47.6,2.59,1C122.55,79.76,116,84.77,110.2,87.72Zm70.42-22-.64.57.64-.57-.19-.19a6.59,6.59,0,0,0-1.19-.86,4.33,4.33,0,0,0-.87-.39,3.15,3.15,0,0,0-1-.18,2.58,2.58,0,0,0-.93.17h0a30.55,30.55,0,0,0-2.82,1.57h0l-.77.46-.11.06-.08.09-.4.42-.09.11-.06.13a19.82,19.82,0,0,0-.85,2.34h0c-.05.16-.1.34-.15.48a1.21,1.21,0,0,0,0,.14l-.09.09L163,78.94c-1.7,1.82-3.42,3.63-5,5.16a32.25,32.25,0,0,1-4.1,3.51l0-.07a31.2,31.2,0,0,1,3.07-6,95,95,0,0,1,5.85-8.15l0-.05,0,0,.1-.18,0,0a2.78,2.78,0,0,0,.24-.41,1.85,1.85,0,0,0,.17-.76,2.4,2.4,0,0,0-.32-1.21,2.64,2.64,0,0,0-.87-.89h0a4,4,0,0,0-2.1-.52,3.74,3.74,0,0,0-1.34.23,2.6,2.6,0,0,0-1,.72h0a89.46,89.46,0,0,0-8.25,10.4,32.29,32.29,0,0,0-4.22,8.64h0a1.93,1.93,0,0,0-.12.67,2.25,2.25,0,0,0,.54,1.46,4.3,4.3,0,0,0,1.63,1.21,5.62,5.62,0,0,0,2,.51h0l.77,0a6.08,6.08,0,0,0,1.53-.17h0a9,9,0,0,0,1-.34l.46-.08h.07l.06,0,1.91-.7h.09l.17-.1a10,10,0,0,0,1.41-.89,87.46,87.46,0,0,0,10.29-8.65,107.77,107.77,0,0,0,7.57-7.84,15.32,15.32,0,0,0,1.95.56h.05a5.52,5.52,0,0,0,1,.09,3.27,3.27,0,0,0,.8-.09,2.46,2.46,0,0,0,.83-.35,2.27,2.27,0,0,0,.65-.66,2.12,2.12,0,0,0,.33-1.17,2,2,0,0,0-.34-1.08,2.16,2.16,0,0,0-.79-.71h0l-.18-.12a3.23,3.23,0,0,1,.27-.59,11.89,11.89,0,0,1,1.5-2h0a1.81,1.81,0,0,0,.28-.41,1.58,1.58,0,0,0,.18-.76,1.52,1.52,0,0,0-.15-.71A2.46,2.46,0,0,0,180.62,65.72ZM214,67.61a5.75,5.75,0,0,0-1.74-4h0a6.29,6.29,0,0,0-4.46-1.8A7.51,7.51,0,0,0,206,62h-.05a30.76,30.76,0,0,0-6.64,3.29,45.89,45.89,0,0,0-10.37,9A28.08,28.08,0,0,0,185.16,80,16.17,16.17,0,0,0,183.47,86h0c0,.08,0,.16,0,.24a5.72,5.72,0,0,0,1,3.1A9.35,9.35,0,0,0,187,92a10.62,10.62,0,0,0,5.83,1.93,6.46,6.46,0,0,0,1.08-.08h0a27.57,27.57,0,0,0,6.65-1.91,39,39,0,0,0,5-2.48h0a2.64,2.64,0,0,0,1-.9,1.92,1.92,0,0,0,.29-1v-.09h0a1.81,1.81,0,0,0-.41-1,2.24,2.24,0,0,0-.87-.65,3,3,0,0,0-1.1-.21,3.75,3.75,0,0,0-1.64.41h0A43,43,0,0,1,198,87.73a31.86,31.86,0,0,1-5.39,1.16l-.5,0a5.64,5.64,0,0,1-1.16-.12,2.32,2.32,0,0,1-.91-.4,1.5,1.5,0,0,1-.49-.65,3.25,3.25,0,0,1-.19-1.16c0-.11,0-.22,0-.34a11,11,0,0,1,1.82-4.82,29.39,29.39,0,0,1,3.26-4.17h2.68l.09,0c.36-.08.8-.13,1.28-.24a56.3,56.3,0,0,0,7.63-2.27,49.61,49.61,0,0,0,5.21-2.47l.07,0,.06,0a8,8,0,0,0,1.61-1.69h0v0h0A4.83,4.83,0,0,0,214,67.61Zm-5.5.84c-1.91,2.29-6.59,4.23-11.26,4.82a47.21,47.21,0,0,1,9.67-6.41c1.18-.52,2-.5,2.24-.31S209.38,67.39,208.53,68.45Z"/><path class="cls-1" d="M127.29,91a23.58,23.58,0,0,0-1.38,4.7,3.8,3.8,0,0,0,0,.7,1.69,1.69,0,0,0,0,.38c1-.11,1.92-.21,2.9-.29a55.3,55.3,0,0,1,6.89-.15,10.34,10.34,0,0,0,2-1.12,3.66,3.66,0,0,0,.91-.92,3.52,3.52,0,0,1,.18-.39C135,92.78,131.18,91.75,127.29,91Z"/><path class="cls-1" d="M118,95.45c0-.14,0-.28,0-.42v-.09a18.48,18.48,0,0,1,.92-5.16c-.76-.06-1.53-.1-2.3-.13a77.18,77.18,0,0,1-8,4.42,7.5,7.5,0,0,1-3.37.85,6.59,6.59,0,0,1-1.7-.22,4.93,4.93,0,0,1-2-1.08,4.82,4.82,0,0,1-1.09-1.47c-.07-.15-.13-.31-.19-.47-8,2.38-14.84,5.74-24.11,7.11-7.32,1.29-14.65,1-22,.77,6.87,5.69,20.15,6.47,31.6,5.17,11.89-1.58,21.64-4.81,32.52-6.83A10.09,10.09,0,0,1,118,95.45Z"/><path class="cls-1" d="M247.41,96.72A34.51,34.51,0,0,0,236,92.07c-17.85-3.88-33.88,3.1-49.45,6.72a67.75,67.75,0,0,1-28.84.26c-4.19-.87-8.36-2.06-12.54-3.3a5.42,5.42,0,0,1-.32,1.64c10.89,2.1,20.49,6.59,31.17,8.89,18.77,3.88,35.26-3.36,52.2-6.46,6.87-1.55,14.65-2.58,22-1.29C249.24,98,248.26,97.27,247.41,96.72Z"/><path class="cls-1" d="M112.06,15.9h16.11l-.11-.21-4.79-8.86-.06-.1H107l.11.22,4.79,8.85.06.1ZM107.27,7h15.85L123,7l4.79,8.85.14-.21H112l.17.1-4.79-8.86Z"/><polygon class="cls-1" points="124.73 9.53 123.21 6.73 106.97 6.73 108.49 9.53 124.73 9.53"/><polygon class="cls-1" points="128.17 15.9 126.66 13.1 110.42 13.1 111.94 15.9 128.17 15.9"/><polygon class="cls-1" points="115.54 9.91 115.51 10.21 115.1 10.21 115.49 10.4 115.46 10.7 115.73 10.52 116.12 10.7 115.89 10.4 116.16 10.21 115.76 10.21 115.54 9.91"/><polygon class="cls-1" points="118.53 10.7 118.79 10.52 119.2 10.7 118.95 10.4 119.2 10.21 118.79 10.21 118.55 9.91 118.54 10.21 118.14 10.21 118.54 10.4 118.53 10.7"/><polygon class="cls-1" points="117.64 11.22 117.41 10.92 117.39 11.22 116.97 11.22 117.37 11.41 117.35 11.71 117.62 11.52 118.03 11.71 117.79 11.41 118.06 11.22 117.64 11.22"/><polygon class="cls-1" points="116.41 12.23 116.18 11.93 116.14 12.23 115.71 12.23 116.12 12.42 116.08 12.72 116.37 12.53 116.78 12.72 116.55 12.42 116.83 12.23 116.41 12.23"/><polygon class="cls-1" points="119.62 12.23 119.36 11.93 119.35 12.23 118.92 12.23 119.34 12.42 119.33 12.72 119.61 12.53 120.03 12.72 119.78 12.42 120.04 12.23 119.62 12.23"/></svg>