<svg height="40" viewBox="0 0 108 40" width="108" xmlns="http://www.w3.org/2000/svg"><g fill="none" fill-rule="evenodd"><path d="m30.05 28.046h-9.221c-.02-.2-.02-.38-.02-.52 0-2.272.916-3.768 3.161-5.204 1.163-.756 1.877-1.216 2.163-1.414.305-.22.55-.501.754-.82.204-.338.306-.738.306-1.115 0-1-.694-1.676-1.694-1.676-1.224 0-1.916.838-1.957 2.392h-2.734c.04-1.715.448-2.71 1.469-3.529.857-.677 1.897-1.018 3.222-1.018 2.796 0 4.57 1.437 4.57 3.708 0 1.797-.938 3.034-3.488 4.649-1.938 1.216-2.183 1.456-2.387 2.333h5.855v2.214zm3.855-3.909c0 1.236.835 2.015 2.12 2.015 1.205 0 1.98-.66 1.98-1.676 0-1.216-.775-1.694-2.775-1.694h-.305v-2.174h.286c1.916 0 2.672-.459 2.672-1.636 0-.956-.756-1.654-1.817-1.654-1.265 0-1.957.737-1.957 2.094v.018h-2.837c.082-1.636.47-2.492 1.49-3.289.837-.658 1.959-1 3.365-1 2.735 0 4.53 1.378 4.53 3.492 0 1.495-.878 2.591-2.428 2.97.551.121.754.2 1.04.36 1.02.519 1.551 1.456 1.551 2.653 0 2.274-1.837 3.69-4.733 3.69-3.162 0-4.978-1.615-4.978-4.489h2.816c0 .14-.02.24-.02.32m13.954-.398-.919.139c-1.712.26-2.387.638-2.387 1.376 0 .679.613 1.138 1.49 1.138 1.408 0 2.142-.899 2.183-2.713zm-1.306-5.604c1.429 0 2.57.379 3.306 1.117.714.697.959 1.475.959 3.19-.021.14-.021.597-.042 1.396v.898c0 1.514.083 2.512.266 3.31h-2.306c-.102-.539-.102-.718-.102-1.076v-.4c-.714 1.196-1.713 1.695-3.326 1.695-2.1 0-3.57-1.197-3.57-2.913 0-.716.286-1.394.756-1.873.57-.579 1.285-.878 2.631-1.137 1.04-.18 2.162-.339 3.101-.4 0-1.356-.489-1.932-1.632-1.932-1.08 0-1.632.479-1.695 1.416h-2.793c.143-2.054 1.794-3.291 4.447-3.291zm8.671 1.475c.712-.937 1.672-1.416 2.876-1.416 1.428 0 2.652.739 3.08 1.874.246.598.286 1.078.286 2.513v5.465h-2.713v-5.644c0-1.557-.45-2.172-1.57-2.172-1.247 0-1.816.897-1.816 2.83v4.986h-2.715v-9.632h2.572v1.195zm12.3 6.482c1.245 0 2.082-1.137 2.082-2.873-.02-1.775-.776-2.832-2.04-2.832-1.266 0-2.061 1.117-2.061 2.853 0 1.675.836 2.852 2.02 2.852zm4.754 1.954h-2.571v-1.277c-.632.998-1.611 1.496-2.876 1.496-2.388 0-4.06-2.053-4.06-5.005 0-3.012 1.591-5.066 3.938-5.066 1.326 0 2.203.44 2.856 1.435v-4.865h2.713zm17.422 0h-2.712v-10.689l-3.326 10.689h-2.959l-3.366-10.689v10.689h-2.713v-13.281h4.549l3.121 10.051 3.061-10.051h4.345zm8.772-5.924c-.04-1.176-.857-1.972-2.06-1.972-1.183 0-1.92.675-2.142 1.972zm-1.959 6.143c-3.059 0-5.018-1.975-5.018-5.085 0-2.99 1.98-4.985 4.936-4.985 2.98 0 4.856 1.995 4.856 5.224 0 .16-.02.28-.02.62h-6.976c.061 1.395.897 2.192 2.283 2.192.918 0 1.53-.378 1.796-1.136h2.897c-.632 2.073-2.305 3.17-4.754 3.17z" fill="#9c9ea1"/><path d="m.345 29.21c-.805 1.575-.153 3.494 1.461 4.282 1.613.788 3.573.15 4.38-1.429l1.321-2.58-2.72-8.953-4.442 8.68zm18.421-28.872c-1.612-.788-3.573-.151-4.38 1.426l-5.328 10.413 2.723 8.952 8.445-16.51c.805-1.575.152-3.491-1.46-4.281" fill="#92c746"/><path d="m9.947 37.518c.514 1.689 2.33 2.653 4.057 2.151 1.73-.502 2.715-2.279 2.203-3.97l-4.427-14.569-4.274 8.355 2.44 8.034zm-2.677-31.233c-.514-1.691-2.33-2.655-4.06-2.152-1.727.502-2.712 2.278-2.2 3.967l3.776 12.43 4.272-8.354z" fill="#d50f67"/><path d="m4.786 20.53 2.721 8.954 4.274-8.355-2.722-8.952z" fill="#3ba510"/><path d="m105.043 19.663c-.136-.043-.278-.063-.42-.057h-.168v.798h.282c.14.008.278-.027.397-.1.101-.078.156-.203.144-.33.002-.145-.094-.274-.235-.31zm-1.32 2.218v-2.763h1.34c.19.012.374.06.545.144.242.128.386.386.369.66.012.18-.059.355-.191.477-.139.107-.305.172-.48.186.142.023.276.077.393.158.176.157.267.387.245.622v.248c-.002.027-.002.054 0 .081-.005.026-.005.051 0 .077v.08h-.695c-.023-.126-.038-.253-.043-.381 0-.115-.014-.229-.043-.34-.035-.094-.11-.167-.206-.2-.078-.029-.161-.043-.244-.043h-.258v.956l-.733.038zm-.37-2.83c-.838.77-.893 2.074-.12 2.911.77.837 2.076.891 2.915.12.042-.038.082-.079.121-.12.393-.387.61-.916.603-1.467.002-.539-.214-1.056-.599-1.434-.774-.805-2.056-.83-2.863-.057l-.057.057zm3.213 3.231c-.98.966-2.56.956-3.528-.022-.464-.47-.723-1.105-.719-1.765-.015-.69.27-1.352.78-1.816.463-.441 1.08-.685 1.72-.679 1.382-.007 2.509 1.107 2.515 2.488.004.683-.274 1.339-.768 1.814z" fill="#9c9ea1"/></g></svg>