<svg xmlns="http://www.w3.org/2000/svg" width="370.1" height="40" viewBox="0 0 370.1 40"><defs><style>.a{fill:#bb7d63;}</style></defs><path class="a" d="M1293.554,660.256a6.008,6.008,0,0,1,.842-.118q5.61-.01,11.221,0a16.024,16.024,0,0,1,7.016,1.361,7.263,7.263,0,0,1,4.482,7.044,8.292,8.292,0,0,1-4.484,7.793c-.342.184-.708.325-1.072.489.018.066.017.142.053.175a32.486,32.486,0,0,1,4.611,5.834c1.493,2.137,2.914,4.33,4.506,6.391a20.153,20.153,0,0,0,8.7,6.767,13.816,13.816,0,0,0,13.775-1.814,7.1,7.1,0,0,1,.821-.442l.135.187a2.549,2.549,0,0,1-.3.418c-3.44,3.235-7.4,5.21-12.248,5.023a15,15,0,0,1-8.212-3,30.623,30.623,0,0,1-7.166-7.731c-2.023-2.893-4.125-5.732-6.245-8.555a10.536,10.536,0,0,0-1.853-1.794,4.835,4.835,0,0,0-6.493-.18c-.39.275-.778.553-1.166.829l-.154-.117a1.441,1.441,0,0,1,.112-.48,7.306,7.306,0,0,1,4.924-3.586,6.583,6.583,0,0,1,3.153.321,1.35,1.35,0,0,0,.911-.022,7.33,7.33,0,0,0,3.211-10.134,6.045,6.045,0,0,0-4.914-3.1,30.418,30.418,0,0,0-5.285-.069c-1.52.105-2.156.9-2.319,2.408a19.772,19.772,0,0,0-.123,2.088q-.014,10.381-.006,20.763a2.33,2.33,0,0,0,2.539,2.584,1.144,1.144,0,0,1,.478.071.44.44,0,0,1,.174.337c0,.077-.135.194-.231.224a1.439,1.439,0,0,1-.427.021c-2.691,0-5.383,0-8.074-.015a5.649,5.649,0,0,1-.895-.143v-.37c.3-.052.6-.113.9-.153,1.671-.218,2.339-.936,2.34-2.573q.007-11.815,0-23.63a2.336,2.336,0,0,0-2.536-2.582,4.3,4.3,0,0,1-.707-.15Z" transform="translate(-1293.554 -659.377)"/><path class="a" d="M1546.867,668.728c-.013.219-.038.438-.038.657q0,8.626,0,17.253c0,1.851.77,2.625,2.644,2.742.206.013.4.238.6.364-.2.094-.393.268-.591.269q-3.976.027-7.951,0c-.2,0-.4-.171-.6-.263a2.851,2.851,0,0,1,.592-.376,14.3,14.3,0,0,0,1.682-.5,1.73,1.73,0,0,0,.923-1.512c.025-.307.03-.615.03-.923,0-6.983.02-13.967-.012-20.95-.007-1.722-.186-3.443-.259-5.165a2.758,2.758,0,0,1,.194-.763,2.35,2.35,0,0,1,.692.414c1.527,1.935,3,3.915,4.546,5.831q7.458,9.224,14.966,18.407a21.124,21.124,0,0,0,2.5,2.536c.014-.189.04-.378.04-.567q0-11.523,0-23.046a2.333,2.333,0,0,0-2.441-2.574,1.97,1.97,0,0,1-.489-.033c-.112-.038-.277-.193-.262-.265a.52.52,0,0,1,.269-.332,1.331,1.331,0,0,1,.488-.023l7.333-.025a3,3,0,0,1,.675.022c.126.029.224.185.335.285-.105.108-.2.281-.319.311-.337.082-.693.083-1.034.152a2.146,2.146,0,0,0-1.866,2.19c-.007.164,0,.329,0,.493,0,7.743.026,15.487-.02,23.23a2.55,2.55,0,0,0,2.6,2.789c.061.006.139-.017.182.012.163.11.315.237.471.358-.163.123-.325.351-.491.353-1.192.02-2.387.045-3.574-.028a8.355,8.355,0,0,1-5.834-3.21q-7.666-8.77-15.3-17.572c-.172-.2-.353-.389-.529-.584Z" transform="translate(-1389.233 -659.155)"/><path class="a" d="M1790.837,686.862c.02-.369.046-.627.046-.885q0-11.4,0-22.795a2.354,2.354,0,0,0-2.468-2.617,1.161,1.161,0,0,1-.366-.016,2.4,2.4,0,0,1-.412-.285,2.066,2.066,0,0,1,.419-.342,1.11,1.11,0,0,1,.426-.008l7.208-.023a4.113,4.113,0,0,1,.738.015c.132.024.242.171.362.261-.118.12-.217.307-.356.344-.313.085-.651.076-.973.139a2.152,2.152,0,0,0-1.912,2.273c-.014.616,0,1.233,0,1.848q0,10.9,0,21.809a2.477,2.477,0,0,0,2.594,2.78,1.433,1.433,0,0,1,.424.055c.1.04.229.164.226.246a.585.585,0,0,1-.189.345.43.43,0,0,1-.288.086,39.138,39.138,0,0,1-4.486-.178,7.913,7.913,0,0,1-4.758-2.88q-6.44-7.342-12.833-14.725c-.93-1.069-1.864-2.136-2.788-3.21a3.974,3.974,0,0,1-.321-.51l-.2.131c-.01.215-.03.43-.031.645q0,8.687,0,17.373a2.314,2.314,0,0,0,2.541,2.631,1.1,1.1,0,0,1,.476.077.454.454,0,0,1,.182.34c0,.073-.149.189-.249.214a2.027,2.027,0,0,1-.49.021h-7.642a.858.858,0,0,1-.3,0,3.038,3.038,0,0,1-.422-.259c.131-.128.242-.332.4-.37.374-.093.779-.064,1.15-.166a2.1,2.1,0,0,0,1.665-2.16q0-11.736-.02-23.473c0-1.064-.171-2.126-.229-3.191a3.513,3.513,0,0,1,.154-.832,2.809,2.809,0,0,1,.773.489c1.48,1.866,2.9,3.779,4.4,5.632q7.411,9.18,14.868,18.322c.687.843,1.463,1.612,2.2,2.412C1790.469,686.554,1790.613,686.662,1790.837,686.862Z" transform="translate(-1475.896 -659.159)"/><path class="a" d="M1357.108,690.563c-5.2-.074-9.35-1.391-12.741-4.6a14.948,14.948,0,0,1-4.576-13.849c.984-6.444,5.955-11.249,12.508-12.706a18.333,18.333,0,0,1,12.927,1.615,14.74,14.74,0,0,1,8.212,12.1c.908,8.767-5.029,15.64-13.307,17.1C1358.943,690.432,1357.728,690.5,1357.108,690.563Zm12.742-16.087c-.03-.41-.061-1.066-.13-1.719-.838-7.873-7.212-13.1-14.708-12.219a12.3,12.3,0,0,0-9.545,6.127,15.8,15.8,0,0,0-1.794,11.53A13,13,0,0,0,1357.643,689a12.482,12.482,0,0,0,8.113-3.7C1368.658,682.38,1369.805,678.761,1369.85,674.476Z" transform="translate(-1311.351 -658.901)"/><path class="a" d="M1499.548,681.813c-1.83,0-3.66-.01-5.49.013a.818.818,0,0,0-.637.3c-.671,1.565-1.318,3.141-1.918,4.734a6.265,6.265,0,0,0-.287,1.569c-.071.713.251,1.061.975,1.15a5.152,5.152,0,0,1,.73.11c.116.032.205.159.307.243-.1.112-.182.266-.307.324a1.017,1.017,0,0,1-.483.052,47.3,47.3,0,0,0-8.065.007.685.685,0,0,1-.364-.017,3.635,3.635,0,0,1-.482-.387c.172-.11.342-.31.518-.317a4.511,4.511,0,0,0,3.975-2.42,50.828,50.828,0,0,0,2.444-5.1c2.783-6.6,5.521-13.227,8.271-19.844.22-.53.383-1.085.606-1.614a2.464,2.464,0,0,1,.386-.5c.16.162.385.3.47.49q1.982,4.512,3.933,9.038c2.3,5.293,4.568,10.6,6.913,15.869a12.377,12.377,0,0,0,1.8,2.768,3.771,3.771,0,0,0,2.9,1.284,1.205,1.205,0,0,1,.481.07c.3.149.328.4.032.554a1.532,1.532,0,0,1-.773.117,61.7,61.7,0,0,0-8.623-.013c-.3.018-.888-.165-.889-.261-.006-.5.478-.388.785-.429.946-.129,1.28-.434,1.123-1.368a17.4,17.4,0,0,0-.743-2.787c-.37-1.065-.858-2.089-1.261-3.144a.649.649,0,0,0-.718-.494C1503.29,681.824,1501.419,681.813,1499.548,681.813Zm.22-16.723-.177.006-5.432,15.163h10.876Z" transform="translate(-1367.031 -659.369)"/><path class="a" d="M1410.143,681.813c-1.83,0-3.66.012-5.49-.009a.685.685,0,0,0-.784.5c-.652,1.789-1.336,3.567-1.995,5.353a2.209,2.209,0,0,0-.089.668c-.038.917.191,1.175,1.1,1.263a.4.4,0,0,1,.122.012c.251.12.5.243.75.367-.272.115-.552.345-.816.327a49.336,49.336,0,0,0-8,.021.71.71,0,0,1-.365-.012,3.666,3.666,0,0,1-.492-.375c.167-.115.332-.328.5-.331a4.551,4.551,0,0,0,4.053-2.507,56.034,56.034,0,0,0,2.522-5.336c2.658-6.3,5.273-12.615,7.9-18.928.291-.7.522-1.427.816-2.127a2.884,2.884,0,0,1,.451-.586,2.406,2.406,0,0,1,.451.526q1.954,4.457,3.881,8.925,3.406,7.855,6.814,15.709a8.74,8.74,0,0,0,2.122,3.214,4.188,4.188,0,0,0,2.752,1.077.971.971,0,0,1,.422.055.5.5,0,0,1,.23.317.338.338,0,0,1-.2.265,2.425,2.425,0,0,1-.782.1,58.149,58.149,0,0,0-8.622,0c-.041,0-.088.021-.122.008-.266-.1-.531-.207-.795-.312a2.47,2.47,0,0,1,.681-.378c1.233-.228,1.572-.569,1.228-1.773-.477-1.671-1.109-3.3-1.717-4.932-.416-1.113-.449-1.1-1.651-1.1Zm.165-16.779h-.14q-2.717,7.592-5.447,15.216h10.872Z" transform="translate(-1332.436 -659.368)"/><path class="a" d="M1747.8,666.1c-.094-.247-.2-.491-.281-.74a5.558,5.558,0,0,0-3.734-3.711,3.8,3.8,0,0,0-1.094-.134q-2.5-.02-5,0c-2.572.016-3.479.773-3.576,3.315-.112,2.932-.051,5.872-.042,8.809,0,.145.23.418.35.416q3.821-.049,7.641-.16a2.268,2.268,0,0,0,1.77-.871,1.9,1.9,0,0,1,.363-.239,5.4,5.4,0,0,1,.047.755c-.145,1.572-.3,3.144-.458,4.716a1.068,1.068,0,0,1-.042.364,1.256,1.256,0,0,1-.272.277c-.076-.105-.2-.2-.219-.317-.059-.343-.053-.7-.114-1.039a1.832,1.832,0,0,0-1.69-1.7,26.505,26.505,0,0,0-3.008-.23c-1.433-.037-2.868-.009-4.321-.009a2.025,2.025,0,0,0-.06.332q.022,4.775.056,9.549a5.317,5.317,0,0,0,.138,1.036,2.241,2.241,0,0,0,1.713,1.832,8.913,8.913,0,0,0,2,.278c1.788.037,3.579-.017,5.367.022a4.071,4.071,0,0,0,3.451-1.582c.543-.684.938-1.485,1.417-2.221a2.753,2.753,0,0,1,.45-.434c.043.218.174.465.115.65-.357,1.113-.806,2.2-1.133,3.32a2.292,2.292,0,0,1-2.387,1.733c-.616.026-1.233.033-1.85.025-3.556-.042-7.112-.108-10.669-.128-1.417-.007-2.835.085-4.252.131a1.287,1.287,0,0,1-.429,0,2,2,0,0,1-.421-.261c.134-.127.25-.325.407-.365.333-.085.7-.043,1.03-.132a2.1,2.1,0,0,0,1.772-2.316c.007-2.588,0-5.176,0-7.764q0-8.01,0-16.021a2.313,2.313,0,0,0-2.546-2.623c-.1,0-.23.028-.3-.021a2.62,2.62,0,0,1-.362-.353c.134-.1.268-.272.4-.273.719-.012,1.439.033,2.158.035q4.655.015,9.311.013c1.4,0,2.8-.03,4.194-.059,1.027-.022,2.055-.05,3.08-.109.405-.023.591.084.645.511.2,1.609.444,3.213.657,4.821a6.175,6.175,0,0,1,.005.813Z" transform="translate(-1461.448 -659.283)"/><path class="a" d="M1653.052,666.084c-.088-.238-.179-.475-.262-.714a5.573,5.573,0,0,0-3.787-3.737,3.219,3.219,0,0,0-.91-.118c-1.769-.01-3.537-.005-5.305,0-.226,0-.453.008-.677.029a2.589,2.589,0,0,0-2.67,2.539,10.085,10.085,0,0,0-.1,1.35c-.009,2.671,0,5.34-.013,8.01,0,.466.111.654.616.641,2.24-.058,4.481-.067,6.72-.127a4.468,4.468,0,0,0,1.5-.269,7.267,7.267,0,0,0,1.287-.87,2.885,2.885,0,0,1,.077.591c-.15,1.634-.313,3.267-.472,4.9a.777.777,0,0,1-.041.3,1.6,1.6,0,0,1-.272.28c-.076-.1-.2-.2-.219-.314-.057-.322-.049-.656-.106-.977a1.824,1.824,0,0,0-1.759-1.762c-1.447-.153-2.908-.192-4.365-.245-.959-.034-1.921-.006-2.925-.006-.015.264-.036.463-.036.662,0,2.712-.008,5.423,0,8.134a12.57,12.57,0,0,0,.123,1.78,2.439,2.439,0,0,0,2.2,2.309,9.092,9.092,0,0,0,1.652.162c1.624.02,3.254-.072,4.872.026a4.844,4.844,0,0,0,4.666-2.625c.248-.4.419-.845.66-1.249a1.833,1.833,0,0,1,.424-.374c.05.18.188.389.138.534-.5,1.433-.973,2.88-1.571,4.272-.332.771-1.19.811-1.922.885a16.447,16.447,0,0,1-1.849.037c-3.557-.042-7.113-.109-10.669-.128-1.438-.008-2.876.085-4.314.131a1.269,1.269,0,0,1-.428,0,1.971,1.971,0,0,1-.418-.264c.135-.126.252-.323.408-.362.354-.088.739-.055,1.091-.149a2.109,2.109,0,0,0,1.727-2.174c.014-.369,0-.739,0-1.109,0-7.517-.036-15.035.024-22.552.016-1.959-1.013-2.869-2.708-2.889-.183,0-.364-.229-.545-.351.215-.1.43-.283.644-.282,3.515.012,7.03.08,10.544.068,2.63-.009,5.261-.1,7.89-.186.505-.017.669.138.728.631.183,1.55.427,3.092.632,4.638a6.966,6.966,0,0,1,.005.9Z" transform="translate(-1424.807 -659.283)"/><path class="a" d="M1687.1,685.275c.3-.8.606-1.595.9-2.395,2.286-6.114,4.585-12.224,6.84-18.349a11.757,11.757,0,0,0,.592-2.689c.091-.784-.3-1.092-1.105-1.135-.321-.017-.849.129-.82-.361s.552-.281.87-.283c2.63-.011,5.258-.018,7.888.006a3.057,3.057,0,0,1,.9.31,2.638,2.638,0,0,1-.81.381,4.677,4.677,0,0,0-3.924,2.718c-.873,1.694-1.641,3.446-2.381,5.2q-4.1,9.735-8.149,19.492c-.213.511-.386,1.04-.61,1.547a2.337,2.337,0,0,1-.387.483,2.087,2.087,0,0,1-.419-.473q-1.649-3.749-3.269-7.512c-2.439-5.633-4.856-11.276-7.336-16.892a16.718,16.718,0,0,0-1.828-3.049,3.652,3.652,0,0,0-2.688-1.454,3.678,3.678,0,0,1-.787-.136c-.126-.041-.212-.205-.317-.314.117-.1.218-.243.352-.284a1.883,1.883,0,0,1,.551-.029c2.9,0,5.793,0,8.69.006.313,0,.829-.205.858.3.031.552-.51.32-.81.343-.833.064-1.238.44-1.114,1.269a13.106,13.106,0,0,0,.6,2.506q3.567,9.909,7.187,19.8c.118.326.245.651.368.976Z" transform="translate(-1439.259 -659.335)"/><path class="a" d="M1876.568,690.612c-1.751-.209-3.5-.409-5.253-.636a8.685,8.685,0,0,1-1.129-.3,1.6,1.6,0,0,1-1.249-1.366q-.408-2.394-.805-4.791a1.062,1.062,0,0,1-.008-.427,1.707,1.707,0,0,1,.216-.388c.122.109.293.2.355.332a3.015,3.015,0,0,1,.149.659,6.068,6.068,0,0,0,4.02,4.689,9.01,9.01,0,0,0,6.45.147,5,5,0,0,0,3.522-4.144,5.075,5.075,0,0,0-2.091-5.129c-3.15-2.407-6.279-4.843-9.421-7.26-4.332-3.333-3.933-9.111.823-11.794a9.943,9.943,0,0,1,6.613-1.12c1.723.269,3.45.508,5.178.744.46.063.686.228.651.749-.137,2.068-.226,4.139-.362,6.206a2.764,2.764,0,0,1-.31.783,2.8,2.8,0,0,1-.316-.835,6.37,6.37,0,0,0-6.622-6.282,7,7,0,0,0-3.292.92,4.514,4.514,0,0,0-.909,7.474c1,.936,2.143,1.724,3.232,2.566,2.325,1.8,4.659,3.579,6.985,5.373a7.211,7.211,0,0,1,.965,10.67A9.633,9.633,0,0,1,1876.568,690.612Z" transform="translate(-1515.779 -658.916)"/><path class="a" d="M1469.641,666.093a3.273,3.273,0,0,1-.218-.506,5.4,5.4,0,0,0-5.216-4.079c-1.3,0-2.591-.009-3.885.019-1.156.024-1.464.31-1.579,1.436-.058.57-.071,1.147-.071,1.721q-.007,11.09,0,22.18a2.31,2.31,0,0,0,2.543,2.628.8.8,0,0,1,.362.034,1.544,1.544,0,0,1,.3.335,1.375,1.375,0,0,1-.339.272,1.287,1.287,0,0,1-.428.012l-8.135,0a1.056,1.056,0,0,1-.367-.009,1.737,1.737,0,0,1-.357-.256c.111-.125.2-.327.336-.359.354-.086.738-.057,1.09-.148a2.1,2.1,0,0,0,1.781-2.25q0-11.737-.029-23.473c-.007-1.878-.3-2.127-2.165-2.143-1.172-.01-2.344,0-3.516,0a5.411,5.411,0,0,0-5.031,4,3.578,3.578,0,0,1-.265.6l-.232-.039a4.047,4.047,0,0,1-.031-.787c.165-1.117.368-2.228.537-3.344a10.372,10.372,0,0,0,.126-1.41c.007-.508.215-.652.719-.636,2.855.092,5.712.2,8.567.207,4.317.007,8.634-.064,12.95-.109.555-.006,1.109-.054,1.662-.1.338-.025.477.125.517.451.2,1.608.418,3.213.615,4.821a7.3,7.3,0,0,1,0,.876Z" transform="translate(-1351.812 -659.283)"/><path class="a" d="M1821.486,666.064a3.3,3.3,0,0,1-.059-.716c.22-1.666.473-3.327.686-4.993.061-.477.341-.47.695-.461,2.691.074,5.382.193,8.073.2,4.5.005,9-.062,13.506-.106.513,0,1.026-.044,1.538-.094.42-.041.572.125.619.543.169,1.508.383,3.011.567,4.518.044.362.037.73.053,1.095l-.233.052a2.75,2.75,0,0,1-.241-.475,5.63,5.63,0,0,0-3.717-3.959,2.036,2.036,0,0,0-.66-.133c-1.645-.009-3.289-.031-4.933.01-.949.024-1.275.37-1.369,1.317-.061.611-.079,1.229-.08,1.845q-.007,11.09,0,22.179a2.31,2.31,0,0,0,2.561,2.609.984.984,0,0,1,.419.056.439.439,0,0,1,.218.316c0,.094-.155.226-.265.261a1.708,1.708,0,0,1-.49.019l-8.135,0a1.055,1.055,0,0,1-.366-.008,1.725,1.725,0,0,1-.354-.257c.11-.125.2-.3.337-.361a1.752,1.752,0,0,1,.548-.032,2.28,2.28,0,0,0,2.322-2.363q0-11.583-.009-23.165a8.5,8.5,0,0,0-.088-1.225c-.123-.833-.408-1.161-1.228-1.183-1.726-.046-3.458-.1-5.178,0-1.747.107-3.733,2.034-4.227,3.88-.059.223-.157.436-.237.654Z" transform="translate(-1497.721 -659.281)"/></svg>