<svg xmlns="http://www.w3.org/2000/svg" xmlns:xlink="http://www.w3.org/1999/xlink" width="167" height="42.077" viewBox="0 0 167 42.077"><defs><style>.a{fill:#c7a358;}.b{fill:#245081;}.c{fill:#008f45;}.d{fill:#693787;}.e{fill:#56ace2;}.f{fill:#b6c62c;}.g{fill:url(#a);}.h{fill:url(#b);}.i{fill:url(#c);}.j{fill:url(#d);}.k{fill:url(#e);}.l{fill:url(#f);}.m{fill:url(#g);}.n{fill:#be0811;}.o{fill:#211915;}</style><linearGradient id="a" x1="0.003" y1="0.502" x2="0.995" y2="0.502" gradientUnits="objectBoundingBox"><stop offset="0" stop-color="#1262a4"/><stop offset="0.435" stop-color="#165096"/><stop offset="1" stop-color="#283c8b"/></linearGradient><linearGradient id="b" x1="-0.003" y1="0.504" x2="1" y2="0.504" xlink:href="#a"/><linearGradient id="c" x1="0.003" y1="0.5" x2="0.992" y2="0.5" xlink:href="#a"/><linearGradient id="d" x1="-0.003" y1="0.499" x2="1.003" y2="0.499" xlink:href="#a"/><linearGradient id="e" x1="-0.001" y1="0.503" x2="1.001" y2="0.503" xlink:href="#a"/><linearGradient id="f" x1="0.001" y1="0.497" x2="1.001" y2="0.497" xlink:href="#a"/><linearGradient id="g" x1="0.003" y1="0.5" x2="0.997" y2="0.5" xlink:href="#a"/></defs><g transform="translate(0 0)"><g transform="translate(53.546 0)"><g transform="translate(1.378)"><path class="a" d="M506.318,493.175v-.28h-6.211v.28h.352a1.18,1.18,0,0,1,1,1.708l-.015.027-4.462,7.839-4.2-7.836a1.183,1.183,0,0,1,.981-1.74h.352v-.278h-6.885v.278h.381a3.535,3.535,0,0,1,2.816,1.637l5.332,8.912v6.749a1.794,1.794,0,0,1-1.793,1.744h-.355l0,.28h6.125l0-.28h-.353a1.794,1.794,0,0,1-1.794-1.76v-6.7l5.537-8.951a3.618,3.618,0,0,1,2.809-1.626Z" transform="translate(-435.711 -489.588)"/><path class="a" d="M681.274,493.3l0,.269h.458a1.6,1.6,0,0,1,1.533,1.629v13.335l-13.515-15.636H667.1v.277h.219a2.688,2.688,0,0,1,2.373,1.621c.026.444.045.939.045,1.46v13.97a1.6,1.6,0,0,1-1.532,1.629h-.458l0,.267h5.113l0-.267h-.458a1.6,1.6,0,0,1-1.532-1.609V496.855L684.4,512.5h.224a29.628,29.628,0,0,1-.226-3.43V495.174a1.6,1.6,0,0,1,1.532-1.607h.459l0-.269Z" transform="translate(-574.514 -489.588)"/><path class="a" d="M582.128,510.493l-6.894-17.6h-3.377v.277h.219a2.542,2.542,0,0,1,1.762.789c-1.386,3.812-6.537,16.534-6.537,16.534a2.714,2.714,0,0,1-2.405,1.726h-.247v.275h5.526v-.273h-.953a1.164,1.164,0,0,1-1.049-1.706l5.983-16.172a3.224,3.224,0,0,1,.284.452l5.859,15.7c.4,1.1-.76,1.724-1.469,1.724h-.241v.273h6.182v-.275h-.229A2.716,2.716,0,0,1,582.128,510.493Z" transform="translate(-495.454 -489.588)"/><path class="a" d="M603.173,541.979a1.366,1.366,0,1,0,1.366,1.366A1.366,1.366,0,0,0,603.173,541.979Z" transform="translate(-524.129 -527.466)"/><path class="a" d="M417.65,510.493l-6.894-17.6h-3.377v.277h.219a2.543,2.543,0,0,1,1.762.789c-1.386,3.812-6.537,16.534-6.537,16.534a2.715,2.715,0,0,1-2.405,1.726h-.247v.275H405.7v-.273h-.953a1.164,1.164,0,0,1-1.049-1.706l5.983-16.172a3.207,3.207,0,0,1,.284.452l5.859,15.7c.4,1.1-.76,1.724-1.469,1.724h-.241v.273h6.181v-.275h-.229A2.716,2.716,0,0,1,417.65,510.493Z" transform="translate(-368.526 -489.588)"/><path class="a" d="M438.7,541.979a1.366,1.366,0,1,0,1.366,1.366A1.366,1.366,0,0,0,438.7,541.979Z" transform="translate(-397.201 -527.466)"/><path class="a" d="M357.479,501.026a1.873,1.873,0,0,1-1.873-1.838V480.523a1.872,1.872,0,0,1,1.871-1.819h.992l0-.293H353.7v20.777a1.873,1.873,0,0,1-1.873,1.838h-.369l0,.293h7.02l0-.293Z" transform="translate(-330.933 -478.412)"/><path class="a" d="M318.508,573.18l-.048-.094-.045.094Z" transform="translate(-305.436 -551.472)"/><path class="a" d="M265.688,478.412h-4.125l0,.293h1.318a1.872,1.872,0,0,1,1.871,1.819v18.665a1.873,1.873,0,0,1-1.873,1.838h-.992l0,.293h7.02l0-.293h-.369c-2.589,0-2.843-.72-2.843-1.838V482.513l8.9,17.513,9.745-20.478v-1.136l-9.01,18.828Z" transform="translate(-261.563 -478.412)"/></g><rect class="a" width="111.874" height="0.549" transform="translate(1.378 25.642)"/><g transform="translate(0 29.634)"><path class="a" d="M267.912,620.25a1.691,1.691,0,0,1-1.5-1.076l-4.293-10.958h-2.1v.173h.136a1.583,1.583,0,0,1,1.1.491c-.863,2.374-4.07,10.3-4.07,10.3a1.69,1.69,0,0,1-1.5,1.074h-.154v.171h3.441v-.17h-.594a.725.725,0,0,1-.653-1.062l3.725-10.07a2,2,0,0,1,.177.282l3.648,9.777c.249.685-.473,1.073-.915,1.073h-.15v.17h3.849v-.171Z" transform="translate(-255.526 -608.216)"/><path class="a" d="M279.515,638.781a.851.851,0,1,0,.851.851A.851.851,0,0,0,279.515,638.781Z" transform="translate(-273.382 -631.803)"/></g><path class="a" d="M319.649,609.574a5.713,5.713,0,0,1,6.1,5.952c0,3.564-2.473,5.942-6.1,5.942H313.9l0-.17h.215a1.089,1.089,0,0,0,1.089-1.066v-9.519a1.049,1.049,0,0,0-1.083-.972H313.9l0-.168Zm-3.34,11.378h3.34c2.913,0,4.829-2.17,4.829-5.426s-1.933-5.442-4.829-5.442h-3.34Z" transform="translate(-300.57 -579.629)"/><path class="a" d="M379.068,609.56v.172h-.149a1.674,1.674,0,0,0-1.489,1.053l-4.086,9.161a8.961,8.961,0,0,0-.629,1.75h-.153l-4.776-10.9a1.677,1.677,0,0,0-1.5-1.066h-.136v-.171h3.827v.17h-.149a.717.717,0,0,0-.642,1.06l3.561,8.9,3.7-8.9a.718.718,0,0,0-.646-1.061h-.149v-.17Z" transform="translate(-340.895 -579.619)"/><path class="a" d="M433.495,620.421H426.45l0-.17h.215a1.089,1.089,0,0,0,1.089-1.068v-9.515a1.089,1.089,0,0,0-1.083-.973h-.215l0-.169h4.966a7.344,7.344,0,0,0,2.026-.309v2.146l-.172,0v-.3a1.013,1.013,0,0,0-.952-1.011H428.86V614.3h2.872a.838.838,0,0,0,.822-.837v-.25l.166,0V615.9l-.166,0v-.25a.838.838,0,0,0-.8-.837h-2.89V619.9H431.3a2.936,2.936,0,0,0,3.017-2.226h.17Z" transform="translate(-387.428 -578.581)"/><path class="a" d="M478.256,608.783l0,.17h.289a1.009,1.009,0,0,1,.967,1.028V618.4l-8.53-9.869h-1.675v.175h.138a1.7,1.7,0,0,1,1.5,1.029c.017.278.028.589.028.916v8.817a1.009,1.009,0,0,1-.967,1.028h-.289l0,.169h3.227l0-.169h-.289a1.007,1.007,0,0,1-.967-1.016v-8.45l8.543,9.871h.142a18.7,18.7,0,0,1-.143-2.165v-8.768a1.007,1.007,0,0,1,.967-1.014h.289l0-.17Z" transform="translate(-420.502 -578.823)"/><path class="a" d="M536.06,608.451a7.357,7.357,0,0,0,2.047-.309v2.136l-.171,0v-.3a1.013,1.013,0,0,0-.969-1.012h-3.221v10.179a1.089,1.089,0,0,0,1.088,1.055h.215l0,.17h-3.72l0-.17h.215a1.089,1.089,0,0,0,1.087-1.041V608.961h-3.223a1.014,1.014,0,0,0-.969,1.012v.3l-.171,0v-2.136a7.354,7.354,0,0,0,2.047.309Z" transform="translate(-466.005 -578.524)"/><path class="a" d="M588.151,609.569v.17h-.277a.867.867,0,0,0-.9.8v6.72A4.263,4.263,0,0,1,582.4,621.7c-2.828,0-4.713-1.765-4.713-4.411v-6.711a.865.865,0,0,0-.9-.842h-.277v-.17h3.451v.17h-.277a.863.863,0,0,0-.9.816v6.487c0,2.475,1.443,4.126,3.608,4.126a3.639,3.639,0,0,0,3.787-3.907v-6.7a.866.866,0,0,0-.9-.818h-.277v-.17Z" transform="translate(-503.227 -579.626)"/><path class="a" d="M639.3,609.569a3.014,3.014,0,0,1,3.321,3.194,3.145,3.145,0,0,1-2.887,3.24,4.121,4.121,0,0,1,1.216,1.2s1.465,2.092,2.123,2.81a3.067,3.067,0,0,0,2.311,1.285v.17h-.932a3.655,3.655,0,0,1-2.965-1.49c-.193-.231-2.108-3.017-2.238-3.181-.444-.558-.94-1.147-1.56-1.147v-.157s.386.008.9-.005a2.544,2.544,0,0,0,2.652-1.764,3.524,3.524,0,0,0,.108-1.018c-.042-1.537-.843-2.521-2.108-2.591-.866-.047-1.895-.005-2.116-.013v10.128a1.089,1.089,0,0,0,1.088,1.068h.215l0,.17h-3.712l0-.17h.215a1.088,1.088,0,0,0,1.088-1.06v-9.428a1.089,1.089,0,0,0-1.089-1.069h-.215l0-.169Z" transform="translate(-548.147 -579.626)"/><path class="a" d="M692.408,620.421h-7.044l0-.17h.215a1.089,1.089,0,0,0,1.089-1.068v-9.515a1.089,1.089,0,0,0-1.083-.973h-.215l0-.169h4.966a7.343,7.343,0,0,0,2.026-.309v2.146l-.172,0v-.3a1.013,1.013,0,0,0-.952-1.011h-3.464V614.3h2.872a.838.838,0,0,0,.822-.837v-.25l.166,0V615.9l-.166,0v-.25a.838.838,0,0,0-.8-.837h-2.89V619.9h2.437a2.936,2.936,0,0,0,3.017-2.226h.17Z" transform="translate(-587.231 -578.581)"/><path class="a" d="M730.928,615.651a2.682,2.682,0,0,1,.854,2.072A3,3,0,0,1,728.6,620.9a4.435,4.435,0,0,1-2.877-.928,5.2,5.2,0,0,1,.2-2.369h.149a2.315,2.315,0,0,0,2.45,2.788,2.268,2.268,0,0,0,2.277-2.277,2.073,2.073,0,0,0-.667-1.583l-3.255-3.024a2.872,2.872,0,0,1,2.066-4.977,7.414,7.414,0,0,1,1.457.174h.673v2.085h-.164a1.758,1.758,0,0,0-1.912-1.75,1.992,1.992,0,0,0-2.09,1.954,2.138,2.138,0,0,0,.684,1.567Z" transform="translate(-618.328 -578.823)"/></g><g transform="translate(0 0)"><path class="b" d="M529.377,143.976a17.329,17.329,0,0,0-7.382-1.99l.073.045a14.22,14.22,0,0,1,1.3.932l.076.063.1.083q.139.116.275.235l.042.042a1.794,1.794,0,0,1-.175,2.484,13.97,13.97,0,0,1,2.979,7.141,9.921,9.921,0,0,1-5.489,10.815c-.282.151-.572.286-.868.421a.251.251,0,0,0,.086.478,10.546,10.546,0,0,0,1.632-.027,18,18,0,0,0,8.033-2.7C537.6,157.078,535.877,147.458,529.377,143.976Z" transform="translate(-496.453 -140.3)"/><path class="c" d="M469.823,307.482l-.009,0a11.3,11.3,0,0,1-11.556-1.865c-.486-.387-3.8-3.677-4.256-4.138a.312.312,0,0,0-.031-.028c-.221-.172-3.294-3.115-5.778-5.217a.38.38,0,0,0-.616.335,18.8,18.8,0,0,0,1.125,5.813c.012.025.018.054.03.079,2.716,5.335,4.63,6.914,4.63,6.914,3.1,2.837,6.644,3.6,10.647,3.431a3.155,3.155,0,0,0,1.8-.534,16.226,16.226,0,0,0,4.438-4.215A.376.376,0,0,0,469.823,307.482Z" transform="translate(-433.496 -274.006)"/><path class="d" d="M540.631,171.147" transform="translate(-514.202 -165.592)"/><path class="e" d="M496.505,229.969c-1.182-.07-2.223-.156-3.1-.282a.363.363,0,0,0-.275.646,3.57,3.57,0,0,0,.592.368s1.668.726,1.975.857a24.192,24.192,0,0,0,9.94,2.138,10.111,10.111,0,0,0,7.947-16.649.363.363,0,0,0-.637.234,11.887,11.887,0,0,1-4.3,9.483l-.028.022C503.678,230.376,496.505,229.969,496.505,229.969Z" transform="translate(-472.884 -205.293)"/><path class="f" d="M492.486,325.765a.245.245,0,0,1,.245-.414,14.008,14.008,0,0,1,1.6.711,24.234,24.234,0,0,0,12.484,2.857,12.175,12.175,0,0,0,5.763-1.711.246.246,0,0,1,.364.277,7.265,7.265,0,0,1-5.843,4.987,11.4,11.4,0,0,1-7.754-1.184,25.314,25.314,0,0,1-3.471-2.493C495.572,328.542,493.426,326.611,492.486,325.765Z" transform="translate(-472.374 -299.321)"/><path class="g" d="M485.962,326.151l0,.008.008,0Z" transform="translate(-466.785 -300.028)"/><path class="h" d="M488.976,329.19l0,.012.012,0Z" transform="translate(-469.398 -302.664)"/><path class="i" d="M484.419,324.628c0,.007,0,.012-.005.019l.006,0Z" transform="translate(-465.444 -298.707)"/><path class="j" d="M487.461,327.661l0,.013.012,0Z" transform="translate(-468.084 -301.338)"/><path class="k" d="M493.659,335.141s0,.007,0,.011l.012,0Z" transform="translate(-473.462 -307.825)"/><path class="l" d="M490.5,330.721l0,.011.011,0Z" transform="translate(-470.716 -303.992)"/><path class="m" d="M491.955,332.209l-.011.019.021-.007Z" transform="translate(-471.975 -305.282)"/><path class="a" d="M501.615,177.374a7.276,7.276,0,0,1,1.041,2.737,7.463,7.463,0,0,1-.588,4.336,8.024,8.024,0,0,0,4.978-7.517,8.274,8.274,0,0,0-.627-3.182A11.075,11.075,0,0,0,501.615,177.374Z" transform="translate(-480.363 -167.849)"/><path class="a" d="M469.387,204.3a6.542,6.542,0,0,0,2.127.354,5.539,5.539,0,0,0,2.83-.708,7.594,7.594,0,0,0-.681-2.877A8.831,8.831,0,0,0,469.387,204.3Z" transform="translate(-452.411 -191.544)"/><path class="n" d="M368.889,133.52a1.34,1.34,0,0,1-1,1.318,1.081,1.081,0,0,1-.212.031q-.415-.139-.838-.259a19.531,19.531,0,0,0-5.184-.741h-.159a19.485,19.485,0,0,0-7.376,1.442c-.228.092-.454.189-.678.29-.173.078-.345.158-.515.241-.086.042-.171.083-.255.126-.06.03-.12.06-.18.092s-.138.071-.207.108c-.053.028-.107.057-.16.086q-.242.131-.481.27-.1.056-.2.115a.346.346,0,0,0-.036.021c-.073.043-.145.086-.216.131l-.02.012-.206.13c-.018.01-.036.022-.054.034-.07.043-.138.088-.207.133s-.158.1-.236.158-.151.1-.226.154l-.042.03c-.067.046-.132.092-.2.14-.094.067-.188.135-.281.2l-.176.132-.225.173,0,0-.007,0a11.435,11.435,0,0,0-1.183,1l-.005,0a.071.071,0,0,0-.011.01q-.247.223-.486.458c-.072.069-.143.14-.214.211-.1.1-.207.21-.309.318-.044.045-.088.091-.132.138l-.109.117-.1.106-.11.122c-.026.028-.051.056-.075.084-.047.052-.093.1-.139.157-.063.072-.125.144-.186.217a21.6,21.6,0,0,0-4.769,10.229q-.028-.557-.027-1.122a21.147,21.147,0,0,1,13.371-19.918q.835-.315,1.7-.554a13.221,13.221,0,0,1,9.534,1.2c.27.146.535.3.794.465a13.746,13.746,0,0,1,1.375.994l0,0c.112.092.223.186.332.281A1.374,1.374,0,0,1,368.889,133.52Z" transform="translate(-341.456 -129.283)"/><ellipse class="o" cx="0.839" cy="0.877" rx="0.839" ry="0.877" transform="translate(18.757 4.833)"/><path class="d" d="M540.631,171.147" transform="translate(-514.202 -165.592)"/><path class="n" d="M341.685,295.806l-.022-.768a1.752,1.752,0,0,0,.354.632l.106.12q.725.762,1.517,1.446a20.291,20.291,0,0,0,2.276,1.7,19.362,19.362,0,0,0,2.471,1.349c.106.048.212.1.32.144l.323.136.161.068.163.064c.109.043.218.085.327.125.219.081.437.158.659.232s.445.138.667.208l.014,0,.01,0,.026.007.052.015.1.029.207.056c.139.037.277.073.414.106l.1.025.107.025.207.046.21.045.106.023.051.01.042.008.015,0c.286.055.6.108.893.153s.6.083.9.113a12.6,12.6,0,0,0,1.643.091.5.5,0,0,1,.491.289l.08.139a58.913,58.913,0,0,0,3.558,5.508c3.049,4.107,6.814,4.979,11.566,4.373a.19.19,0,0,1,.116.356h0a18.493,18.493,0,0,1-7.525,2.358c-2.719.2-8.711-1.3-11.788-8.466-.07-.163-.079-.455-.324-.3-.184.118.037.826,1.105,2.963l.007.013c1.928,3.281,3.648,4.427,6.049,5.339.171.065.438.127.323.4-.074.175-.295.131-.449.1a29.515,29.515,0,0,1-8.821-3.577S341.826,306.392,341.685,295.806Z" transform="translate(-341.635 -273.043)"/><path class="n" d="M359.4,196.764a48.06,48.06,0,0,1-1.486-11.9c0-.3,0-.6.008-.938q.011-.575.036-1.148c.005-.127.014-.254.021-.381.013-.255.026-.511.043-.765.01-.152.024-.3.035-.454.018-.23.035-.46.055-.689.015-.162.032-.324.049-.486.022-.218.044-.437.068-.655.019-.167.041-.335.062-.5.026-.212.053-.423.082-.634.024-.17.05-.34.075-.51.031-.207.062-.414.1-.621.028-.172.058-.343.088-.514.036-.2.071-.408.11-.612.032-.172.066-.343.1-.514.054-.273.108-.546.167-.818-.14.045-.276.095-.414.143l-.021,0-.142.052-.142.052c-.189.07-.377.142-.561.217-.227.092-.449.187-.661.283s-.357.165-.5.235l0,0,0,0c-.083.039-.164.079-.24.118l0,0,0,0-.122.062-.051.026-.123.064-.079.041-.043.023-.106.057,0,0,0,0c-.13.071-.3.165-.469.263l-.142.083-.052.031,0,0h0l-.007.005-.026.015c-.069.04-.137.081-.2.124l-.01.006,0,0-.016.009-.192.121-.009.005-.009.005-.022.014-.009.006,0,0,0,0c-.067.042-.133.085-.2.129l-.2.131-.033.022-.221.15-.017.012-.014.01-.006,0-.006,0c-.063.044-.127.089-.189.134l-.062.045c-.07.051-.141.1-.21.154s-.115.086-.171.128l0,0,0,0-.191.145-.01.011-.011.008-.119.112h-.025l-.1.081,0,0,0,0-.111.09-.019.016c-.061.05-.122.1-.182.151l0,0,0,0-.036.031-.006.005-.153.131-.086.075-.036.032-.017.015-.006.005-.006.005c-.066.058-.132.117-.2.176l-.015.026-.062.044c-.149.135-.3.28-.47.443l-.165.163-.045.045c-.1.1-.2.206-.3.307-.044.046-.085.088-.125.132l-.005.006-.005.005-.059.063-.041.044-.033.035-.057.063,0,0,0,0q-.05.053-.1.108l-.009.01-.009.01c-.02.021-.039.043-.058.065l0,0,0,0-.134.151c-.063.072-.123.141-.181.211q-.223.263-.436.533c-.049.062-.1.125-.143.188-.092.119-.185.238-.274.359-.054.073-.105.148-.159.222-.081.112-.162.224-.241.338-.055.08-.108.162-.162.243-.073.11-.147.219-.218.329-.055.086-.108.174-.161.261-.067.108-.135.215-.2.324-.054.09-.1.182-.157.273-.062.108-.125.215-.185.324-.051.093-.1.187-.149.281-.058.109-.117.217-.173.327s-.094.192-.141.288-.109.219-.161.33-.089.2-.133.3-.1.221-.149.333-.083.2-.124.3-.094.224-.138.338-.077.2-.115.307-.086.226-.126.339-.071.209-.107.314-.078.227-.114.341-.064.212-.1.318-.071.23-.1.346-.058.214-.086.321-.063.232-.092.349-.051.217-.076.326-.055.234-.081.352-.044.22-.066.329-.041.2-.059.295v0c-.007.038-.016.076-.022.114v.009l.08.094h0l.027.031c.074.086.147.171.219.252.468.492.965.965,1.476,1.406a19.847,19.847,0,0,0,2.221,1.654,18.937,18.937,0,0,0,2.409,1.314l.118.053c.063.029.127.058.191.085l.32.135.156.066.157.061c.107.042.214.083.32.123.226.084.436.158.641.226.142.048.283.091.432.136l.226.069h0l.008,0,.023.006.056.016.1.029.2.053c.139.037.274.072.408.105l.1.026.072.017.026.006.2.045.206.044.106.023.02,0,.013,0h.008l.042.008h.011l.009,0c.274.053.574.1.868.148s.582.08.878.109c.453.045.915.074,1.378.086A.258.258,0,0,0,359.4,196.764Z" transform="translate(-344.881 -168.609)"/></g></g></svg>