<?xml version="1.0" encoding="UTF-8"?>
<svg xmlns="http://www.w3.org/2000/svg" width="255" height="112" viewBox="0 0 255 112" fill="none">
  <path d="M121.783 12.4663C124.47 12.4663 126.648 10.2955 126.648 7.61766C126.648 4.93984 124.47 2.76904 121.783 2.76904C119.096 2.76904 116.918 4.93984 116.918 7.61766C116.918 10.2955 119.096 12.4663 121.783 12.4663Z" fill="#41C6E8"></path>
  <path d="M136.627 9.69723C139.314 9.69723 141.492 7.52643 141.492 4.84862C141.492 2.1708 139.314 0 136.627 0C133.94 0 131.762 2.1708 131.762 4.84862C131.762 7.52643 133.94 9.69723 136.627 9.69723Z" fill="#FAC314"></path>
  <path d="M136.629 64.2472C135.887 64.2472 135.263 63.9954 134.758 63.4919C134.253 62.9883 134 62.3667 134 61.6272V27.4902C134 26.7171 134.253 26.0877 134.758 25.5999C135.263 25.114 135.887 24.8682 136.629 24.8682C137.405 24.8682 138.036 25.1121 138.526 25.5999C139.013 26.0877 139.26 26.7171 139.26 27.4902V61.6232C139.26 62.3628 139.015 62.9844 138.526 63.4879C138.036 63.9934 137.405 64.2472 136.629 64.2472Z" fill="#FAC314"></path>
  <path d="M40.3554 44.5761C40.3554 41.6315 39.8679 38.9367 38.8949 36.4937C37.9199 34.0507 36.5443 31.9323 34.7641 30.1423C32.9838 28.3524 30.876 26.9637 28.4425 25.9763C26.007 24.9888 23.311 24.4951 20.3564 24.4951C17.3999 24.4951 14.698 24.9888 12.2467 25.9763C9.7954 26.9637 7.68754 28.3524 5.92507 30.1423C4.1626 31.9323 2.79289 34.0507 1.81988 36.4937C0.844892 38.9367 0.359375 41.6315 0.359375 44.5761C0.359375 47.5226 0.844892 50.2252 1.81988 52.684C2.79289 55.1447 4.1626 57.271 5.92507 59.0609C7.68754 60.8509 9.7954 62.2415 12.2467 63.229C14.698 64.2144 17.4019 64.7101 20.3564 64.7101C23.311 64.7101 26.007 64.2164 28.4425 63.229C29.7293 62.7077 30.9194 62.0704 32.0227 61.3249L34.1088 63.404C34.6457 63.939 35.2417 64.2066 35.897 64.2066C36.5522 64.2066 37.1483 63.939 37.6851 63.404C38.2219 62.869 38.4824 62.2828 38.4667 61.6475C38.4489 61.0122 38.1903 60.426 37.6851 59.891L35.7608 57.9653C37.0634 56.4212 38.1114 54.6627 38.893 52.6879C39.868 50.2233 40.3554 47.5206 40.3554 44.5761ZM27.1557 49.346C26.6188 48.811 26.0228 48.5435 25.3675 48.5435C24.7123 48.5435 24.1162 48.811 23.5794 49.346C23.0426 49.881 22.7741 50.475 22.7741 51.1281C22.7741 51.7811 23.0426 52.3751 23.5794 52.9102L28.4247 57.7391C27.7793 58.1423 27.0964 58.5003 26.3761 58.8111C24.5445 59.5979 22.5393 59.9913 20.3564 59.9913C18.1736 59.9913 16.1664 59.5979 14.3368 58.8111C12.5052 58.0263 10.9283 56.9366 9.60199 55.5479C8.27569 54.1592 7.2415 52.5286 6.50336 50.6521C5.76324 48.7775 5.39416 46.7535 5.39416 44.5761C5.39416 42.4006 5.76324 40.3765 6.50336 38.5C7.2415 36.6255 8.27372 34.9949 9.60199 33.6042C10.9283 32.2155 12.5072 31.1357 14.3368 30.3666C16.1664 29.5975 18.1736 29.2119 20.3564 29.2119C22.5393 29.2119 24.5465 29.5975 26.3761 30.3666C28.2056 31.1376 29.7925 32.2175 31.1365 33.6042C32.4786 34.9929 33.5128 36.6255 34.2351 38.5C34.9575 40.3746 35.3187 42.4006 35.3187 44.5761C35.3187 46.7515 34.9575 48.7775 34.2351 50.6521C33.7102 52.0171 33.0174 53.2524 32.1628 54.3579L27.1557 49.346Z" fill="#13A8DC"></path>
  <path d="M65.2873 65.2333C62.0486 65.2333 59.1828 64.6373 56.6861 63.4434C54.1895 62.2514 52.2415 60.5952 50.8422 58.4767C49.4428 56.3583 48.7422 53.9389 48.7422 51.2166V27.6718C48.7422 26.8988 48.9948 26.2693 49.5001 25.7815C50.0053 25.2957 50.629 25.0498 51.3711 25.0498C52.1467 25.0498 52.7783 25.2937 53.2678 25.7815C53.7572 26.2693 54.002 26.8988 54.002 27.6718V51.2166C54.002 53.0321 54.4835 54.6372 55.4447 56.0318C56.4059 57.4264 57.7381 58.52 59.4413 59.3088C61.1446 60.0995 63.0926 60.4929 65.2853 60.4929C67.411 60.4929 69.2899 60.0975 70.926 59.3088C72.5622 58.52 73.8431 57.4264 74.7707 56.0318C75.6983 54.6372 76.1621 53.0321 76.1621 51.2166V27.6718C76.1621 26.8988 76.4148 26.2693 76.92 25.7815C77.4253 25.2957 78.0489 25.0498 78.791 25.0498C79.5667 25.0498 80.1904 25.2937 80.6621 25.7815C81.1338 26.2693 81.3706 26.8988 81.3706 27.6718V51.2166C81.3706 53.9389 80.6877 56.3603 79.322 58.4767C77.9562 60.5952 76.0595 62.2494 73.6299 63.4434C71.2063 64.6373 68.4235 65.2333 65.2873 65.2333Z" fill="#13A8DC"></path>
  <path d="M124.347 26.1336C123.958 25.4117 123.259 25.0498 122.247 25.0498C121.639 25.0498 121.159 25.16 120.804 25.3783C120.451 25.5966 120.137 26.0077 119.869 26.6136L106.896 57.0625L94.1696 26.6136C93.7314 25.573 92.9222 25.0498 91.742 25.0498C90.696 25.0498 89.9874 25.4196 89.6164 26.1592C89.2453 26.8988 89.2947 27.841 89.7684 28.9818L104.59 62.7628C105.096 63.8722 105.889 64.4269 106.969 64.4269C107.541 64.4269 108.023 64.2833 108.411 63.9981C108.798 63.7128 109.11 63.2998 109.347 62.7628L124.321 28.5274C124.726 27.6561 124.734 26.8575 124.347 26.1336Z" fill="#FAC314"></path>
  <path d="M183.483 26.1336C183.094 25.4117 182.395 25.0498 181.383 25.0498C180.777 25.0498 180.295 25.16 179.94 25.3783C179.587 25.5966 179.273 26.0077 179.005 26.6136L166.032 57.0625L153.306 26.6136C152.868 25.573 152.058 25.0498 150.878 25.0498C149.832 25.0498 149.123 25.4196 148.752 26.1592C148.381 26.8988 148.433 27.841 148.904 28.9818L163.727 62.7628C164.232 63.8722 165.025 64.4269 166.105 64.4269C166.677 64.4269 167.159 64.2833 167.548 63.9981C167.934 63.7128 168.246 63.2998 168.483 62.7628L183.457 28.5274C183.862 27.6561 183.87 26.8575 183.483 26.1336Z" fill="#FAC314"></path>
  <path d="M195.047 64.4269C194.305 64.4269 193.681 64.1751 193.176 63.6715C192.671 63.168 192.418 62.5464 192.418 61.8068V27.6718C192.418 26.8988 192.671 26.2693 193.176 25.7815C193.681 25.2957 194.305 25.0498 195.047 25.0498C195.823 25.0498 196.454 25.2937 196.944 25.7815C197.431 26.2693 197.678 26.8988 197.678 27.6718V61.8049C197.678 62.5444 197.433 63.166 196.944 63.6696C196.454 64.1751 195.823 64.4269 195.047 64.4269Z" fill="#13A8DC"></path>
  <path d="M246.695 44.5761C246.695 41.6315 246.208 38.9367 245.235 36.4937C244.26 34.0507 242.884 31.9323 241.104 30.1423C239.324 28.3524 237.216 26.9637 234.782 25.9763C232.347 24.9888 229.651 24.4951 226.696 24.4951C223.74 24.4951 221.038 24.9888 218.587 25.9763C216.135 26.9637 214.027 28.3524 212.265 30.1423C210.502 31.9323 209.133 34.0507 208.16 36.4937C207.185 38.9367 206.699 41.6315 206.699 44.5761C206.699 47.5226 207.185 50.2252 208.16 52.684C209.133 55.1447 210.502 57.271 212.265 59.0609C214.027 60.8509 216.135 62.2415 218.587 63.229C221.038 64.2144 223.742 64.7101 226.696 64.7101C229.651 64.7101 232.347 64.2164 234.782 63.229C236.069 62.7077 237.259 62.0704 238.363 61.3249L240.449 63.404C240.986 63.939 241.582 64.2066 242.237 64.2066C242.892 64.2066 243.488 63.939 244.025 63.404C244.562 62.869 244.822 62.2828 244.806 61.6475C244.789 61.0122 244.53 60.426 244.025 59.891L242.101 57.9653C243.403 56.4212 244.451 54.6627 245.233 52.6879C246.208 50.2233 246.695 47.5206 246.695 44.5761ZM233.497 49.346C232.961 48.811 232.365 48.5435 231.709 48.5435C231.054 48.5435 230.458 48.811 229.921 49.346C229.384 49.881 229.116 50.475 229.116 51.1281C229.116 51.7811 229.384 52.3751 229.921 52.9102L234.767 57.7391C234.121 58.1423 233.438 58.5003 232.718 58.8111C230.886 59.5979 228.881 59.9913 226.698 59.9913C224.515 59.9913 222.508 59.5979 220.679 58.8111C218.847 58.0263 217.27 56.9366 215.944 55.5479C214.618 54.1592 213.583 52.5286 212.845 50.6521C212.105 48.7775 211.736 46.7535 211.736 44.5761C211.736 42.4006 212.105 40.3765 212.845 38.5C213.583 36.6255 214.616 34.9949 215.944 33.6042C217.27 32.2155 218.849 31.1357 220.679 30.3666C222.508 29.5975 224.515 29.2119 226.698 29.2119C228.881 29.2119 230.888 29.5975 232.718 30.3666C234.547 31.1376 236.134 32.2175 237.478 33.6042C238.82 34.9929 239.855 36.6255 240.577 38.5C241.299 40.3746 241.66 42.4006 241.66 44.5761C241.66 46.7515 241.299 48.7775 240.577 50.6521C240.052 52.0171 239.359 53.2505 238.505 54.3579L233.497 49.346Z" fill="#13A8DC"></path>
  <path d="M107.002 17.8288C104.316 17.8288 102.137 15.6592 102.137 12.9802C102.137 10.3012 104.314 8.13159 107.002 8.13159C109.69 8.13159 111.867 10.3012 111.867 12.9802C111.867 15.6592 109.688 17.8288 107.002 17.8288Z" fill="#13A8DC"></path>
  <path d="M151.353 12.3642C154.04 12.3642 156.218 10.1934 156.218 7.51561C156.218 4.83779 154.04 2.66699 151.353 2.66699C148.666 2.66699 146.488 4.83779 146.488 7.51561C146.488 10.1934 148.666 12.3642 151.353 12.3642Z" fill="#F4A425"></path>
  <path d="M204.712 92.6661H201.051V92.2314L202.699 89.7471C203.206 88.978 203.545 88.3623 203.719 87.8981C203.893 87.4339 203.98 86.9166 203.98 86.3442C203.98 85.9056 203.865 85.5574 203.638 85.2978C203.411 85.0381 203.101 84.9083 202.711 84.9083C202.454 84.9083 202.229 84.9457 202.038 85.0224C201.846 85.0991 201.653 85.2132 201.459 85.3647L201.163 84.9477C201.424 84.751 201.674 84.6113 201.915 84.5307C202.156 84.448 202.432 84.4087 202.746 84.4087C203.309 84.4087 203.747 84.5838 204.061 84.9319C204.374 85.2801 204.53 85.7521 204.53 86.3462C204.53 86.7553 204.485 87.1389 204.394 87.4988C204.303 87.8588 204.175 88.2109 204.007 88.5571C203.842 88.9033 203.567 89.3517 203.182 89.9044L201.678 92.1212V92.1665H204.714V92.6661H204.712Z" fill="white" stroke="white" stroke-width="0.329404" stroke-miterlimit="10"></path>
  <path d="M207.26 88.2774C206.879 88.2774 206.494 88.3325 206.103 88.4446L205.829 88.0945L206.07 84.5244H208.837V85.0476H206.523L206.322 87.9116C206.658 87.8368 206.981 87.7994 207.295 87.7994C207.907 87.7994 208.391 88.002 208.748 88.4072C209.105 88.8124 209.285 89.3691 209.285 90.0792C209.285 90.8994 209.089 91.5544 208.698 92.0462C208.308 92.5379 207.785 92.7818 207.133 92.7818C206.551 92.7818 206.097 92.6795 205.77 92.475V91.8613C206.18 92.1465 206.626 92.2901 207.112 92.2901C207.607 92.2901 208 92.0875 208.292 91.6823C208.582 91.2771 208.728 90.7499 208.728 90.1008C208.728 89.491 208.598 89.0367 208.337 88.7338C208.077 88.4308 207.714 88.2774 207.26 88.2774Z" fill="white" stroke="white" stroke-width="0.329404" stroke-miterlimit="10"></path>
  <path d="M216.192 92.666V88.5491C216.192 87.5361 215.894 87.0286 215.298 87.0286C214.888 87.0286 214.594 87.2056 214.412 87.5616C214.23 87.9157 214.142 88.4389 214.142 89.1293V92.666H213.617V88.5491C213.617 88.0357 213.544 87.6541 213.4 87.4043C213.253 87.1525 213.029 87.0286 212.723 87.0286C212.32 87.0286 212.028 87.2115 211.844 87.5754C211.663 87.9393 211.57 88.5294 211.57 89.3477V92.6679H211.039V86.6234H211.487L211.532 87.4653H211.582C211.825 86.826 212.235 86.5073 212.817 86.5073C213.153 86.5073 213.417 86.5959 213.611 86.7748C213.804 86.9538 213.944 87.2135 214.029 87.5538C214.175 87.182 214.353 86.9145 214.566 86.7512C214.779 86.588 215.053 86.5054 215.393 86.5054C215.851 86.5054 216.186 86.6804 216.4 87.0325C216.613 87.3846 216.717 87.9452 216.717 88.7182V92.6679H216.192V92.666Z" fill="white" stroke="white" stroke-width="0.329404" stroke-miterlimit="10"></path>
  <path d="M221.496 86.6224V86.9961L220.669 87.0905C220.782 87.2361 220.873 87.4426 220.944 87.7121C221.015 87.9816 221.05 88.2569 221.05 88.5402C221.05 89.1263 220.918 89.6023 220.652 89.9662C220.385 90.3301 220.034 90.5131 219.598 90.5131H219.464L219.347 90.5013C219.168 90.6271 219.027 90.753 218.925 90.8809C218.822 91.0068 218.771 91.1543 218.771 91.3215C218.771 91.4926 218.838 91.6244 218.972 91.7208C219.106 91.8152 219.288 91.8624 219.515 91.8624H219.896C220.437 91.8624 220.855 92.0021 221.153 92.2794C221.451 92.5567 221.601 92.96 221.601 93.4891C221.601 94.0792 221.402 94.5473 221.001 94.8935C220.6 95.2397 220.071 95.4108 219.416 95.4108C218.868 95.4108 218.447 95.2732 218.153 94.9958C217.859 94.7185 217.711 94.3211 217.711 93.8018C217.711 93.4222 217.808 93.0996 218.001 92.8302C218.195 92.5607 218.498 92.3482 218.913 92.1929C218.727 92.1122 218.577 91.9981 218.463 91.8526C218.348 91.707 218.293 91.5339 218.293 91.3353C218.293 91.1543 218.354 90.991 218.475 90.8474C218.595 90.7039 218.769 90.5524 218.992 90.3872C218.682 90.2455 218.449 90.0174 218.291 89.7027C218.133 89.386 218.054 89.0162 218.054 88.5893C218.054 87.9461 218.191 87.4406 218.463 87.0689C218.735 86.6971 219.108 86.5122 219.58 86.5122C219.833 86.5122 220.046 86.5516 220.217 86.6302H221.496V86.6224ZM218.232 93.7527C218.232 94.1343 218.331 94.4332 218.53 94.6496C218.729 94.866 219.031 94.9722 219.432 94.9722C219.931 94.9722 220.328 94.8424 220.62 94.5827C220.912 94.3231 221.058 93.9671 221.058 93.5127C221.058 93.1488 220.96 92.8675 220.76 92.6689C220.561 92.4702 220.271 92.3719 219.892 92.3719H219.501C219.136 92.3719 218.834 92.4997 218.593 92.7535C218.352 93.0072 218.232 93.3396 218.232 93.7527ZM218.562 88.5933C218.562 89.087 218.652 89.4607 218.836 89.7164C219.018 89.9702 219.26 90.098 219.562 90.098C220.212 90.098 220.535 89.5787 220.535 88.5382C220.535 88.0366 220.452 87.6452 220.287 87.3619C220.121 87.0807 219.88 86.9391 219.562 86.9391C219.239 86.9391 218.99 87.0846 218.818 87.3737C218.646 87.6629 218.562 88.0701 218.562 88.5933Z" fill="white" stroke="white" stroke-width="0.329404" stroke-miterlimit="10"></path>
  <path d="M223.568 91.6527C223.321 92.4887 223.013 93.3168 222.64 94.1371H222.289C222.569 93.1909 222.755 92.3196 222.848 91.5249H223.491L223.568 91.6527Z" fill="white" stroke="white" stroke-width="0.329404" stroke-miterlimit="10"></path>
  <path d="M227.057 88.2774C226.676 88.2774 226.291 88.3325 225.9 88.4446L225.626 88.0945L225.866 84.5244H228.633V85.0476H226.32L226.119 87.9116C226.455 87.8368 226.778 87.7994 227.092 87.7994C227.704 87.7994 228.187 88.002 228.545 88.4072C228.902 88.8124 229.081 89.3691 229.081 90.0792C229.081 90.8994 228.886 91.5544 228.495 92.0462C228.105 92.5379 227.582 92.7818 226.93 92.7818C226.348 92.7818 225.894 92.6795 225.566 92.475V91.8613C225.977 92.1465 226.423 92.2901 226.908 92.2901C227.404 92.2901 227.797 92.0875 228.089 91.6823C228.379 91.2771 228.525 90.7499 228.525 90.1008C228.525 89.491 228.395 89.0367 228.134 88.7338C227.874 88.4308 227.512 88.2774 227.057 88.2774Z" fill="white" stroke="white" stroke-width="0.329404" stroke-miterlimit="10"></path>
  <path d="M233.676 88.5836C233.676 89.9605 233.526 91.005 233.226 91.7151C232.926 92.4251 232.478 92.7792 231.882 92.7792C231.252 92.7792 230.796 92.4507 230.516 91.7957C230.234 91.1407 230.094 90.0687 230.094 88.5836C230.094 85.7984 230.69 84.4058 231.882 84.4058C232.5 84.4058 232.954 84.7519 233.244 85.4424C233.532 86.1328 233.676 87.1792 233.676 88.5836ZM230.662 88.5836C230.662 89.8091 230.761 90.7276 230.956 91.3374C231.152 91.9491 231.46 92.254 231.882 92.254C232.697 92.254 233.106 91.0306 233.106 88.5836C233.106 86.1465 232.697 84.929 231.882 84.929C231.461 84.929 231.152 85.2299 230.956 85.8318C230.761 86.4318 230.662 87.3503 230.662 88.5836Z" fill="white" stroke="white" stroke-width="0.329404" stroke-miterlimit="10"></path>
  <path d="M240.575 92.666V88.5491C240.575 87.5361 240.277 87.0286 239.681 87.0286C239.27 87.0286 238.976 87.2056 238.795 87.5616C238.613 87.9157 238.524 88.4389 238.524 89.1293V92.666H237.999V88.5491C237.999 88.0357 237.926 87.6541 237.782 87.4043C237.636 87.1525 237.411 87.0286 237.105 87.0286C236.703 87.0286 236.411 87.2115 236.227 87.5754C236.046 87.9393 235.953 88.5294 235.953 89.3477V92.6679H235.422V86.6234H235.87L235.915 87.4653H235.965C236.207 86.826 236.618 86.5073 237.2 86.5073C237.536 86.5073 237.8 86.5959 237.994 86.7748C238.187 86.9538 238.327 87.2135 238.412 87.5538C238.558 87.182 238.736 86.9145 238.949 86.7512C239.162 86.588 239.436 86.5054 239.776 86.5054C240.234 86.5054 240.569 86.6804 240.782 87.0325C240.995 87.3846 241.1 87.9452 241.1 88.7182V92.6679H240.575V92.666Z" fill="white" stroke="white" stroke-width="0.329404" stroke-miterlimit="10"></path>
  <path d="M245.879 86.6224V86.9961L245.052 87.0905C245.165 87.2361 245.256 87.4426 245.327 87.7121C245.398 87.9816 245.433 88.2569 245.433 88.5402C245.433 89.1263 245.301 89.6023 245.034 89.9662C244.768 90.3301 244.417 90.5131 243.981 90.5131H243.846L243.73 90.5013C243.55 90.6271 243.41 90.753 243.308 90.8809C243.205 91.0068 243.154 91.1543 243.154 91.3215C243.154 91.4926 243.221 91.6244 243.355 91.7208C243.489 91.8152 243.671 91.8624 243.898 91.8624H244.279C244.819 91.8624 245.238 92.0021 245.536 92.2794C245.834 92.5567 245.984 92.96 245.984 93.4891C245.984 94.0792 245.784 94.5473 245.384 94.8935C244.983 95.2397 244.454 95.4108 243.799 95.4108C243.25 95.4108 242.83 95.2732 242.536 94.9958C242.242 94.7185 242.094 94.3211 242.094 93.8018C242.094 93.4222 242.19 93.0996 242.384 92.8302C242.577 92.5607 242.881 92.3482 243.296 92.1929C243.11 92.1122 242.96 91.9981 242.846 91.8526C242.731 91.707 242.676 91.5339 242.676 91.3353C242.676 91.1543 242.737 90.991 242.858 90.8474C242.978 90.7039 243.152 90.5524 243.375 90.3872C243.065 90.2455 242.832 90.0174 242.674 89.7027C242.516 89.386 242.437 89.0162 242.437 88.5893C242.437 87.9461 242.573 87.4406 242.846 87.0689C243.118 86.6971 243.491 86.5122 243.963 86.5122C244.215 86.5122 244.429 86.5516 244.6 86.6302H245.879V86.6224ZM242.615 93.7527C242.615 94.1343 242.713 94.4332 242.913 94.6496C243.112 94.866 243.414 94.9722 243.815 94.9722C244.314 94.9722 244.711 94.8424 245.003 94.5827C245.295 94.3231 245.441 93.9671 245.441 93.5127C245.441 93.1488 245.342 92.8675 245.143 92.6689C244.944 92.4702 244.654 92.3719 244.275 92.3719H243.884C243.519 92.3719 243.217 92.4997 242.976 92.7535C242.735 93.0072 242.615 93.3396 242.615 93.7527ZM242.944 88.5933C242.944 89.087 243.035 89.4607 243.219 89.7164C243.4 89.9702 243.643 90.098 243.945 90.098C244.594 90.098 244.918 89.5787 244.918 88.5382C244.918 88.0366 244.835 87.6452 244.669 87.3619C244.504 87.0807 244.263 86.9391 243.945 86.9391C243.621 86.9391 243.373 87.0846 243.201 87.3737C243.029 87.6629 242.944 88.0701 242.944 88.5933Z" fill="white" stroke="white" stroke-width="0.329404" stroke-miterlimit="10"></path>
  <path d="M202.562 105.403C202.726 105.403 202.872 105.382 202.999 105.336V105.783C202.835 105.858 202.624 105.895 202.367 105.895C201.741 105.895 201.428 105.429 201.428 104.497V100.207H200.879V99.8938L201.416 99.7384L201.589 98.3005H201.958V99.7384H202.92V100.207H201.958V104.345C201.958 104.754 202.004 105.032 202.093 105.181C202.182 105.329 202.337 105.403 202.562 105.403Z" fill="white" stroke="white" stroke-width="0.329404" stroke-miterlimit="10"></path>
  <path d="M206.308 105.78L206.24 104.935H206.219C205.929 105.574 205.489 105.893 204.9 105.893C204.506 105.893 204.188 105.735 203.947 105.422C203.706 105.108 203.586 104.689 203.586 104.162C203.586 103.585 203.76 103.131 204.105 102.795C204.45 102.458 204.938 102.275 205.564 102.246L206.217 102.212V101.711C206.217 101.146 206.146 100.735 206.004 100.477C205.862 100.22 205.627 100.09 205.299 100.09C204.952 100.09 204.598 100.204 204.237 100.43L204.008 100.013C204.429 99.7536 204.871 99.6238 205.333 99.6238C205.832 99.6238 206.191 99.7811 206.412 100.094C206.631 100.409 206.742 100.932 206.742 101.667V105.784H206.308V105.78ZM205.017 105.442C205.398 105.442 205.692 105.255 205.903 104.882C206.114 104.508 206.219 103.981 206.219 103.296V102.667L205.587 102.7C205.1 102.726 204.737 102.861 204.5 103.103C204.263 103.347 204.144 103.701 204.144 104.169C204.144 104.608 204.223 104.929 204.379 105.133C204.535 105.34 204.748 105.442 205.017 105.442Z" fill="white" stroke="white" stroke-width="0.329404" stroke-miterlimit="10"></path>
  <path d="M210.219 99.6325C211.403 99.6325 211.997 100.671 211.997 102.746C211.997 103.771 211.849 104.552 211.555 105.089C211.261 105.626 210.837 105.893 210.28 105.893C209.99 105.893 209.725 105.813 209.487 105.653C209.248 105.494 209.05 105.258 208.894 104.945H208.849L208.776 105.781H208.34V97.1128H208.871V99.8036L208.849 100.533H208.894C209.214 99.9335 209.654 99.6325 210.219 99.6325ZM210.195 100.122C209.729 100.122 209.392 100.327 209.183 100.736C208.973 101.145 208.869 101.814 208.869 102.746V102.886C208.869 104.572 209.319 105.415 210.217 105.415C210.627 105.415 210.933 105.199 211.137 104.764C211.34 104.33 211.44 103.657 211.44 102.748C211.44 101.875 211.342 101.22 211.144 100.781C210.949 100.341 210.631 100.122 210.195 100.122Z" fill="white" stroke="white" stroke-width="0.329404" stroke-miterlimit="10"></path>
  <path d="M213.863 105.781H213.332V97.1128H213.863V105.781Z" fill="white" stroke="white" stroke-width="0.329404" stroke-miterlimit="10"></path>
  <path d="M217.206 105.893C216.565 105.893 216.073 105.622 215.728 105.077C215.383 104.532 215.211 103.775 215.211 102.801C215.211 101.769 215.365 100.98 215.673 100.437C215.981 99.8921 216.423 99.6206 217.001 99.6206C217.504 99.6206 217.901 99.8586 218.191 100.337C218.481 100.815 218.627 101.458 218.627 102.266V102.756H215.754C215.762 103.635 215.886 104.296 216.129 104.733C216.371 105.171 216.739 105.39 217.23 105.39C217.611 105.39 218.012 105.266 218.432 105.016V105.529C218.041 105.773 217.635 105.893 217.206 105.893ZM216.966 100.101C216.235 100.101 215.835 100.826 215.764 102.278H218.094C218.094 101.613 217.994 101.084 217.79 100.691C217.587 100.297 217.311 100.101 216.966 100.101Z" fill="white" stroke="white" stroke-width="0.329404" stroke-miterlimit="10"></path>
  <path d="M221.086 105.404C221.25 105.404 221.396 105.382 221.522 105.337V105.783C221.358 105.858 221.147 105.895 220.89 105.895C220.265 105.895 219.951 105.429 219.951 104.497V100.207H219.402V99.894L219.939 99.7386L220.113 98.3008H220.482V99.7386H221.443V100.207H220.482V104.345C220.482 104.754 220.527 105.032 220.616 105.181C220.705 105.329 220.863 105.404 221.086 105.404Z" fill="white" stroke="white" stroke-width="0.329404" stroke-miterlimit="10"></path>
  <path d="M224.863 104.266C224.863 104.776 224.729 105.173 224.46 105.46C224.192 105.747 223.805 105.893 223.298 105.893C223.021 105.893 222.781 105.857 222.571 105.787C222.362 105.716 222.2 105.637 222.086 105.553V104.935C222.224 105.073 222.406 105.183 222.635 105.267C222.862 105.35 223.094 105.393 223.333 105.393C223.647 105.393 223.892 105.291 224.071 105.086C224.251 104.882 224.34 104.608 224.34 104.268C224.34 104.001 224.275 103.774 224.146 103.591C224.018 103.409 223.773 103.198 223.412 102.964C222.998 102.704 222.716 102.496 222.566 102.34C222.414 102.185 222.297 102.01 222.212 101.817C222.129 101.624 222.086 101.394 222.086 101.127C222.086 100.692 222.234 100.332 222.528 100.049C222.822 99.7657 223.197 99.6221 223.651 99.6221C224.139 99.6221 224.547 99.7381 224.875 99.9683L224.6 100.43C224.294 100.226 223.971 100.124 223.627 100.124C223.314 100.124 223.065 100.216 222.879 100.399C222.694 100.582 222.599 100.826 222.599 101.127C222.599 101.394 222.662 101.619 222.789 101.798C222.915 101.979 223.183 102.197 223.594 102.453C223.996 102.716 224.273 102.927 224.421 103.084C224.569 103.241 224.681 103.416 224.754 103.607C224.827 103.798 224.863 104.018 224.863 104.266Z" fill="white" stroke="white" stroke-width="0.329404" stroke-miterlimit="10"></path>
  <path d="M0 94.9039C0 91.5679 0.503282 88.3853 1.51182 85.3522C2.52035 82.3191 3.93546 79.703 5.75714 77.5H7.30843C5.57754 80.0492 4.26506 82.8148 3.37297 85.7967C2.48088 88.7787 2.03484 91.8019 2.03484 94.8665C2.03484 97.996 2.50259 101.08 3.44007 104.119C4.37756 107.158 5.65254 109.786 7.26896 112.001H5.75714C3.9098 109.851 2.48877 107.294 1.49405 104.332C0.497356 101.367 0 98.2261 0 94.9039Z" fill="white"></path>
  <path d="M13.7063 106.125C9.62279 106.125 7.58203 102.514 7.58203 95.289C7.58203 91.7347 8.0932 89.0281 9.11358 87.1673C10.134 85.3066 11.6399 84.3762 13.6293 84.3762C14.5727 84.3762 15.4668 84.6457 16.3135 85.1866C17.1602 85.7275 17.8352 86.475 18.3384 87.427H18.4943L18.4174 85.0902V75.6841H20.2588V105.74H18.747L18.5911 102.803H18.4174C17.9141 103.871 17.2608 104.693 16.4595 105.266C15.6582 105.84 14.7405 106.125 13.7063 106.125ZM13.8227 104.522C15.2951 104.522 16.4299 103.843 17.2233 102.484C18.0187 101.125 18.4154 99.1266 18.4154 96.4869V95.289C18.4154 92.1202 18.0305 89.8011 17.2628 88.3259C16.4931 86.8507 15.3207 86.115 13.7457 86.115C12.2339 86.115 11.1484 86.9038 10.4892 88.4813C9.83002 90.0588 9.50042 92.3405 9.50042 95.3283C9.50042 98.3418 9.84186 100.627 10.5287 102.185C11.2135 103.743 12.3109 104.522 13.8227 104.522Z" fill="white"></path>
  <path d="M32.4302 105.74L32.1973 102.803H32.1203C31.1118 105.018 29.5881 106.125 27.5454 106.125C26.1757 106.125 25.0744 105.583 24.2415 104.493C23.4086 103.405 22.9922 101.946 22.9922 100.118C22.9922 98.1218 23.5922 96.5423 24.7941 95.3758C25.9961 94.2114 27.6816 93.576 29.8526 93.4738L32.1203 93.3577V91.6189C32.1203 89.6618 31.8756 88.2357 31.3842 87.3407C30.8927 86.4457 30.0796 85.9992 28.9427 85.9992C27.7408 85.9992 26.5132 86.3926 25.2599 87.1774L24.4645 85.7278C25.925 84.8269 27.4566 84.3765 29.0572 84.3765C30.7881 84.3765 32.0355 84.9213 32.7973 86.0091C33.5591 87.0968 33.94 88.9163 33.94 91.4655V105.74H32.4302ZM27.9539 104.562C29.2723 104.562 30.2967 103.915 31.025 102.62C31.7552 101.326 32.1203 99.4947 32.1203 97.1245V94.9411L29.9296 95.0572C28.2362 95.1477 26.9809 95.6138 26.1599 96.4577C25.3389 97.3015 24.9283 98.5348 24.9283 100.158C24.9283 101.678 25.1987 102.791 25.7415 103.499C26.2862 104.208 27.0224 104.562 27.9539 104.562Z" fill="white"></path>
  <path d="M43.7309 84.3765C44.3901 84.3765 45.0039 84.4669 45.5723 84.6459L45.1262 86.4811C44.6605 86.2884 44.1828 86.192 43.6914 86.192C42.9809 86.192 42.3177 86.5559 41.7039 87.2837C41.0901 88.0115 40.6085 89.0244 40.2592 90.3266C39.9099 91.6268 39.7362 93.0627 39.7362 94.6343V105.742H37.8948V84.7817H39.4066L39.6 88.452H39.7362C40.721 85.7356 42.0513 84.3765 43.7309 84.3765Z" fill="white"></path>
  <path d="M46.875 78.9665C46.875 78.3863 46.9934 77.9358 47.2342 77.6152C47.473 77.2926 47.7809 77.1313 48.1539 77.1313C48.5033 77.1313 48.7796 77.2926 48.9868 77.6152C49.194 77.9378 49.2967 78.3883 49.2967 78.9665C49.2967 79.5212 49.194 79.9618 48.9868 80.2903C48.7796 80.6188 48.5013 80.7821 48.1539 80.7821C47.7789 80.7821 47.473 80.6188 47.2342 80.2903C46.9934 79.9618 46.875 79.5212 46.875 78.9665ZM48.9868 105.739H47.1454V84.781H48.9868V105.739Z" fill="white"></path>
  <path d="M58.1516 106.125C54.0681 106.125 52.0273 102.514 52.0273 95.289C52.0273 91.7347 52.5385 89.0281 53.5589 87.1673C54.5793 85.3066 56.0852 84.3762 58.0746 84.3762C59.018 84.3762 59.9121 84.6457 60.7588 85.1866C61.6055 85.7275 62.2805 86.475 62.7837 87.427H62.9397L62.8627 85.0902V75.6841H64.7041V105.74H63.1923L63.0364 102.803H62.8627C62.3594 103.871 61.7061 104.693 60.9048 105.266C60.1016 105.84 59.1858 106.125 58.1516 106.125ZM58.268 104.522C59.7404 104.522 60.8752 103.843 61.6686 102.484C62.464 101.125 62.8607 99.1266 62.8607 96.4869V95.289C62.8607 92.1202 62.4759 89.8011 61.7081 88.3259C60.9384 86.8507 59.766 86.115 58.1911 86.115C56.6793 86.115 55.5937 86.9038 54.9345 88.4813C54.2753 90.0588 53.9457 92.3405 53.9457 95.3283C53.9457 98.3418 54.2872 100.627 54.974 102.185C55.6569 103.743 56.7562 104.522 58.268 104.522Z" fill="white"></path>
  <path d="M80.5787 95.2126C80.5787 98.7414 80.0202 101.442 78.9031 103.317C77.786 105.191 76.1874 106.127 74.1071 106.127C72.0526 106.127 70.4796 105.191 69.3881 103.317C68.2967 101.442 67.75 98.7414 67.75 95.2126C67.75 87.9879 69.8954 84.3765 74.1841 84.3765C76.1992 84.3765 77.7702 85.3226 78.8932 87.2168C80.0162 89.109 80.5787 91.7743 80.5787 95.2126ZM69.6664 95.2126C69.6664 98.2378 70.0276 100.523 70.7519 102.069C71.4762 103.616 72.6052 104.387 74.1446 104.387C77.1544 104.387 78.6603 101.328 78.6603 95.2106C78.6603 89.1444 77.1544 86.1133 74.1446 86.1133C72.5677 86.1133 71.4269 86.8726 70.7243 88.393C70.0177 89.9135 69.6664 92.1874 69.6664 95.2126Z" fill="white"></path>
  <path d="M89.4572 84.3765C90.1164 84.3765 90.7302 84.4669 91.2986 84.6459L90.8526 86.4811C90.3868 86.2884 89.9091 86.192 89.4177 86.192C88.7072 86.192 88.044 86.5559 87.4302 87.2837C86.8164 88.0115 86.3349 89.0244 85.9855 90.3266C85.6362 91.6268 85.4625 93.0627 85.4625 94.6343V105.742H83.6211V84.7817H85.1329L85.3263 88.452H85.4625C86.4474 85.7356 87.7776 84.3765 89.4572 84.3765Z" fill="white"></path>
  <path d="M98.8395 106.125C96.6172 106.125 94.908 105.183 93.714 103.294C92.5179 101.408 91.9219 98.7783 91.9219 95.4029C91.9219 91.823 92.4548 89.0909 93.5205 87.2026C94.5863 85.3162 96.1198 84.3721 98.1231 84.3721C99.8678 84.3721 101.243 85.2002 102.252 86.8544C103.261 88.5086 103.764 90.7412 103.764 93.5481V95.2475H93.8008C93.8265 98.3003 94.2587 100.586 95.0995 102.104C95.9383 103.625 97.2113 104.384 98.9185 104.384C100.237 104.384 101.624 103.953 103.085 103.09V104.866C101.739 105.708 100.326 106.125 98.8395 106.125ZM98.0066 86.0361C95.4745 86.0361 94.085 88.5539 93.8403 93.5894H101.922C101.922 91.2841 101.569 89.4489 100.866 88.0838C100.16 86.7206 99.2066 86.0361 98.0066 86.0361Z" fill="white"></path>
  <path d="M109.714 94.864L105.102 84.7812H107.097L110.624 93.2806L114.307 84.7812H116.225L111.536 95.0961L116.458 105.739H114.52L110.586 96.6795L106.613 105.739H104.715L109.714 94.864Z" fill="white"></path>
  <path d="M126.502 105.74L126.27 102.803H126.193C125.184 105.018 123.66 106.125 121.62 106.125C120.25 106.125 119.149 105.583 118.316 104.493C117.483 103.405 117.066 101.946 117.066 100.118C117.066 98.1218 117.666 96.5423 118.868 95.3758C120.07 94.2114 121.756 93.576 123.927 93.4738L126.195 93.3577V91.6189C126.195 89.6618 125.95 88.2357 125.458 87.3407C124.967 86.4457 124.154 85.9992 123.017 85.9992C121.815 85.9992 120.587 86.3926 119.334 87.1774L118.539 85.7278C119.999 84.8269 121.531 84.3765 123.131 84.3765C124.862 84.3765 126.11 84.9213 126.872 86.0091C127.633 87.0968 128.014 88.9163 128.014 91.4655V105.74H126.502ZM122.024 104.562C123.343 104.562 124.367 103.915 125.097 102.62C125.827 101.326 126.193 99.4947 126.193 97.1245V94.9411L124.002 95.0572C122.308 95.1477 121.053 95.6138 120.232 96.4577C119.411 97.3015 119.001 98.5348 119.001 100.158C119.001 101.678 119.273 102.791 119.814 103.499C120.358 104.208 121.095 104.562 122.024 104.562Z" fill="white"></path>
  <path d="M141.466 105.74V91.2904C141.466 87.8128 140.432 86.0759 138.365 86.0759C136.788 86.0759 135.636 86.727 134.906 88.0272C134.175 89.3274 133.81 91.3947 133.81 94.2271V105.74H131.969V84.7817H133.52L133.676 87.6987H133.85C134.288 86.6424 134.921 85.8242 135.748 85.2459C136.575 84.6656 137.459 84.3765 138.403 84.3765C140.031 84.3765 141.253 84.9213 142.066 86.0091C142.879 87.0968 143.288 88.8455 143.288 91.253V105.74H141.466Z" fill="white"></path>
  <path d="M151.1 104.425C151.668 104.425 152.171 104.349 152.612 104.193V105.739C152.043 105.997 151.313 106.125 150.421 106.125C148.25 106.125 147.164 104.51 147.164 101.276V86.402H145.266V85.3202L147.127 84.7793L147.727 79.7949H149.006V84.7793H152.339V86.402H149.006V100.753C149.006 102.169 149.162 103.135 149.471 103.65C149.781 104.168 150.324 104.425 151.1 104.425Z" fill="white"></path>
  <path d="M159.689 94.9039C159.689 98.2261 159.196 101.371 158.207 104.339C157.218 107.308 155.793 109.861 153.934 111.999H152.422C154.09 109.668 155.379 106.997 156.289 103.983C157.2 100.97 157.654 97.9311 157.654 94.8665C157.654 91.7882 157.208 88.7669 156.316 85.7967C155.424 82.8286 154.114 80.063 152.383 77.5H153.934C155.781 79.6893 157.202 82.3093 158.197 85.362C159.19 88.4128 159.689 91.5934 159.689 94.9039Z" fill="white"></path>
  <path d="M174.949 101.286V89.0122H176.816V101.286H174.949Z" fill="white"></path>
  <path d="M183.84 101.286H182.388L178.34 89.0122H180.278L183.114 97.9423L185.95 89.0122H187.922L183.84 101.286Z" fill="white"></path>
  <path d="M192.824 99.5884C190.789 104.565 185.89 108.084 180.175 108.084C172.643 108.084 166.515 101.976 166.515 94.4703C166.515 86.9643 172.643 80.8568 180.175 80.8568C185.89 80.8568 190.789 84.3757 192.824 89.3522H194.357C192.249 83.5693 186.698 79.4209 180.175 79.4209C171.848 79.4209 165.074 86.1716 165.074 94.4703C165.074 102.769 171.848 109.52 180.175 109.52C186.696 109.52 192.247 105.371 194.355 99.5884H192.824Z" fill="white"></path>
  <path d="M166.135 17.8288C168.822 17.8288 171 15.658 171 12.9802C171 10.3024 168.822 8.13159 166.135 8.13159C163.448 8.13159 161.27 10.3024 161.27 12.9802C161.27 15.658 163.448 17.8288 166.135 17.8288Z" fill="#ED9431"></path>
  <path d="M254.418 31.0526C254.031 31.44 253.563 31.6328 253.015 31.6328C252.466 31.6328 251.998 31.44 251.613 31.0526C251.231 30.667 251.039 30.2008 251.039 29.6521C251.039 29.1092 251.232 28.645 251.619 28.2594C252.004 27.8759 252.47 27.6831 253.015 27.6831C253.563 27.6831 254.031 27.8759 254.418 28.2594C254.805 28.643 254.998 29.1072 254.998 29.6521C254.998 30.1989 254.805 30.6651 254.418 31.0526ZM251.811 28.4522C251.479 28.7846 251.313 29.1839 251.313 29.654C251.313 30.1281 251.477 30.5313 251.807 30.8637C252.138 31.1981 252.539 31.3633 253.013 31.3633C253.486 31.3633 253.887 31.1961 254.219 30.8637C254.55 30.5313 254.716 30.1261 254.716 29.654C254.716 29.1839 254.55 28.7846 254.219 28.4522C253.885 28.1178 253.484 27.9526 253.013 27.9526C252.545 27.9526 252.144 28.1198 251.811 28.4522ZM252.977 28.5623C253.248 28.5623 253.445 28.5879 253.571 28.641C253.796 28.7335 253.909 28.9184 253.909 29.1898C253.909 29.3845 253.838 29.5262 253.696 29.6186C253.621 29.6678 253.516 29.7012 253.382 29.7229C253.552 29.7504 253.676 29.8212 253.755 29.9353C253.834 30.0494 253.873 30.1615 253.873 30.2717V30.431C253.873 30.4802 253.875 30.5352 253.879 30.5923C253.883 30.6493 253.889 30.6867 253.899 30.7044L253.913 30.7319H253.553C253.552 30.7241 253.55 30.7182 253.548 30.7103C253.546 30.7024 253.544 30.6946 253.542 30.6867L253.534 30.6178V30.4467C253.534 30.1969 253.465 30.0317 253.329 29.951C253.248 29.9038 253.105 29.8822 252.902 29.8822H252.6V30.7339H252.217V28.5663H252.977V28.5623ZM253.392 28.9046C253.295 28.8515 253.141 28.824 252.928 28.824H252.6V29.6088H252.946C253.107 29.6088 253.23 29.593 253.311 29.5596C253.461 29.5006 253.536 29.3865 253.536 29.2213C253.536 29.0639 253.488 28.9577 253.392 28.9046Z" fill="#13A8DC"></path>
</svg>
