<svg id="Roatan_Excursions_logo" data-name="Roatan Excursions logo" xmlns="http://www.w3.org/2000/svg" width="180" height="103.575" viewBox="0 0 180 103.575">
  <g id="Group_17" data-name="Group 17" transform="translate(22.956 91.514)">
    <path id="Path_45" data-name="Path 45" d="M2045.058,719.029a.687.687,0,0,0-.841-.739,1.561,1.561,0,0,0-.644.2.524.524,0,0,0-.344.541c.051,1.039.1,2.07.1,3.108,0,1.236,0,2.516-.051,3.745a3.026,3.026,0,0,1-.541,1.821,1.376,1.376,0,0,1-1.433.644,1.275,1.275,0,0,1-1.236-.936,3.4,3.4,0,0,1-.146-.688c-.051-1.529-.051-3.057-.1-4.586,0-.79.051-1.58,0-2.414a1.52,1.52,0,0,0-1.382-1.624h-.593l-.051.051c-.146.1-.395.2-.395.293a3.386,3.386,0,0,0,.2.987.136.136,0,0,1,.1.051c.49.146.592.249.592.79,0,1.675,0,3.4.051,5.076a12.053,12.053,0,0,0,.2,2.318,3.249,3.249,0,0,0,4.637,1.975,3.31,3.31,0,0,0,1.477-1.924,12.01,12.01,0,0,0,.446-3.745C2045.1,722.335,2045.1,720.653,2045.058,719.029Z" transform="translate(-1992.778 -718.1)" fill="#fff"/>
    <path id="Path_46" data-name="Path 46" d="M1433.078,731.621c-.79,0-1.58,0-2.37-.051-.541-.051-.841-.249-.936-.739-.095-.885-.146-1.777-.2-2.765.593.051,1.083.1,1.529.146.644.051.885-.1.987-.688a.288.288,0,0,1,.051-.2c.051-.446-.146-.644-.644-.593-.2,0-.446.051-.644.051h-1.185a.05.05,0,0,0-.051-.051c0-1.185.051-2.37.051-3.5a.35.35,0,0,1,.4-.344c.541,0,1.134.051,1.675.051.446,0,.841.051,1.28.051.146,0,.4-.1.4-.2a4.168,4.168,0,0,0-.1-1.082c0-.1-.292-.2-.446-.2a2.049,2.049,0,0,0-.79,0c-1.382,0-2.714.051-4.1.051-.344,0-.592.1-.687.395v.688a3.158,3.158,0,0,1,.4.446.623.623,0,0,1,.2.395,8.817,8.817,0,0,1,.051,1.134c0,1.083-.051,2.172-.051,3.255,0,1.134.095,2.267.146,3.4a1.9,1.9,0,0,0,1.478,1.777,9.839,9.839,0,0,0,2.955.2c.79-.051.841-.249.988-.885C1433.773,731.724,1433.626,731.621,1433.078,731.621Z" transform="translate(-1427.3 -721.228)" fill="#fff"/>
    <g id="Group_15" data-name="Group 15" transform="translate(59.651 0.072)">
      <path id="Path_47" data-name="Path 47" d="M2250.2,729.707c-.051-.249-.146-.4-.446-.344a.8.8,0,0,1-.936-.541,10.308,10.308,0,0,1-.446-1.624c0-.051.051-.2.095-.2a2.664,2.664,0,0,0,.988-1.331,7.533,7.533,0,0,0,.249-4.045,2.944,2.944,0,0,0-4.637-1.872,1.242,1.242,0,0,0-1.434-.644c-.292.051-.687.1-.739.446-.051.446,0,.739.446.936a.7.7,0,0,1,.344.49c.051.541.051,1.134.051,1.726-.051,2.414-.249,4.834-.1,7.248a2.951,2.951,0,0,0,.051.644c.292,0,.541.051.79.051.593,0,.688-.1.688-.644V727.4h1.433c.292.739.541,1.433.885,2.121a2.43,2.43,0,0,0,1.383,1.236c.4.1.79.249,1.134-.051C2250.3,730.5,2250.246,730.1,2250.2,729.707Zm-2.267-4.834a1.994,1.994,0,0,1-2.413,1.185c-.2-.051-.249-.1-.249-.293v-2.121h0v-1.872a1.3,1.3,0,0,1,1.038-1.185,1.221,1.221,0,0,1,1.478.592,6.542,6.542,0,0,1,.395,1.382A6.3,6.3,0,0,1,2247.935,724.872Z" transform="translate(-2242.88 -719.086)" fill="#fff"/>
    </g>
    <path id="Path_48" data-name="Path 48" d="M1639.736,735.166c-.446-.051-.446-.344-.446-.592v-.541a3.716,3.716,0,0,0-1.28-3.306,6.862,6.862,0,0,0,.644-1.134,8.5,8.5,0,0,0,.395-3.847c0-.293-.249-.4-.541-.446h-.4c-.592,0-.687.1-.687.644s.1,1.082.051,1.58a6.579,6.579,0,0,1-.395,1.624,1.326,1.326,0,0,1-1.434.688,1.47,1.47,0,0,1-1.331-1.185,9.042,9.042,0,0,1-.2-1.975c-.051-1.082-.885-1.434-1.872-1.236a.927.927,0,0,0-.395.344,1.6,1.6,0,0,0-.051.49c0,.592,0,.592.592.644a.136.136,0,0,1,.1.051c0,1.236-.1,2.567.987,3.547a6.373,6.373,0,0,0-.688,1.082,8.733,8.733,0,0,0-.541,4.637c0,.1.2.293.344.344a4.1,4.1,0,0,0,.79.051.53.53,0,0,0,.541-.592c0-.2-.051-.446-.051-.644a5.2,5.2,0,0,1,.644-3.2,1.479,1.479,0,0,1,1.777-.739,1.573,1.573,0,0,1,1.382,1.477c0,.688,0,1.382-.051,2.07a1.468,1.468,0,0,0,1.529,1.624c.79,0,.987-.146.885-.987C1639.933,735.364,1639.831,735.166,1639.736,735.166Z" transform="translate(-1616.843 -724.773)" fill="#fff"/>
    <path id="Path_49" data-name="Path 49" d="M2436.855,723.543a12.7,12.7,0,0,1-1.924-1.236c-1.039-.79-.249-2.216.739-2.414.841-.146,1.821.051,1.872,1.134a.771.771,0,0,0,.1.446.63.63,0,0,0,.249.344.961.961,0,0,0,1.331-.739,2.452,2.452,0,0,0-1.975-2.662,5.192,5.192,0,0,0-2.465.051,2.75,2.75,0,0,0-1.382.79,2.966,2.966,0,0,0,.644,4.44c.841.541,1.726.987,2.611,1.529a2.249,2.249,0,0,1,1.28,2.318,1.175,1.175,0,0,1-.739.987,2.538,2.538,0,0,1-1.726.1.923.923,0,0,1-.687-.592,8.611,8.611,0,0,1-.249-1.039c-.095-.49-.2-.592-.687-.644h-.644c-.249,0-.446.146-.4.344.052.49.052.936.146,1.434a3.138,3.138,0,0,0,3.255,2.121,3.762,3.762,0,0,0,2.414-.687,3.182,3.182,0,0,0,.49-4.293A6.554,6.554,0,0,0,2436.855,723.543Z" transform="translate(-2359.138 -718.277)" fill="#fff"/>
    <path id="Path_50" data-name="Path 50" d="M3170.3,725.907a6.393,6.393,0,0,0-2.318-1.777,12.686,12.686,0,0,1-1.924-1.236,1.08,1.08,0,0,1-.344-1.382,1.322,1.322,0,0,1,1.185-.987c.885-.146,1.777.1,1.821,1.134a.773.773,0,0,0,.1.446.631.631,0,0,0,.249.344.98.98,0,0,0,1.331-.688,2.4,2.4,0,0,0-1.726-2.611,4.66,4.66,0,0,0-3.254.146,2.928,2.928,0,0,0-1.434,3.547,3.449,3.449,0,0,0,1.675,1.777c.739.446,1.477.79,2.172,1.28a2.249,2.249,0,0,1,1.28,2.267,1.116,1.116,0,0,1-.739.987,2.743,2.743,0,0,1-1.675.1.924.924,0,0,1-.687-.592,8.562,8.562,0,0,1-.249-1.039c-.1-.446-.146-.541-.644-.592a3.069,3.069,0,0,0-.687,0c-.293,0-.4.146-.4.395a7.131,7.131,0,0,0,.051,1.039,3.126,3.126,0,0,0,3.35,2.465,3.761,3.761,0,0,0,2.414-.687A3.4,3.4,0,0,0,3170.3,725.907Z" transform="translate(-3036.816 -718.863)" fill="#fff"/>
    <g id="Group_16" data-name="Group 16" transform="translate(97.377 0.602)">
      <path id="Path_51" data-name="Path 51" d="M2765.764,731.585c0-.739.052-1.477,0-2.216a3.948,3.948,0,0,0-.446-1.529,2.739,2.739,0,0,0-2.414-1.477c-1.872-.2-3.2.446-3.8,2.121a7.948,7.948,0,0,0-.395,2.414,19.255,19.255,0,0,0,.2,4.1,2.941,2.941,0,0,0,1.58,2.216,4.217,4.217,0,0,0,2.216.344c1.58-.1,2.414-.687,2.662-2.121.249-1.28.344-2.567.49-3.8C2765.866,731.585,2765.815,731.585,2765.764,731.585Zm-1.624,2.911a1.932,1.932,0,0,1-.249.885,1.337,1.337,0,0,1-1.236.936,1.774,1.774,0,0,1-1.529-.592,2.588,2.588,0,0,1-.593-1.529,24.627,24.627,0,0,1,.051-5.032,1.4,1.4,0,0,1,1.331-1.382,1.782,1.782,0,0,1,2.172,1.624c.095.841.095,1.726.146,2.172C2764.184,732.77,2764.184,733.655,2764.14,734.5Z" transform="translate(-2758.698 -726.329)" fill="#fff"/>
    </g>
    <path id="Path_52" data-name="Path 52" d="M2964.64,728.733a.512.512,0,0,1-.293-.344,1,1,0,0,1-.051-.541c.051-1.382.1-2.714.146-4.1,0-1.039.051-2.07-.051-3.108a2.122,2.122,0,0,0-.987-1.726,3.435,3.435,0,0,0-3.8.146c-.146.1-.293.249-.446.344-.1-.1-.2-.249-.292-.293a1.383,1.383,0,0,0-1.236-.2c-.146.051-.2.395-.292.592a.452.452,0,0,0,.249.592.508.508,0,0,1,.249.4,13.393,13.393,0,0,1,.095,1.433c0,2.414-.051,4.878-.051,7.3,0,.446.095.541.542.592.146,0,.292.051.446.051.446,0,.644-.146.644-.541-.051-.687-.1-1.331-.1-2.019v-5.624a1.781,1.781,0,0,1,1.28-1.726,1.381,1.381,0,0,1,2.018.936,6.889,6.889,0,0,1,.2,1.434v3.9c0,.885.052,1.777.1,2.662.051.739.446,1.082,1.28,1.082.739,0,.885-.2.79-.841A.709.709,0,0,0,2964.64,728.733Z" transform="translate(-2845.402 -718.391)" fill="#fff"/>
    <path id="Path_53" data-name="Path 53" d="M1858.339,727.354a1.523,1.523,0,0,0-1.134-.051c-.293.1-.293.395-.293.644a8.443,8.443,0,0,1-.249,1.58.881.881,0,0,1-.739.688,1.767,1.767,0,0,1-1.923-.79,3.1,3.1,0,0,1-.344-1.28c0-1.777.051-3.6.095-5.376.051-1.082.644-1.477,1.821-1.434.987.051,1.331.4,1.28,1.28,0,.051-.051.1,0,.146.051.1.051.293.146.344a3,3,0,0,0,.885.293c.249.051.395-.1.395-.344v-.987a2.145,2.145,0,0,0-.644-1.382,3.763,3.763,0,0,0-3.6-.688,2.836,2.836,0,0,0-1.777,2.216,8.377,8.377,0,0,0-.249,3.306c0,.592-.051,1.236,0,1.821.051.644.146,1.236.249,1.821a2.179,2.179,0,0,0,1.236,1.777,5.91,5.91,0,0,0,2.216.541c1.382.051,2.216-.446,2.465-1.529a17.191,17.191,0,0,0,.292-2.267A.341.341,0,0,0,1858.339,727.354Z" transform="translate(-1820.899 -719.675)" fill="#fff"/>
    <path id="Path_54" data-name="Path 54" d="M2628.916,721.619a6.373,6.373,0,0,0-.051-.987,1.365,1.365,0,0,0-1.382-1.331.8.8,0,0,0-.344.051.99.99,0,0,0,.051,1.331.456.456,0,0,1,.2.249v6.363h.052v3.152c0,.1.051.293.095.293a7.714,7.714,0,0,0,1.083.1.28.28,0,0,0,.292-.293V726.2C2628.968,724.778,2628.968,723.2,2628.916,721.619Z" transform="translate(-2539.167 -719.212)" fill="#fff"/>
  </g>
  <path id="Path_55" data-name="Path 55" d="M1437.805,458.654c14.642-4.191,38.061-1.082,45.266,5.822,0,0-13.26-7.5-29.387-5.032-6.458.987-15.776,3.306-22.929,7.5C1417.934,474.43,1414.189,465.456,1437.805,458.654Z" transform="translate(-1398.123 -384.357)" fill="#fff"/>
  <path id="Path_56" data-name="Path 56" d="M2189.285-253.592a1.664,1.664,0,0,0-2.216.841,13.494,13.494,0,0,1-2.567,3.4,9.436,9.436,0,0,1-11.929-.293,16.7,16.7,0,0,1-5.273-8.528c-2.216-7.541-4.242-15.184-6.312-22.783-.988-3.7-1.975-7.394-2.955-11.146a1.526,1.526,0,0,0-1.675-1.28,13.963,13.963,0,0,1-2.07,0c-.841-.1-1.134.293-1.382,1.039-1.039,3.547-2.121,7.1-3.109,10.7-1.777,6.6-5.573,22.037-7.3,28.648-.592,2.172-.146,2.713,2.173,2.809h.292c.841.051,1.478-.2,1.58-1.134.1-.592.292-1.134.446-1.726.446-1.872,2.86-12.573,3.35-14.445.051-.293.395-.688.644-.688,3.057-.051,6.114-.051,9.172-.051.146.592.292,1.185.446,1.726,1.434,5.325,2.911,10.649,5.72,15.432,2.07,3.452,4.681,6.261,8.725,7.446a31.154,31.154,0,0,0,3.6.688h1.382c.292-.051.644-.146.936-.2a11.235,11.235,0,0,0,9.318-6.707,5.846,5.846,0,0,0,.446-1.58A1.91,1.91,0,0,0,2189.285-253.592Zm-31.406-18.095c-1.924.051-3.847.1-5.771.1-.2,0-.592-.49-.541-.644,1.185-4.535,2.567-7.394,3.8-11.885a3.322,3.322,0,0,1,.541-.79c.644,2.37,1.083,2.765,1.529,4.93.541,2.318.885,4.681,1.382,7C2159.013-272.228,2158.816-271.687,2157.88-271.687Z" transform="translate(-2067.014 310.928)" fill="#fff"/>
  <path id="Path_57" data-name="Path 57" d="M2635.449-275.653c-.987-3.7-1.975-7.394-2.955-11.146a1.526,1.526,0,0,0-1.675-1.28,13.954,13.954,0,0,1-2.07,0c-.841-.1-1.134.293-1.382,1.039-1.039,3.547-2.121,7.1-3.108,10.7-1.777,6.6-4.834,18.789-6.56,25.394-.593,2.172-.146,2.713,2.172,2.809h.293c.841.051,1.477-.2,1.58-1.134.095-.592.292-1.134.446-1.726.446-1.872,2.121-9.318,2.567-11.19.051-.293.395-.688.644-.688,3.057-.051,6.114-.051,9.172-.051.146.592.292,1.185.446,1.726,1.434,5.325,1.778,6.458,2.86,10.6,1.185.293,3.745.2,3.745-1.529C2641.667-253.807,2639.194-259.285,2635.449-275.653Zm-2.713,8.338c-1.873.051-3.8.1-5.668.1-.446,0-.739-.146-.593-.739,1.185-4.44,1.872-7.892,3.057-12.324a4.161,4.161,0,0,1,.395-.79.806.806,0,0,0,.344-.051c.687,2.765,1.382,5.471,2.018,8.235C2632.692-271.163,2633.724-267.315,2632.736-267.315Z" transform="translate(-2507.458 306.016)" fill="#fff"/>
  <path id="Path_58" data-name="Path 58" d="M2885.908-262.919c-2.465,0-2.414,0-3.452-2.121-1.975-3.993-4.044-7.936-6.063-11.929-1.28-2.567-2.516-5.178-3.8-7.789a3.384,3.384,0,0,0-.936-1.185c-.095,1.477-.2,2.955-.249,4.439-.1,4.981-.146,10.013-.2,14.986-.051,2.662.249,2.809-3.5,2.955-.051-.541-.146-1.134-.146-1.675-.1-6.509-.146-13.019-.249-19.528-.051-2.07-.051-4.1-.249-6.166a2.271,2.271,0,0,0-.936-1.477c-.739-.446-5.573-1.082-6.114-1.624-3.452-3.35,5.324-2.121,7.343-2.319.739-.1,1.478-.051,2.217-.2a2.068,2.068,0,0,1,2.369,1.236c1.624,2.955,3.35,5.866,4.835,8.872,1.777,3.6,6.407,15.776,6.955,15.337.344-.249.593-3.057.739-5.376" transform="translate(-2731.537 313.892)" fill="#fff"/>
  <path id="Path_59" data-name="Path 59" d="M2417.742-271.346v-23.368c0-.739-.1-1.477-.146-2.267-.051-.644-.344-.885-.987-.885-1.873,0-3.8-.146-5.668-.146a1.163,1.163,0,0,1-1.331-1.082,5.775,5.775,0,0,1,.1-2.216,1.494,1.494,0,0,1,.937-.885,23.063,23.063,0,0,1,3.2-.344c4.242-.1,8.433-.146,12.675-.249a14.229,14.229,0,0,1,1.478,0c1.923.2,2.765,1.28,2.318,3.152a1.872,1.872,0,0,1-1.236,1.134,48.3,48.3,0,0,1-5.376.395c-1.477.051-1.58.1-1.58,1.624,0,6.458,0,12.872.051,19.331,0,1.975.344,3.9.344,5.866.051,2.019-.4,2.414-2.37,2.516C2417.6-268.581,2417.6-268.581,2417.742-271.346Z" transform="translate(-2314.75 319.657)" fill="#fff"/>
  <path id="Path_60" data-name="Path 60" d="M3503.872-185.416a1.829,1.829,0,0,1-2.714.395,1.8,1.8,0,0,1-.687-2.713,1.772,1.772,0,0,1,2.713-.446A1.9,1.9,0,0,1,3503.872-185.416Z" transform="translate(-3325.54 213.811)" fill="#f15a29"/>
  <path id="Path_61" data-name="Path 61" d="M1405.6,279.04a3.667,3.667,0,1,1-5.325-.2A3.7,3.7,0,0,1,1405.6,279.04Z" transform="translate(-1378.291 -218.501)" fill="#f15a29"/>
  <path id="Path_62" data-name="Path 62" d="M1337.214,462.185a2.894,2.894,0,0,1,4.242.1,2.988,2.988,0,0,1-.249,4.483,3.055,3.055,0,1,1-3.993-4.578Z" transform="translate(-1319.671 -388.575)" fill="#d7df23"/>
  <path id="Path_63" data-name="Path 63" d="M3349.737,94.085a2.952,2.952,0,0,1,4.293.1,3.045,3.045,0,0,1-.249,4.535,3.172,3.172,0,0,1-4.586-.051A3.123,3.123,0,0,1,3349.737,94.085Z" transform="translate(-3184.964 -47.398)" fill="#d7df23"/>
  <path id="Path_64" data-name="Path 64" d="M1496.662,413.2a2.417,2.417,0,0,1,3.4-.2,2.466,2.466,0,0,1,.2,3.2,2.257,2.257,0,0,1-3.35.1A2.042,2.042,0,0,1,1496.662,413.2Z" transform="translate(-1468.074 -343.237)" fill="#00a4e7"/>
  <path id="Path_65" data-name="Path 65" d="M3309.7-7.79a1.859,1.859,0,0,1,2.611-.146,1.867,1.867,0,0,1,.146,2.414,1.719,1.719,0,0,1-2.567.051A1.469,1.469,0,0,1,3309.7-7.79Z" transform="translate(-3148.616 46.784)" fill="#00a4e7"/>
  <path id="Path_66" data-name="Path 66" d="M1130.184-203.7c-4.044.841-11.293,2.121-15.337,2.911-1.082.2-2.019,1.624-.936,1.821,2.267.446,9.172.395,11.49.446,3.006.051,3.65.249,3.993.644a19.4,19.4,0,0,1-.395,2.37c-.592-.051-2.216-.051-4.1-.051-2.121,0-7.541-.395-9.618.1a.948.948,0,0,0,.292,1.872,8.032,8.032,0,0,0,1.134-.051,53.844,53.844,0,0,1,10.9,1.924,5.917,5.917,0,0,0,1.675.644h.051c.1,0,.2.051.292.051,1.28.2,1.382-1.777.4-2.318a2.1,2.1,0,0,0,.292-.79C1130.381-195.857,1131.566-203.99,1130.184-203.7Z" transform="translate(-1113.43 227.8)" fill="#fff"/>
  <g id="Group_18" data-name="Group 18" transform="translate(150.582 65.549)">
    <path id="Path_67" data-name="Path 67" d="M3185.785,369.168c-.841-5.624-8.681-8.184-12.126-4.045-1.383,1.675-2.019,5.376-.49,7.343a5.847,5.847,0,0,0,2.516,1.777C3179.722,377.842,3186.627,374.639,3185.785,369.168Zm-2.714,1.675c-1.28,3.255-2.859,3.745-5.427,2.86-.146-.051-1.28-.739-1.433-.79-2.07-2.465-1.58-7.3,1.821-7.541,2.121-.249,3.6-.051,4.929,1.975A4.1,4.1,0,0,1,3183.072,370.843Z" transform="translate(-3172.283 -363.081)" fill="#fff"/>
    <path id="Path_68" data-name="Path 68" d="M3230.773,415.2a3.76,3.76,0,0,0-3.306.541,2.213,2.213,0,0,0-.4,2.713c.688,1.134,1.924,1.872,3.006,1.382.292-.146,1.924-1.382,2.019-2.172A2.371,2.371,0,0,0,3230.773,415.2Zm.051,2.414c-.051.446-.885,1.082-1.083,1.185-.592.293-1.236-.1-1.624-.739a1.246,1.246,0,0,1,.2-1.477,1.912,1.912,0,0,1,1.777-.293A1.167,1.167,0,0,1,3230.824,417.617Z" transform="translate(-3222.792 -411.238)" fill="#fff"/>
  </g>
  <path id="Path_69" data-name="Path 69" d="M2922.639-482.165c-2.714-.739-1.382-13.216-1.039-15.827.2-1.477.688-3.942-1.675-4.93-1.477-.644-4.044-2.121-4.242-3.7s.988-1.477,2.07-.841c1.777.987,2.465,3.35,4.484,2.019.987-.644.541-2.662.2-3.7-.541-1.529-1.726-2.267-3.006-3.152-3.057-2.172-6.312-3.4-9.618-5.032a20.513,20.513,0,0,1-7.694-6.012,19.9,19.9,0,0,1-2.611-4.981c-.687-1.821-.643-3.9.644-4.14s1.872,1.382,2.414,2.765c.395.987.592,2.019,1.083,3.006a14.05,14.05,0,0,0,4.783,4.981c1.821,1.082,4.191,1.185,4.14-1.331a13.365,13.365,0,0,0-1.331-3.942c-.395-1.039-1.434-2.611-1.331-3.65.095-.885.592-1.529,1.58-1.082.841.4,1.477,2.121,1.873,2.911,1.28,2.319,1.082,4.242,1.675,6.656,1.082,4.483,5.822,6.261,9.42,8.433.49-3.4.936-6.6.293-10.159a32.552,32.552,0,0,0-1.28-4.783c-.592-1.872-.936-3.847-.095-4.388.79-.541,2.764,1.433,3.306,3.5.292,1.082,1.236,3.6,2.414,4.14,1.477.644,3.306-1.382,3.942-2.414.49-.739.688-1.726,1.28-2.465.541-.644.885-1.777,1.924-1.477,1.039.344.49,5.624-2.319,7.446-2.07,1.382-3.8,2.216-4.681,4.732-.936,2.611-1.038,5.668-1.58,8.433-.687,3.306-1.529,6.166-.987,9.618,4.637-1.675,8.528-3.993,10.356-8.725a20.307,20.307,0,0,0,1.185-6.9c0-1.529.2-4.293,2.369-2.37,2.07,1.777,1.383,4.681,1.083,6.8a15.913,15.913,0,0,1-3.2,8.038c-1.134,1.382-3.745,3.452-.344,3.942,3.2.49,8.923-.79,10.013.49s-.687,1.28-1.923,1.624-2.217.541-3.306.79c-2.319.49-4.337.051-6.758-.395a56.354,56.354,0,0,0-8.631-.249c-4.535.146-.987,16.076-3.8,16.317h-1.075Z" transform="translate(-2768.464 533.139)" fill="#fff"/>
  <path id="Path_70" data-name="Path 70" d="M3257.184-333.367c1.134-2.86,1.236-.841,4.535-3.35,3.306-2.567.249-4.337-.249-3.057-.49,1.331-2.319,1.872-2.86,1.975-.592.1-.095-2.611-.095-2.611a6.945,6.945,0,0,0,.4-1.28c.2-1.726.885-1.58,2.808-2.465,3.6-1.675,2.764-3.35-.644-1.28-2.318,1.382-1.529-.146-1.433-1.382s-2.955,3.7-2.955,3.7-.593,4.681-.593,4.93-.4,4.783-.4,4.783h1.478v.037Z" transform="translate(-3099.017 360.629)" fill="#fff"/>
  <path id="Path_71" data-name="Path 71" d="M3195.657-397.9s-.292,2.955-.841,2.765a4.034,4.034,0,0,1-2.413-2.516c-.249-1.382-3.547-.249-.885,2.911,2.662,3.2,3.2,1.185,3.7,4.242" transform="translate(-3038.572 408.1)" fill="#fff"/>
  <path id="Path_72" data-name="Path 72" d="M3100.7-464.733s.592,2.267.987,2.019a3.132,3.132,0,0,0,1.529-2.267c0-1.134,2.713-.644,1.039,2.172s-2.318,1.331-2.37,3.745" transform="translate(-2955.354 470.492)" fill="#fff"/>
  <path id="Path_73" data-name="Path 73" d="M2136.072-265.016a1.829,1.829,0,0,1-2.714.395,1.8,1.8,0,0,1-.687-2.713,1.772,1.772,0,0,1,2.713-.446A1.91,1.91,0,0,1,2136.072-265.016Z" transform="translate(-2057.779 287.589)" fill="#f15a29"/>
  <path id="Path_74" data-name="Path 74" d="M1610.172-275.816a1.829,1.829,0,0,1-2.714.395,1.8,1.8,0,0,1-.687-2.713,1.772,1.772,0,0,1,2.714-.446A1.89,1.89,0,0,1,1610.172-275.816Z" transform="translate(-1570.343 297.599)" fill="#26a9e1"/>
  <path id="Path_75" data-name="Path 75" d="M1603.472-17.616a1.828,1.828,0,0,1-2.713.395,1.8,1.8,0,0,1-.688-2.713,1.772,1.772,0,0,1,2.714-.446A1.9,1.9,0,0,1,1603.472-17.616Z" transform="translate(-1564.133 58.284)" fill="#f15a29"/>
  <path id="Path_76" data-name="Path 76" d="M2113.072-11.516a1.829,1.829,0,0,1-2.714.395,1.8,1.8,0,0,1-.687-2.713,1.772,1.772,0,0,1,2.714-.446A1.855,1.855,0,0,1,2113.072-11.516Z" transform="translate(-2036.461 52.63)" fill="#26a9e1"/>
  <path id="Path_77" data-name="Path 77" d="M1832.419-518.441c2.019-.1,2.172-1.134,4.293.249,1.28.841,3.057.293,2.808-1.58-.446-3.108-1.082-7.2-3.547-8.331-3.35-1.529-5.127,2.414-6.063,5.668C1829.018-519.274,1831.037-518.338,1832.419-518.441Z" transform="translate(-1777.304 528.785)" fill="#fff"/>
  <path id="Path_78" data-name="Path 78" d="M1844.546,193a3.515,3.515,0,0,0,3.847-.1c.79-.446,2.216-.541,2.019.541-.344,1.821-1.28,4.681-2.765,5.273-2.019.79-2.809-1.624-3.4-3.547C1844.151,194.727,1843.851,192.606,1844.546,193Z" transform="translate(-1790.66 -139.512)" fill="#fff"/>
  <g id="Group_19" data-name="Group 19" transform="translate(53.534 27.536)">
    <path id="Path_79" data-name="Path 79" d="M1851.06-156.378a4.859,4.859,0,0,0-4.586.79,3.854,3.854,0,0,0-.79,4.191c.841,1.777,2.465,2.911,3.993,2.07.446-.249,2.713-2.121,2.911-3.306C1852.83-154.213,1852.245-155.983,1851.06-156.378Zm-.249,3.65c-.1.592-1.28,1.58-1.478,1.675-.79.395-1.58-.146-2.019-1.039a1.937,1.937,0,0,1,.395-2.121,2.374,2.374,0,0,1,2.319-.395C1850.665-154.411,1850.958-153.518,1850.812-152.729Z" transform="translate(-1845.384 156.645)" fill="#fff"/>
  </g>
  <path id="Path_80" data-name="Path 80" d="M1783.976-227.051c-.687-8.579-11.146-12.521-16.273-6.166-2.07,2.516-3.255,8.235-1.331,11.241a7.822,7.822,0,0,0,3.306,2.713C1774.855-213.835,1784.612-218.721,1783.976-227.051Zm-3.847,2.516c-2.07,4.981-4.242,5.719-7.694,4.388-.2-.051-1.675-1.134-1.872-1.236-2.611-3.8-1.529-11.146,3.152-11.541,2.911-.344,4.93-.051,6.561,3.057C1781.065-228.382,1780.67-225.917,1780.129-224.535Z" transform="translate(-1717.714 258.058)" fill="#fff"/>
  <path id="Path_81" data-name="Path 81" d="M1990.241,80.109a2.215,2.215,0,0,1-1.433-.49,27.141,27.141,0,0,0-4.045-2.713c-.051-.051-.146-.1-.2-.146a3.026,3.026,0,0,1-1.58-1.872,2.642,2.642,0,0,1,.592-2.465,28.336,28.336,0,0,1,5.127-4.535,2.508,2.508,0,0,1,2.414-.249,2.851,2.851,0,0,1,1.675,2.37h0l.146,1.675c.095,1.082.2,2.172.292,3.255a5.07,5.07,0,0,1-1.082,4.242A2.259,2.259,0,0,1,1990.241,80.109Zm-.1-10.057a26.012,26.012,0,0,0-4.586,4.045c-.051.1-.051.1-.051.146.051.1.095.2.146.2l.146.051.249.146a30.656,30.656,0,0,1,4.242,2.809h0c.49-.541.49-1.185.4-2.318-.1-1.082-.2-2.172-.293-3.255l-.146-1.675C1990.241,70.242,1990.19,70.147,1990.146,70.052Z" transform="translate(-1919.298 -23.511)" fill="#fff"/>
  <path id="Path_82" data-name="Path 82" d="M1638.719,89.029a2.66,2.66,0,0,1-2.019-.885,5.121,5.121,0,0,1-1.082-4.293c.1-1.134.2-2.267.344-3.4l.146-1.624a2.971,2.971,0,0,1,1.726-2.414,2.574,2.574,0,0,1,2.465.249h0a31.176,31.176,0,0,1,5.229,4.586,2.6,2.6,0,0,1,.592,2.516,2.861,2.861,0,0,1-1.58,1.872c-.051.051-.146.1-.2.146a28.322,28.322,0,0,0-4.1,2.765A2.662,2.662,0,0,1,1638.719,89.029Zm-.044-2.567Zm.146-7.643a.368.368,0,0,0-.095.249l-.146,1.624c-.095,1.134-.249,2.267-.344,3.4a2.923,2.923,0,0,0,.446,2.37,32.315,32.315,0,0,1,4.337-2.911l.2-.146.2-.1a.212.212,0,0,0,.146-.2.174.174,0,0,0-.051-.146A29.26,29.26,0,0,0,1638.821,78.818Z" transform="translate(-1597.361 -31.641)" fill="#fff"/>
  <path id="Path_83" data-name="Path 83" d="M2013.983-456.517c-.936,0-2.019-.644-3.847-1.821a19.715,19.715,0,0,0-3.152-1.726c-.987-.293-1.134-.2-1.821.688a11.012,11.012,0,0,1-.739.841l-.446.446-.644-.1a6.594,6.594,0,0,1-4.637-3.4l-.2-.446.146-.446a17.878,17.878,0,0,1,1.477-3.306c1.777-3.057,3.547-3.452,4.732-3.255,3.108.541,9.266,7.592,10.356,9.91a2.02,2.02,0,0,1,.1,1.821,1.52,1.52,0,0,1-.987.739C2014.225-456.568,2014.129-456.517,2013.983-456.517Zm-7.8-6.063a4,4,0,0,1,1.433.249,21.369,21.369,0,0,1,3.745,1.975,4.5,4.5,0,0,1,.395.249c-2.07-2.567-5.771-6.312-7.3-6.6-1.082-.2-2.567,2.37-3.35,4.44a4.674,4.674,0,0,0,2.07,1.529c.051-.051.1-.1.1-.146A3.561,3.561,0,0,1,2006.187-462.58Z" transform="translate(-1933.767 473.766)" fill="#fff"/>
  <path id="Path_84" data-name="Path 84" d="M1581.943-458.056l-.446-.49a6.079,6.079,0,0,1-.739-.885c-.739-.885-.841-1.039-1.924-.739-.541.146-1.083.395-1.624.592-2.172.79-4.388,1.58-5.325-.146a2.175,2.175,0,0,1,.1-1.975c1.038-2.216,6.012-7.394,9.069-7.936h0c1.236-.2,3.108.2,4.981,3.4a18.893,18.893,0,0,1,1.529,3.452l.146.49-.2.446a7.15,7.15,0,0,1-4.878,3.6Zm-2.318-4.681a3.738,3.738,0,0,1,3.057,1.777l.146.146a4.434,4.434,0,0,0,2.172-1.58c-.841-2.172-2.414-4.878-3.547-4.681h0c-1.872.344-5.471,3.9-6.8,5.771a16.109,16.109,0,0,0,1.675-.592c.593-.2,1.185-.446,1.777-.592A4.594,4.594,0,0,1,1579.625-462.737Z" transform="translate(-1538.165 474.318)" fill="#fff"/>
  <path id="Path_85" data-name="Path 85" d="M1688.985-365.986c-2.019-1.821-5.032-4.637-8.038-5.719a7.337,7.337,0,0,0-4.293-.987c-1.726.249-3.306,2.121-4.732,3.108a66.857,66.857,0,0,0-5.668,4.242,13.832,13.832,0,0,0-4.586,8.974,15.072,15.072,0,0,0-.2,5.968c1.039,6.114,5.273,10.751,9.42,14.591a1.075,1.075,0,0,0,.592.293c1.872,1.821,4.191,3.255,6.8,2.86,2.319-.395,8.777-7.892,9.961-9.069,3.452-3.35,7.248-7.343,7.5-12.77C1696.035-359.725,1692.283-362.98,1688.985-365.986Zm3.6,13.9c-1.236,4.483-5.324,8.287-8.133,11.044-2.019,1.924-4.293,3.993-7.1,4.045a4.2,4.2,0,0,1-1.331-.2c-1.872-1.134-3.4-3.306-4.878-4.878-3.5-3.745-9.369-9.618-5.822-15.579,1.477-2.465,3.9-4.293,5.822-6.166,1.726-1.675,3.452-3.306,5.178-4.981a3.7,3.7,0,0,1,1.039.051,11.547,11.547,0,0,1,3.745,1.821,38.1,38.1,0,0,1,6.114,5.178c1.924,1.872,4.337,3.942,5.076,6.853A8.04,8.04,0,0,1,1692.583-352.082Z" transform="translate(-1621.194 384.471)" fill="#fff"/>
  <path id="Path_86" data-name="Path 86" d="M3093.443,277.678c-1.821-5.822-6.8-9.859-12.083-13.362-6.012-3.942-12.917-4.681-19.82-3.942-1.726.2-1.58,2.765.146,2.567,1.236-.146,2.465-.2,3.649-.249-1.821,3.547-3.942,7.153-4.878,10.949-.987,3.942-1.924,14.591-.644,14.789,12.873,1.975,26.132.644,33.629-9.515A1.052,1.052,0,0,0,3093.443,277.678Zm-31.508,8.484a39.339,39.339,0,0,1,1.235-11.834c.988-4.045,3.453-7.84,5.23-11.585a23.233,23.233,0,0,1,11.19,3.5c4.732,3.006,9.318,6.707,11.1,11.731C3084.22,286.359,3072.781,287.588,3061.935,286.162Z" transform="translate(-2916.88 -202.1)" fill="#fff"/>
  <g id="Group_20" data-name="Group 20" transform="translate(14.574 17.666)">
    <path id="Path_87" data-name="Path 87" d="M1397.309-190.778a4.757,4.757,0,0,0-4.535.79,3.77,3.77,0,0,0-.79,4.14c.841,1.726,2.414,2.86,3.942,2.07.446-.249,2.713-2.07,2.911-3.255C1399.086-188.657,1398.494-190.383,1397.309-190.778Zm-.1,3.452c-.1.592-1.236,1.529-1.477,1.675-.739.395-1.58-.146-1.975-1.039a1.852,1.852,0,0,1,.4-2.07,2.354,2.354,0,0,1,2.318-.395C1397.06-189,1397.36-188.116,1397.207-187.326Z" transform="translate(-1385.907 198.399)" fill="#fff"/>
    <path id="Path_88" data-name="Path 88" d="M1421.531-240.487c-6.8,5.376-17.846,8.089-32.642,1.185s-17.751-5.676-33.819-4.637c-13.216.841-20.9-5.376-24.158-15.14-1.039-3.152-2.019-7.2-2.911-9.618a2.607,2.607,0,0,0-.395-.739,6.807,6.807,0,0,0,4.44-5.032,21.9,21.9,0,0,0-.051-11.293c-.79-2.955-3.006-4.783-6.561-5.178a49.8,49.8,0,0,0-8.089-.644c-4.535.146-4.1,1.082-4.1,4.93,0,1.236.1,2.465.1,3.7,0,5.324-.344,11.834-.395,17.158-.1,4.535-.2,9.025-.249,13.56a2.02,2.02,0,0,0,.987,2.019c2.019.987,3.547.1,3.547-2.121v-.49c.051-4.637.1-9.223.146-13.853,0-.936.249-1.58,1.28-1.624,1.434-.051,2.809-.1,4.242-.1.2,0,.541.395.593.644.541,1.624,1.185,3.255,1.58,4.878,1.58,6.063,5.324,13.165,7.446,15.535s7.541,7.3,19.821,6.8c18.636-.739,21.1-2.765,36.73,5.522,14.84,7.841,25.489,3.745,32.642-1.529,7.248-5.324,12.675-11.688,24.063-12.083v-2.567C1434.4-251.239,1428.632-246.061,1421.531-240.487Zm-101.868-33.527c-.2-.051-1.675-1.134-1.821-1.236-2.611-3.745-1.478-10.993,3.108-11.388,2.86-.344,4.834-.051,6.458,3.006.79,1.477.446,3.942-.146,5.325C1325.236-273.422,1323.115-272.683,1319.663-274.014Z" transform="translate(-1312.7 291.597)" fill="#fff"/>
  </g>
</svg>
