<svg xmlns="http://www.w3.org/2000/svg" width="215.581" height="122.505" viewBox="0 0 215.581 122.505">
  <g id="Group_1630" data-name="Group 1630" transform="translate(-61.282 -45.485)">
    <g id="Group_1623" data-name="Group 1623" transform="translate(88.883 45.485)">
      <path id="Path_3847" data-name="Path 3847" d="M405.208,277.44a2.452,2.452,0,0,0-.48-.545.654.654,0,0,0-.764-.2.748.748,0,0,0-.407.8,2.861,2.861,0,0,0,.343,1.214l.018.033h2C405.687,278.3,405.454,277.868,405.208,277.44Z" transform="translate(-320.933 -202.197)" fill="#fff"/>
      <path id="Path_3848" data-name="Path 3848" d="M632.008,266.885a2.069,2.069,0,0,0-.466-1.278.5.5,0,0,0-.712-.146,1.028,1.028,0,0,0-.532.72,11.711,11.711,0,0,0-.262,1.63c-.081,1.1-.113,2.2-.117,3.295h1.528c.125-.589.25-1.178.368-1.769A11.3,11.3,0,0,0,632.008,266.885Z" transform="translate(-474.4 -194.562)" fill="#fff"/>
      <path id="Path_3849" data-name="Path 3849" d="M438.195,267.028a2.954,2.954,0,0,0-.227-1.232,6.5,6.5,0,0,0-.287-.587,1.343,1.343,0,0,1-.013-1.453,2.478,2.478,0,0,0,.337-1.329,4.224,4.224,0,0,0-1.066-2.738,1.111,1.111,0,0,0-.331-.258.433.433,0,0,0-.683.341,1.363,1.363,0,0,0,.112.828c.188.421.388.838.613,1.24a2.842,2.842,0,0,1,.359,1.13A1.16,1.16,0,0,1,436,264.4a2.127,2.127,0,0,1-.688.035,4.646,4.646,0,0,1-2.718-1.148,7.843,7.843,0,0,1-1.76-2.172,6.108,6.108,0,0,0-.5-.726.435.435,0,0,0-.465-.206.487.487,0,0,0-.382.438,3.177,3.177,0,0,0,.027.8,4.362,4.362,0,0,0,.556,1.345,4.831,4.831,0,0,0,3.4,2.474,18.277,18.277,0,0,0,1.873.21,1.251,1.251,0,0,1,1.335,1.181,3.7,3.7,0,0,1,.027.4Z" transform="translate(-338.503 -190.484)" fill="#fff"/>
      <path id="Path_3850" data-name="Path 3850" d="M167.356,269.938c.552-.257,1.1-.514,1.65-.784a4.855,4.855,0,0,0,1.666-1.084,1.646,1.646,0,0,0,.259-.377c.117-.263-.008-.457-.3-.477a1.429,1.429,0,0,0-.876.249c-.655.426-1.293.878-1.935,1.323-.4.278-.8.561-1.193.845a.612.612,0,0,1-.965-.468,9.271,9.271,0,0,1,.056-2c.07-.6.167-1.2.215-1.8a5.494,5.494,0,0,0-.043-1,1.8,1.8,0,0,0-.149-.431c-.154-.4-.491-.349-.732-.109a1.907,1.907,0,0,0-.471.913,5.692,5.692,0,0,0,.008,2.294c.078.507.179,1.011.273,1.515a3.369,3.369,0,0,1,0,1.378Z" transform="translate(-158.809 -193.394)" fill="#fff"/>
      <path id="Path_3851" data-name="Path 3851" d="M333.02,211.584a11.4,11.4,0,0,0-1.936-2.231c-.222-.194-.426-.408-.632-.619a1.071,1.071,0,0,1-.284-1.132c.042-.135.079-.272.133-.4a3.386,3.386,0,0,0-.242-3.07,5.906,5.906,0,0,0-1.53-1.763,8.019,8.019,0,0,0-2.628-1.418,5.094,5.094,0,0,0-2.093-.193,2.419,2.419,0,0,0-.994.387.6.6,0,0,0-.028,1.087,2.763,2.763,0,0,0,1.3.454,7.905,7.905,0,0,1,2.99.945,4.312,4.312,0,0,1,1.816,1.78,2.6,2.6,0,0,1,.3,1.6,1.8,1.8,0,0,1-1.365,1.548,4.5,4.5,0,0,1-1.907.108,8.031,8.031,0,0,1-4.242-1.863,14.824,14.824,0,0,1-2.219-2.394,35.2,35.2,0,0,1-3.1-5,37.67,37.67,0,0,1-2.011-4.453c-.208-.565-.4-1.137-.59-1.709a2.277,2.277,0,0,1-.1-.489,1.8,1.8,0,0,1,1.045-2.1,4.455,4.455,0,0,0,1.336-1.021,3.319,3.319,0,0,0,.794-2.641,3.853,3.853,0,0,0-.395-1.359,3.727,3.727,0,0,0-.333-.514.292.292,0,0,0-.492-.023,1.012,1.012,0,0,0-.2.407,3.7,3.7,0,0,0-.042,1.376,3.492,3.492,0,0,1-.448,2.3,2.233,2.233,0,0,1-.435.534,1.565,1.565,0,0,1-2.081-.042,7.115,7.115,0,0,1-1.013-.993,13.662,13.662,0,0,1-1.831-3.023c-.512-1.091-.991-2.2-1.5-3.29a11.8,11.8,0,0,0-1.492-2.641,4.724,4.724,0,0,0-.82-.8c-.617-.45-1.088.049-1.061.58a3.95,3.95,0,0,0,.293,1.268A26.247,26.247,0,0,0,306.8,184.2c.679,1.166,1.5,2.239,2.248,3.356a10.948,10.948,0,0,1,1.374,2.311,2.065,2.065,0,0,1,.069,1.5.908.908,0,0,1-.828.64,2.92,2.92,0,0,1-1.623-.4,6.8,6.8,0,0,1-2.527-2.317c-.414-.633-.8-1.287-1.184-1.936a3.006,3.006,0,0,0-.86-1.02.859.859,0,0,0-.274-.13.411.411,0,0,0-.55.335,1.944,1.944,0,0,0,.008.76,9.15,9.15,0,0,0,1.436,3.046,8.831,8.831,0,0,0,1.692,1.83,4.216,4.216,0,0,0,4.284.837,1.186,1.186,0,0,1,1.564.7c.423,1.17.878,2.329,1.324,3.491.345.9.665,1.806,1.05,2.686a33.289,33.289,0,0,0,2.348,4.589,19.082,19.082,0,0,0,2.528,3.241,10.821,10.821,0,0,0,4.216,2.824c.655.217,1.344.332,2.016.5a10.47,10.47,0,0,1,3.342,1.341h5.062C333.359,212.108,333.2,211.844,333.02,211.584Z" transform="translate(-252.497 -135.831)" fill="#fff"/>
      <path id="Path_3852" data-name="Path 3852" d="M469.936,280.327c-.373-.3-.732-.176-.892.281a2.42,2.42,0,0,0-.119.526h1.594c-.049-.091-.1-.183-.151-.273A1.983,1.983,0,0,0,469.936,280.327Z" transform="translate(-365.252 -204.589)" fill="#fff"/>
      <path id="Path_3853" data-name="Path 3853" d="M466.07,65.277a4.467,4.467,0,0,0,3.46,1.307,7.913,7.913,0,0,0,1.213-.194,1.446,1.446,0,0,1,1.318.365,2.787,2.787,0,0,1,.5.534q1.265,1.84,2.507,3.7.843,1.266,1.641,2.561A14.41,14.41,0,0,1,477.495,75a1.651,1.651,0,0,1,.192.968.574.574,0,0,1-.631.542,3.714,3.714,0,0,1-.941-.167,6.172,6.172,0,0,1-2.262-1.563c-.673-.669-1.307-1.377-1.965-2.062a5.177,5.177,0,0,0-1.322-1.045c-.227-.118-.479-.254-.718-.054s-.154.477-.1.722a3.553,3.553,0,0,0,.583,1.292,10.461,10.461,0,0,0,4.63,3.575,3.68,3.68,0,0,0,2.742.084.723.723,0,0,1,.763.113,2.61,2.61,0,0,1,.434.43,21.345,21.345,0,0,1,2.266,3.884,5.477,5.477,0,0,1,.481,2.4,2.532,2.532,0,0,1-.178.817.5.5,0,0,1-.648.341,1.964,1.964,0,0,1-.675-.26,6.061,6.061,0,0,1-1.023-.808c-.62-.648-1.19-1.344-1.8-2.006-.406-.444-.824-.88-1.268-1.286a2.16,2.16,0,0,0-1.117-.573c-.53-.083-.819.243-.671.759a1.229,1.229,0,0,0,.075.177,4.339,4.339,0,0,0,1.247,1.592c1.084.862,2.175,1.717,3.254,2.585a3.825,3.825,0,0,1,1.141,1.335.771.771,0,0,1-.631,1.187,3.91,3.91,0,0,1-2.15-.252,10.387,10.387,0,0,1-2.171-1.233c-.619-.436-1.228-.885-1.847-1.321a1.86,1.86,0,0,0-.912-.378c-.564-.049-.85.3-.6.81a3.453,3.453,0,0,0,.662.933,9.493,9.493,0,0,0,3.035,2,6.741,6.741,0,0,0,3.077.559c.422-.03.842-.094,1.265-.1a1.4,1.4,0,0,1,1.374.815,3.423,3.423,0,0,1,.3.909,6.308,6.308,0,0,1-.056,2.335,5.177,5.177,0,0,1-.425,1.23,1.451,1.451,0,0,1-1.32.916,2.437,2.437,0,0,1-.753-.125,5.49,5.49,0,0,1-1.567-.809c-.726-.529-1.446-1.065-2.173-1.591a4.01,4.01,0,0,0-1.691-.8.8.8,0,0,0-.838.26.705.705,0,0,0,.027.766,3.079,3.079,0,0,0,.982,1.169,9.172,9.172,0,0,0,4.663,1.853c.421.043.845.043,1.268.068.6.035.763.172.917.742.01.037.018.075.026.113a12.6,12.6,0,0,0,.967,2.953c.264.57.536,1.138.777,1.718a7.092,7.092,0,0,1,.621,2.8,3.481,3.481,0,0,1-1.3,2.723,4.353,4.353,0,0,1-1.9.886,4.975,4.975,0,0,1-5.146-1.629,9.356,9.356,0,0,1-1.182-1.659,3.529,3.529,0,0,0-.836-1.095.777.777,0,0,0-.814-.2c-.317.129-.385.424-.452.714a1.069,1.069,0,0,0-.01.23,2.872,2.872,0,0,0,.287,1.266,8.575,8.575,0,0,0,2.3,3,5.592,5.592,0,0,0,3.867,1.361,6.659,6.659,0,0,0,2.959-.878c.36-.2.706-.421,1.068-.615a1.756,1.756,0,0,1,2.176.2,14.275,14.275,0,0,1,1.281,1.376,10.553,10.553,0,0,0,1.5,1.486c.572.455,1.141.916,1.688,1.4a14.668,14.668,0,0,1,2.882,3.685q1.04,1.778,1.994,3.606a14.939,14.939,0,0,1,1.153,2.6,3.636,3.636,0,0,1-.294,3.117,8.009,8.009,0,0,1-1.069,1.4c-.785.791-1.615,1.541-2.451,2.279a4.77,4.77,0,0,1-1.709,1.019,1.439,1.439,0,0,1-1.981-.97,3.315,3.315,0,0,1-.133-.831,10.529,10.529,0,0,1,.519-3.254c.15-.49.328-.973.459-1.468a1.62,1.62,0,0,0-.017-1.1.492.492,0,0,0-.68-.309,2.208,2.208,0,0,0-1.03.832,6.468,6.468,0,0,0-1.037,2.507,6.352,6.352,0,0,0-.184,1.832,3.858,3.858,0,0,0,.993,2.564,7.959,7.959,0,0,0,.95.837,1.347,1.347,0,0,1,.623,1.172c0,.052-.006.1-.009.156h5.665q.341-.36.705-.7a6.017,6.017,0,0,1,1.443-1.018,3.352,3.352,0,0,1,1.74-.405A1.141,1.141,0,0,1,498,131.714a3.042,3.042,0,0,1-.195.836h5.227q-.57-.681-1.127-1.372a13.776,13.776,0,0,1-1.632-2.376,6.9,6.9,0,0,1-.725-2.021,3.991,3.991,0,0,1,1.622-4.065,5.593,5.593,0,0,1,4.712-.978,3.84,3.84,0,0,1,2.7,1.933c.166.3.3.622.447.936a10.529,10.529,0,0,1,.775,2.454c.172.918.271,1.85.388,2.778.053.42.072.843.1,1.266a1.884,1.884,0,0,0,.363,1,.416.416,0,0,0,.6.135,2.469,2.469,0,0,0,.582-.545,2.309,2.309,0,0,0,.4-1.306,6.7,6.7,0,0,0-.2-1.868,13.489,13.489,0,0,0-1.08-2.835,18.521,18.521,0,0,0-2.117-3.388,2.831,2.831,0,0,1-.254-.385,1.245,1.245,0,0,1,.3-1.562,1.759,1.759,0,0,1,1.045-.327,4.409,4.409,0,0,1,2.183.536c.712.38,1.4.8,2.1,1.217,1.033.622,2.054,1.265,3.09,1.882a8.729,8.729,0,0,0,1.924.874,2.324,2.324,0,0,0,1.4.075.675.675,0,0,0,.475-1.017,3.182,3.182,0,0,0-.486-.732,4.29,4.29,0,0,0-1.264-.931,21.429,21.429,0,0,0-3.307-1.359c-.959-.327-1.923-.641-2.875-.987a6.309,6.309,0,0,1-1.182-.554,1.959,1.959,0,0,1-1.049-2.055,4.407,4.407,0,0,1,.9-2.094,9.739,9.739,0,0,1,2.688-2.389,1.512,1.512,0,0,1,1.913.048,2.428,2.428,0,0,0,.8.368,1.673,1.673,0,0,0,1.1,0,.608.608,0,0,0,.235-1.069,1.465,1.465,0,0,0-.926-.422c-.305-.038-.616-.036-.92-.081a1.168,1.168,0,0,1-1.136-1.148c-.009-.064-.017-.128-.02-.192q-.062-1.191-.121-2.382a8.2,8.2,0,0,0-.494-2.791,3.961,3.961,0,0,0-1.05-1.546.693.693,0,0,0-1.213.41,1.1,1.1,0,0,0-.025.38,8.626,8.626,0,0,0,.307,1.187c.274.733.61,1.442.883,2.175a6.867,6.867,0,0,1,.46,2.291,2.569,2.569,0,0,1-1.208,2.235c-.5.358-1.023.687-1.514,1.059a6.59,6.59,0,0,0-1.689,1.875,9.162,9.162,0,0,0-.813,1.907,6.792,6.792,0,0,1-.469,1.134,1.254,1.254,0,0,1-1.147.783,3.894,3.894,0,0,1-2.322-.692,1.517,1.517,0,0,1-.616-1.032,4.929,4.929,0,0,1-.033-1c.076-.8.184-1.606.285-2.408.17-1.349.329-2.7.522-4.045a4.306,4.306,0,0,1,2.343-3.369,8.384,8.384,0,0,0,2.067-1.525,6.42,6.42,0,0,0,1.564-2.523,7.3,7.3,0,0,0,.258-3.119,8.644,8.644,0,0,0-1.527-4.182,1.024,1.024,0,0,0-.206-.224.6.6,0,0,0-1.041.33,2.173,2.173,0,0,0-.076.833,9.508,9.508,0,0,0,.275,1.277,11.145,11.145,0,0,1,.459,4.067,5.375,5.375,0,0,1-1.9,3.783,6.507,6.507,0,0,1-1.081.729,1.272,1.272,0,0,1-1.773-.469c-.1-.193-.233-.37-.328-.565-.336-.693-.641-1.4-1-2.084a26.612,26.612,0,0,0-2.576-3.921c-.344-.447-.692-.894-1-1.368a1.338,1.338,0,0,1,.011-1.527c.166-.256.389-.474.579-.716a13.622,13.622,0,0,0,1-1.309,9.023,9.023,0,0,0,1.249-4.4,11.239,11.239,0,0,0-.651-4.5,2.935,2.935,0,0,0-.72-1.127c-.549-.513-1.1-.338-1.27.4-.012.05-.019.1-.027.152a4.8,4.8,0,0,0,.189,1.938,14.741,14.741,0,0,1,.453,5.263,5.007,5.007,0,0,1-1.053,2.763,1.175,1.175,0,0,1-1.31.406,2.137,2.137,0,0,1-.522-.238,5.16,5.16,0,0,1-1.425-1.493,11.384,11.384,0,0,1-1.275-2.238A7.287,7.287,0,0,1,494.5,88.9a21.281,21.281,0,0,1-.155-2.3,8.6,8.6,0,0,0-.244-2.212,3.291,3.291,0,0,0-.838-1.407c-.416-.4-.449-.477-.238-1.044a2.728,2.728,0,0,0,.164-1.248,7.328,7.328,0,0,0-.725-2.464,16.014,16.014,0,0,0-2.722-4.086A3.837,3.837,0,0,0,488.6,73.3a.571.571,0,0,0-.621-.015.526.526,0,0,0-.083.611,6.556,6.556,0,0,0,.495,1.163c.338.558.728,1.087,1.121,1.61.539.718,1.12,1.405,1.645,2.133a8.131,8.131,0,0,1,.7,1.237,2.866,2.866,0,0,1,.3,1.377.839.839,0,0,1-.969.891,2.758,2.758,0,0,1-1.1-.334,8.917,8.917,0,0,1-2.083-1.5c-.5-.474-.983-.975-1.484-1.453a2.292,2.292,0,0,0-.964-.678c-.2-.053-.417-.114-.58.06a.619.619,0,0,0-.073.621.632.632,0,0,0,.043.107,6.484,6.484,0,0,0,1.979,2.467,11.383,11.383,0,0,0,4.388,1.975,4.906,4.906,0,0,1,.9.322.992.992,0,0,1,.59.671c.07.273.17.539.225.815a3.854,3.854,0,0,1,.017,1.868,1.992,1.992,0,0,1-.272.586.405.405,0,0,1-.662.055,1.37,1.37,0,0,1-.283-.362c-.154-.3-.282-.6-.425-.906a12.569,12.569,0,0,0-.573-1.173,2.293,2.293,0,0,0-.58-.6c-.235-.179-.44-.11-.561.157a.907.907,0,0,0-.092.442,2.386,2.386,0,0,0,.163.706,7.437,7.437,0,0,0,2.259,2.83,2.842,2.842,0,0,1,1.013,1.326,11.2,11.2,0,0,0,1,2.121c.307.534.66,1.041.976,1.57.467.782.919,1.572,1.376,2.359a1.484,1.484,0,0,1,.19.89.608.608,0,0,1-.423.584c-.267.09-.533.186-.805.261a12.12,12.12,0,0,0-4.188,2.056,10.96,10.96,0,0,0-2.88,3.266,2.6,2.6,0,0,0-.366,1.166c-.033.6.385.918.92.677a2.716,2.716,0,0,0,.86-.565c.491-.522.943-1.083,1.38-1.652a15.652,15.652,0,0,1,4.456-3.913,4.8,4.8,0,0,1,.869-.408,1.918,1.918,0,0,1,1.952.335,6.273,6.273,0,0,1,1.254,1.4,17.568,17.568,0,0,1,1.79,3.4,14.516,14.516,0,0,1,1.064,5.135,23.743,23.743,0,0,1-.284,5.217,8.451,8.451,0,0,1-1.87,4.122,4.08,4.08,0,0,1-1.405,1.114,1.877,1.877,0,0,1-2.06-.221,4.249,4.249,0,0,1-.959-1.146c-.848-1.317-1.667-2.652-2.5-3.979-.082-.131-.167-.259-.244-.393-.343-.6-.7-1.194-1.019-1.81a2.507,2.507,0,0,1,.218-2.663,8.352,8.352,0,0,1,2.417-2.287,12.981,12.981,0,0,1,3.108-1.6,2.51,2.51,0,0,0,.777-.484.567.567,0,0,0-.143-1,1.388,1.388,0,0,0-.559-.108,4.532,4.532,0,0,0-1.9.44,8.393,8.393,0,0,0-3.339,2.774c-.466.643-.9,1.314-1.313,1.991a1.57,1.57,0,0,1-1.437.8c-.1,0-.205-.007-.307-.016a3.782,3.782,0,0,1-2.012-.89,5.592,5.592,0,0,1-1.975-2.693,10.371,10.371,0,0,1-.458-3.382,2.9,2.9,0,0,1,.621-1.789,5.088,5.088,0,0,1,1.3-1.132,7.089,7.089,0,0,0,3.1-3.984,9.823,9.823,0,0,0,.375-3.769,8.78,8.78,0,0,0-.432-2.379,1.413,1.413,0,0,0-.481-.681.469.469,0,0,0-.734.1,1.361,1.361,0,0,0-.228.441,4.036,4.036,0,0,0-.175.942c-.014,1.077.005,2.155.017,3.232a6.93,6.93,0,0,1-.483,2.94,4.414,4.414,0,0,1-2.469,2.457,2.117,2.117,0,0,1-2.751-1.087,4.436,4.436,0,0,1-.222-.7,6.3,6.3,0,0,1-.042-2.3,11.653,11.653,0,0,1,.767-3.21,2.939,2.939,0,0,1,1.2-1.5,4.775,4.775,0,0,0,1.388-1.2,4.606,4.606,0,0,0,.917-3.838,1.087,1.087,0,0,0-.161-.386.331.331,0,0,0-.576-.051,1.862,1.862,0,0,0-.358.581,7.854,7.854,0,0,0-.283,1.117,5.718,5.718,0,0,1-.741,2.092,4.6,4.6,0,0,1-.7.859.792.792,0,0,1-1.287-.122,4.372,4.372,0,0,1-.364-.717,2.254,2.254,0,0,1-.058-1.832c.081-.216.175-.428.272-.637a5.019,5.019,0,0,0,.346-3.563c-.166-.591-.394-1.165-.594-1.747-.1-.278-.208-.552-.279-.837a.612.612,0,0,1,.2-.628,4.254,4.254,0,0,0,1.374-3.23,7.4,7.4,0,0,0-.579-2.924,6.981,6.981,0,0,0-1.059-1.955,1.707,1.707,0,0,0-.591-.468c-.341-.15-.579,0-.642.371a1.384,1.384,0,0,0,.138.9c.29.558.57,1.121.861,1.679a7.222,7.222,0,0,1,.7,1.908,4.382,4.382,0,0,1-.376,2.81c-.248.524-.65.555-1.022.113a.871.871,0,0,1-.089-.126,17.842,17.842,0,0,0-1.538-2.162,3.426,3.426,0,0,1-.4-.7c-.32-.7-.6-1.418-.94-2.108a31.653,31.653,0,0,0-2.162-3.365,3.178,3.178,0,0,1-.384-.7.616.616,0,0,1,.352-.862,1.761,1.761,0,0,0,.857-1.09,4.75,4.75,0,0,0-.352-3.4,1.344,1.344,0,0,0-.332-.418c-.22-.2-.4-.156-.5.127a1.578,1.578,0,0,0-.1.638c.032.394.114.785.184,1.175.079.441.192.878.246,1.322a2.114,2.114,0,0,1-.338,1.321.5.5,0,0,1-.593.247,1.233,1.233,0,0,1-.756-.5c-.219-.3-.409-.622-.614-.932a5.7,5.7,0,0,0-1.052-1.318,1.481,1.481,0,0,1-.374-.614,4.422,4.422,0,0,1-.209-.859,6.347,6.347,0,0,0-1.1-2.722,2.3,2.3,0,0,0-.369-.387c-.18-.156-.4-.291-.629-.156s-.209.4-.145.625a6.131,6.131,0,0,0,.4,1.159c.321.612.706,1.191,1.064,1.784a2.527,2.527,0,0,1,.173.3.567.567,0,0,1-.425.845,3.566,3.566,0,0,1-2.53-.4,6.664,6.664,0,0,1-2.742-2.985,7.652,7.652,0,0,0-.4-.651.457.457,0,0,0-.494-.223c-.2.038-.228.225-.29.375a.465.465,0,0,0-.042.224,5.865,5.865,0,0,0,.155.981A5.015,5.015,0,0,0,466.07,65.277Z" transform="translate(-362.221 -56.006)" fill="#fff"/>
      <path id="Path_3854" data-name="Path 3854" d="M170.741,149.252a5.448,5.448,0,0,0,1,0,6.631,6.631,0,0,0,2.3-.74c.643-.316,1.241-.722,1.864-1.08a1.178,1.178,0,0,1,1.561.023c.236.176.47.356.706.533a.763.763,0,0,1,.038,1.207,9.787,9.787,0,0,1-.759.708c-.913.748-1.856,1.461-2.746,2.235a9.874,9.874,0,0,0-1.2,1.343,1.578,1.578,0,0,0-.262.673c-.058.3.083.423.391.4a2.371,2.371,0,0,0,1.294-.628,18.026,18.026,0,0,0,2.768-2.879c.423-.517.834-1.042,1.251-1.562.064-.08.131-.158.2-.234a1.192,1.192,0,0,1,1.561-.3,5.614,5.614,0,0,1,1.3.879,31.1,31.1,0,0,0,3.215,2.509c.371.252.748.5,1.136.724a.526.526,0,0,1,.068.957,3.787,3.787,0,0,1-.9.508c-.975.315-1.959.615-2.954.858-1.321.323-2.656.583-3.984.877a4.472,4.472,0,0,0-1.82.794c-.2.156-.388.33-.345.6a.724.724,0,0,0,.549.584,2.844,2.844,0,0,0,1.217.1,13.326,13.326,0,0,0,2.767-.651c.909-.311,1.8-.671,2.688-1.043a10.283,10.283,0,0,0,2.7-1.612c.108-.091.222-.175.332-.263a1.535,1.535,0,0,1,1.491-.247,4.241,4.241,0,0,1,.543.194,19.252,19.252,0,0,1,2.644,1.332,4.205,4.205,0,0,1,1.485,1.477,3.418,3.418,0,0,1,.094,3.288,3.557,3.557,0,0,1-3.543,2.114,6.643,6.643,0,0,1-3.193-1.01,10.986,10.986,0,0,1-1.76-1.3,4.272,4.272,0,0,0-.723-.5.663.663,0,0,0-.731-.029.553.553,0,0,0-.152.669,3.516,3.516,0,0,0,.424.937,6.378,6.378,0,0,0,2.871,2.246,6.083,6.083,0,0,0,4.617-.042,3.541,3.541,0,0,1,.66-.2,1.133,1.133,0,0,1,1.29.545,7.565,7.565,0,0,1,.571,1.257,27.7,27.7,0,0,1,1.05,5.04c.221,1.445.444,2.893.74,4.323a11.515,11.515,0,0,0,1.5,3.907h18.49c.066-.044.133-.084.2-.129.561-.385,1.134-.751,1.709-1.115a3.606,3.606,0,0,1,2.487-.443,7.459,7.459,0,0,1,2.95,1.165c.266.165.522.341.774.522h5.576a21.148,21.148,0,0,0-2.126-1.832,35.2,35.2,0,0,0-5.711-3.552c-.437-.215-.889-.4-1.345-.573a1.031,1.031,0,0,1-.728-.844c-.24-1.193-.5-2.385-.827-3.558a22.54,22.54,0,0,0-.859-2.389,44.411,44.411,0,0,0-3.049-6.087c-.668-1.125-1.355-2.243-2.1-3.319a33.761,33.761,0,0,0-3.066-3.9,3.44,3.44,0,0,1-.766-1.19,1.57,1.57,0,0,1,.064-1.271,7.217,7.217,0,0,1,1.1-1.572c.743-.832,1.523-1.631,2.247-2.479a4.154,4.154,0,0,0,.99-1.89,1.19,1.19,0,0,0,.023-.418.452.452,0,0,0-.7-.38,3.3,3.3,0,0,0-1.065.746,9.124,9.124,0,0,0-1.687,2.557c-.341.732-.716,1.448-1.086,2.166a2.606,2.606,0,0,1-.325.476.809.809,0,0,1-1.164.157,5.209,5.209,0,0,1-1.136-1.087c-.664-.816-1.3-1.653-1.99-2.45a23.364,23.364,0,0,0-1.7-1.783,7.324,7.324,0,0,1-1.577-2.164c-.422-.865-.821-1.744-1.294-2.58a16.724,16.724,0,0,0-1.132-1.6c-.235-.321-.484-.631-.726-.947a1.2,1.2,0,0,1-.088-1.363,12.7,12.7,0,0,0,1.316-4.561,3.292,3.292,0,0,0-.193-1.476c-.078-.192-.172-.415-.393-.434-.255-.021-.4.183-.515.4a4.206,4.206,0,0,0-.416,1.592c-.051.574-.035,1.154-.073,1.73-.042.639-.076,1.282-.18,1.912-.111.673-.495.794-.972.312a7.556,7.556,0,0,1-.8-1.031c-.6-.864-1.179-1.744-1.784-2.6a3.459,3.459,0,0,0-1.139-1.019c-.212-.119-.467-.236-.684-.054a.513.513,0,0,0-.048.645,6.483,6.483,0,0,0,.65,1.215c.628.811,1.31,1.579,1.973,2.362a11.469,11.469,0,0,1,1.373,1.853.962.962,0,0,1-.5,1.5,9.688,9.688,0,0,1-1.668.449,25,25,0,0,1-3.6.352c-.6.023-1.2.08-1.8.158a2.045,2.045,0,0,0-.679.253.362.362,0,0,0-.07.653,2.428,2.428,0,0,0,1.52.574,9.857,9.857,0,0,0,3.82-.558,30.291,30.291,0,0,0,2.806-1.165c1.1-.5,1.28-.381,1.938.386a8.361,8.361,0,0,1,1.588,2.528,4.463,4.463,0,0,1,.4,1.314,1.114,1.114,0,0,1-.5,1.054,3.674,3.674,0,0,1-1.3.46c-1.443.361-2.9.685-4.3,1.176a12.421,12.421,0,0,0-3.646,1.876,3.556,3.556,0,0,0-.9.937,1.552,1.552,0,0,0-.18.379c-.109.405.092.684.507.642a3.889,3.889,0,0,0,1.076-.259,8.962,8.962,0,0,0,1.148-.626,33.966,33.966,0,0,1,4.159-2.177c.708-.3,1.388-.668,2.095-.973a15.125,15.125,0,0,1,1.729-.641,1.419,1.419,0,0,1,1.318.234c.281.221.568.439.825.687a28.091,28.091,0,0,1,3.018,3.232,6.923,6.923,0,0,1,1.275,2.4,2.206,2.206,0,0,1-.252,1.879,8.844,8.844,0,0,1-2.686,2.555.76.76,0,0,1-.872-.017,2.343,2.343,0,0,1-.636-.6c-.606-.907-1.175-1.838-1.769-2.753-.4-.624-.812-1.246-1.247-1.849a1.873,1.873,0,0,0-.9-.694c-.385-.134-.638.045-.622.456a1.5,1.5,0,0,0,.106.523,8.1,8.1,0,0,0,1.494,2.409c.7.748,1.44,1.462,2.16,2.193a5.563,5.563,0,0,1,.492.54.6.6,0,0,1-.246,1.028,4.777,4.777,0,0,1-.993.29c-.566.112-1.143.17-1.707.292a3.035,3.035,0,0,0-.811.33.575.575,0,0,0,.231,1.109,2.71,2.71,0,0,0,.8,0,10.325,10.325,0,0,0,3.742-1.561,20.271,20.271,0,0,0,2.921-2.256c.242-.229.49-.452.726-.688a1.551,1.551,0,0,1,2.239-.072,5.786,5.786,0,0,1,1.026,1.291c.952,1.477,1.973,2.911,2.8,4.47q1.524,2.878,2.8,5.873a27.336,27.336,0,0,1,1.315,3.614,6.782,6.782,0,0,1-.058,4.2,5.921,5.921,0,0,1-1.738,2.41,7.357,7.357,0,0,1-1.743,1.189,8.517,8.517,0,0,1-3.409.862,3.91,3.91,0,0,1-1.867-.386,2.306,2.306,0,0,1-1.4-2.016c-.08-1.511-.14-3.025-.158-4.538a8.52,8.52,0,0,1,.2-1.715,2.018,2.018,0,0,1,1.3-1.474,2.127,2.127,0,0,1,2.513.49,8.384,8.384,0,0,1,.986,1.226,11.666,11.666,0,0,1,1.4,2.778,2.524,2.524,0,0,0,.22.448.616.616,0,0,0,.594.356.608.608,0,0,0,.522-.454,2.146,2.146,0,0,0,.028-1.362,6.12,6.12,0,0,0-3.257-3.894c-.339-.181-.691-.337-1.037-.506-.1-.051-.208-.1-.308-.16-.47-.273-.567-.524-.352-1.021s.474-.94.669-1.428a4.636,4.636,0,0,0-.006-3.529,5.753,5.753,0,0,0-.486-.956,1.772,1.772,0,0,0-.48-.488.4.4,0,0,0-.657.248,1.726,1.726,0,0,0-.008.721c.125.576.292,1.143.444,1.713a4.842,4.842,0,0,1,.119,2.4,3.093,3.093,0,0,1-1.409,2.074,2.55,2.55,0,0,1-2.772-.057,3.453,3.453,0,0,1-1.363-1.627,24.043,24.043,0,0,1-.909-2.9,5.246,5.246,0,0,0-.841-1.8c-.048-.061-.092-.124-.146-.179-.36-.375-.8-.275-.915.237a3.561,3.561,0,0,0-.062.992,5.535,5.535,0,0,0,.449,1.707,12.325,12.325,0,0,0,1.047,2.056,7.466,7.466,0,0,0,1.934,2.014c.321.234.653.454.986.67a.777.777,0,0,1,.379.819,4.205,4.205,0,0,1-.067.418,8.141,8.141,0,0,0-.19,2.294c.039.948.1,1.9.1,2.845a4.866,4.866,0,0,1-.727,2.676,2.381,2.381,0,0,1-1.084.946,1.908,1.908,0,0,1-1.928-.272,4.37,4.37,0,0,1-1.453-1.951,16.133,16.133,0,0,1-.983-3.474c-.3-1.562-.556-3.133-.9-4.686-.2-.924-.528-1.821-.809-2.727-.205-.661-.448-1.312-.638-1.977a6.238,6.238,0,0,1-.17-2.475,8.409,8.409,0,0,0-.075-2.835,3.461,3.461,0,0,0-.964-1.763c-.327-.319-.345-.5-.072-.859a2.583,2.583,0,0,1,.173-.206,1.616,1.616,0,0,0,.352-1.714,7.394,7.394,0,0,0-.972-1.831,10.379,10.379,0,0,0-.828-1.109,4.079,4.079,0,0,0-.741-.6.426.426,0,0,0-.509,0,.416.416,0,0,0-.133.522,5.284,5.284,0,0,0,.545,1.005c.42.549.9,1.052,1.338,1.588a2.319,2.319,0,0,1,.584,1.628c-.032.589-.36.83-.93.673a2.338,2.338,0,0,1-.43-.164,46.24,46.24,0,0,1-4.74-2.715q-2.058-1.354-4.091-2.745a8.615,8.615,0,0,1-1.04-.908.866.866,0,0,1-.233-.855,5.2,5.2,0,0,0-.058-2.175,23.473,23.473,0,0,0-.92-3.135c-.195-.584-.42-1.157-.613-1.742a3.082,3.082,0,0,1-.154-.751,1.014,1.014,0,0,1,.422-.931,8.415,8.415,0,0,0,3.235-5.035,4.682,4.682,0,0,0,.036-1.95,2.594,2.594,0,0,0-.313-.776.37.37,0,0,0-.681-.017,2.946,2.946,0,0,0-.328.891c-.156.753-.246,1.521-.415,2.271a11.413,11.413,0,0,1-1.59,3.859c-.486.729-1.031.694-1.456-.081-.228-.417-.438-.844-.68-1.252a5.672,5.672,0,0,0-.52-.714.981.981,0,0,0-.332-.253c-.374-.175-.6-.018-.587.4a2.635,2.635,0,0,0,.328,1.058,5.1,5.1,0,0,0,1.115,1.415,2.423,2.423,0,0,1,.691,1.091c.253.861.518,1.72.75,2.588.238.892.449,1.792.661,2.691a5.7,5.7,0,0,1,.223,1.71,2.005,2.005,0,0,1-.014.229c-.106.554-.351.737-.89.593a3.981,3.981,0,0,1-.91-.4,13.308,13.308,0,0,1-2.458-1.714c-.539-.491-1.013-1.053-1.529-1.571a4.692,4.692,0,0,0-1.663-1.152,1.953,1.953,0,0,0-.6-.13c-.5-.018-.708.327-.467.765a3.361,3.361,0,0,0,1.163,1.156c.461.3.947.567,1.415.858a2.013,2.013,0,0,1,.746.651.63.63,0,0,1-.263.99,5.4,5.4,0,0,1-.739.325,10.268,10.268,0,0,1-2.913.482,5.97,5.97,0,0,0-.954.107,2.056,2.056,0,0,0-.626.277.407.407,0,0,0-.136.6A.859.859,0,0,0,170.741,149.252Z" transform="translate(-162.541 -102.221)" fill="#fff"/>
      <path id="Path_3855" data-name="Path 3855" d="M148.389,274.835h1.691c-.249-.4-.492-.794-.717-1.2a12.421,12.421,0,0,0-1.319-2.209A2.54,2.54,0,0,0,147.6,271c-.348-.248-.6-.132-.608.3a2.85,2.85,0,0,0,.1.872A8.9,8.9,0,0,0,148.389,274.835Z" transform="translate(-146.991 -198.291)" fill="#fff"/>
      <path id="Path_3856" data-name="Path 3856" d="M152.714,221.216a5.205,5.205,0,0,0,.793.157,2.432,2.432,0,0,1,1.851,1.174,9.749,9.749,0,0,0,3.475,3.2,19.29,19.29,0,0,0,3.235,1.431,3.014,3.014,0,0,1,1.234.684,6.114,6.114,0,0,1,.61.741,13.466,13.466,0,0,0,4.27,3.936,7.859,7.859,0,0,1,1.019.711h3.294a2.178,2.178,0,0,1,.729-1.591,11.972,11.972,0,0,0,3.166-4.76,7.508,7.508,0,0,0,.325-3.943,2.229,2.229,0,0,0-.424-.938c-.207-.268-.462-.309-.681-.054a2.486,2.486,0,0,0-.442.752,10.583,10.583,0,0,0-.418,2.3,13.78,13.78,0,0,1-.811,3.516,5.02,5.02,0,0,1-1.21,1.765,2.58,2.58,0,0,1-2.951.53,8.474,8.474,0,0,1-2.262-1.443,23.026,23.026,0,0,1-1.776-1.648,8.764,8.764,0,0,1-1.025-1.294,3.2,3.2,0,0,1-.413-2.369c.155-.924.313-1.848.445-2.775a9.769,9.769,0,0,0,.046-3.257,2.917,2.917,0,0,0-.664-1.532.536.536,0,0,0-.908.059,1.83,1.83,0,0,0-.346,1.046,7.035,7.035,0,0,0,.06,1.11,24.745,24.745,0,0,1,.358,4.559,3.227,3.227,0,0,1-.261,1.235.9.9,0,0,1-1.1.615,3.914,3.914,0,0,1-1.056-.338,15.372,15.372,0,0,1-3.588-2.363,2.841,2.841,0,0,1-1.027-2.677c.151-.95.336-1.895.523-2.839a23.881,23.881,0,0,0,.567-4.152,6.15,6.15,0,0,0-.249-2.168,2.941,2.941,0,0,0-.365-.715c-.345-.491-.821-.463-1.073.083a3.535,3.535,0,0,0-.3,1.069,18.383,18.383,0,0,0-.029,2.844,31.507,31.507,0,0,1,.01,4.462,8.394,8.394,0,0,1-.241,1.437c-.2.7-.564.839-1.179.462-.38-.233-.714-.54-1.072-.809a6.3,6.3,0,0,0-.66-.462,1.582,1.582,0,0,0-.541-.182.563.563,0,0,0-.652.791A2.472,2.472,0,0,0,152.714,221.216Z" transform="translate(-149.676 -156.709)" fill="#fff"/>
      <path id="Path_3857" data-name="Path 3857" d="M227.836,94.253a1.871,1.871,0,0,0,.848.325,12.684,12.684,0,0,0,1.957-.019,13.759,13.759,0,0,0,4.1-1,9,9,0,0,0,1.464-.766,2.621,2.621,0,0,1,2.777-.119,11.524,11.524,0,0,1,2.557,1.7c.588.516,1.176,1.031,1.754,1.557a3.582,3.582,0,0,1,.454.522.814.814,0,0,1-.069,1.122c-.449.419-.934.8-1.41,1.188a11.527,11.527,0,0,0-2.574,2.626,3.627,3.627,0,0,0-.709,2.081,1.734,1.734,0,0,0,.124.6.555.555,0,0,0,.957.222,3,3,0,0,0,.783-1.126c.338-.733.671-1.47,1.05-2.183a9.923,9.923,0,0,1,1.443-1.99,3.977,3.977,0,0,1,1.5-1.043,1.807,1.807,0,0,1,1.062-.018,4.6,4.6,0,0,1,1.665.856c.825.586,1.636,1.194,2.47,1.767.655.45,1.338.857,2,1.293.192.126.36.288.543.429a1.205,1.205,0,0,1,.371,1.455,3.933,3.933,0,0,1-.933,1.489,8.614,8.614,0,0,1-3.268,2.114c-.55.213-1.117.382-1.663.6-.367.149-.711.354-1.065.536a.476.476,0,0,0-.09.071c-.473.413-.409.774.174.991a2.164,2.164,0,0,0,1.064.087,7.487,7.487,0,0,0,4.477-2.185c.534-.55,1-1.167,1.488-1.76a3.421,3.421,0,0,1,.983-.908,1.665,1.665,0,0,1,1.036-.207,17.472,17.472,0,0,1,3.393.852,43.526,43.526,0,0,1,5.789,2.506,16.941,16.941,0,0,1,3.195,2.066,7.847,7.847,0,0,1,1.373,1.449,3.053,3.053,0,0,1,.616,1.866,2.187,2.187,0,0,1-1.388,1.776,4.387,4.387,0,0,1-3.224-.186,7.775,7.775,0,0,1-2.853-2.233c-.523-.615-1.01-1.263-1.551-1.862a6.57,6.57,0,0,0-.995-.841.76.76,0,0,0-.655-.15.519.519,0,0,0-.453.61,1.97,1.97,0,0,0,.316.979c.307.472.637.93.972,1.382.29.391.585.78.906,1.145a9.265,9.265,0,0,0,3.335,2.549,4.982,4.982,0,0,0,2.6.358,5.857,5.857,0,0,0,2.8-1.2,3.232,3.232,0,0,1,.348-.241.57.57,0,0,1,.879.233,5.106,5.106,0,0,1,.42.989q.433,1.517.814,3.048c.465,1.872,1.132,3.678,1.759,5.5a12.935,12.935,0,0,1,.435,1.553,2.708,2.708,0,0,1-1.72,3.127,4.767,4.767,0,0,1-2.593.4,1.809,1.809,0,0,1-1.085-.534,1.289,1.289,0,0,1-.21-1.585,3.554,3.554,0,0,1,.318-.481,5.138,5.138,0,0,0,.986-2.233,6.05,6.05,0,0,0-.03-2.822,1.855,1.855,0,0,0-.319-.647.473.473,0,0,0-.857.109,1.765,1.765,0,0,0-.092.908c.04.743.1,1.485.116,2.228a3.738,3.738,0,0,1-.43,1.9,3.484,3.484,0,0,1-.613.778.469.469,0,0,1-.693-.012,1.032,1.032,0,0,1-.363-.619c-.12-.63-.239-1.26-.348-1.891a2.889,2.889,0,0,0-.335-1.1c-.108-.17-.19-.408-.437-.374a.59.59,0,0,0-.479.452,2.759,2.759,0,0,0-.109.834,6.13,6.13,0,0,0,.768,2.755,4.727,4.727,0,0,0,1.083,1.339,5.7,5.7,0,0,1,.634.717,12.153,12.153,0,0,0,.936,1.067,3.514,3.514,0,0,0,3.207.752,8.806,8.806,0,0,0,3.109-1.382,8.306,8.306,0,0,1,1.485-.8,3.4,3.4,0,0,1,3.133.355,8.224,8.224,0,0,1,2.325,2.327q1.728,2.455,3.4,4.949c1.119,1.675,2.206,3.372,3.293,5.068.555.864,1.1,1.733,1.612,2.625l.013.025h4.479l-.022-.029c-.781-1.081-1.568-2.16-2.305-3.272-1.361-2.054-2.71-4.116-4.021-6.2-1.257-2-2.47-4.026-3.557-6.128a16.314,16.314,0,0,1-1.619-4.465,55.281,55.281,0,0,1-.8-5.482,15.288,15.288,0,0,1-.062-3,2.979,2.979,0,0,1,1.26-2.281,11.035,11.035,0,0,0,1.592-1.27,7.815,7.815,0,0,0,2.063-3.423,5.713,5.713,0,0,0,.184-2.06,1.794,1.794,0,0,0-.366-.958.421.421,0,0,0-.693-.046,1.116,1.116,0,0,0-.263.457c-.111.434-.178.879-.273,1.317a12.029,12.029,0,0,1-1.449,3.875,4.616,4.616,0,0,1-.735.882,1.091,1.091,0,0,1-1.32.19,2.663,2.663,0,0,1-.723-.555,4.738,4.738,0,0,1-1.127-2.532c-.183-1.1-.3-2.21-.456-3.315a8.763,8.763,0,0,0-.459-2.1,2.989,2.989,0,0,0-.774-1.268.673.673,0,0,0-1.115.224,2.1,2.1,0,0,0-.208.734,4.514,4.514,0,0,0,.149,1.679c.29.957.617,1.9.93,2.854.285.865.594,1.722.849,2.6a3.292,3.292,0,0,1,.064,1.715.884.884,0,0,1-1.246.713,2.8,2.8,0,0,1-.83-.465,4.713,4.713,0,0,1-1.363-1.839c-.484-1.117-.935-2.249-1.424-3.364a2.472,2.472,0,0,0-.786-1.027.422.422,0,0,0-.714.246,1.9,1.9,0,0,0-.062.532,5.342,5.342,0,0,0,.447,1.938,9.605,9.605,0,0,0,1.98,3.358A5.6,5.6,0,0,0,278.545,115c.115.008.231.007.346.02a.815.815,0,0,1,.758.656,7.74,7.74,0,0,1,.193,1.02c.078.83.13,1.662.189,2.493.076,1.075.147,2.15.221,3.225a8.9,8.9,0,0,1-.059,2.226,3.855,3.855,0,0,1-.693,1.695,1.13,1.13,0,0,1-1.065.5,1.8,1.8,0,0,1-.861-.31,4.92,4.92,0,0,1-1.418-1.444,13.138,13.138,0,0,1-1.382-3.336c-.622-2.237-1.178-4.491-1.76-6.739a22.824,22.824,0,0,0-.838-2.8,11.343,11.343,0,0,0-2.194-3.461,13.767,13.767,0,0,0-4.784-3.226c-1.7-.74-3.447-1.329-5.206-1.9a19.872,19.872,0,0,1-3.519-1.449,4.6,4.6,0,0,1-1.4-1.064,1.22,1.22,0,0,1-.21-1.33c.045-.106.1-.206.155-.31a5.493,5.493,0,0,0,.668-3c-.053-.484-.123-.967-.191-1.45A3.725,3.725,0,0,1,255.7,93.2a4.158,4.158,0,0,0,.214-.891,3.521,3.521,0,0,0-.235-1.7,3.121,3.121,0,0,0-.9-1.322,1.746,1.746,0,0,0-.645-.322c-.329-.092-.54.1-.49.434a2.121,2.121,0,0,0,.215.652c.23.444.5.869.736,1.309a3.469,3.469,0,0,1,.489,1.407c.044.643-.247.947-.867.806a6.445,6.445,0,0,1-1.253-.473c-.442-.2-.856-.467-1.292-.683a1.085,1.085,0,0,0-.932-.055.352.352,0,0,0-.188.561.8.8,0,0,0,.109.158,2.287,2.287,0,0,0,1.137.754c.61.154,1.214.327,1.824.48a1.015,1.015,0,0,1,.662.547,1.711,1.711,0,0,1,.193.58,4.834,4.834,0,0,1-.482,2.8,2.039,2.039,0,0,1-2.689,1.041,7.315,7.315,0,0,1-.99-.5,11.056,11.056,0,0,1-1.078-.74c-1.029-.808-2.045-1.631-3.067-2.447a1.24,1.24,0,0,1-.445-1.237c.061-.431.129-.863.158-1.3a16.24,16.24,0,0,0-.3-3.75c-.08-.48-.132-.966-.166-1.451a1.154,1.154,0,0,1,.6-1.125,10.675,10.675,0,0,0,1.011-.7,7.821,7.821,0,0,0,2.048-2.473c.278-.518.506-1.065.734-1.609a1.577,1.577,0,0,0,.067-1.058c-.1-.34-.312-.44-.612-.261a1.837,1.837,0,0,0-.607.512c-.341.525-.638,1.079-.93,1.634-.214.408-.382.841-.589,1.253a6.237,6.237,0,0,1-.958,1.483,2.581,2.581,0,0,1-.532.435.632.632,0,0,1-.875-.091,1.747,1.747,0,0,1-.391-.6c-.353-.936-.663-1.888-1.022-2.822q-.434-1.13-.95-2.229a1.407,1.407,0,0,0-1.03-.9c-.021,0-.037-.034-.055-.052l-.2.115a.672.672,0,0,1-.046.253,1.239,1.239,0,0,0-.141.926,9.255,9.255,0,0,0,.693,2.156,15.645,15.645,0,0,0,2,3.324,2.206,2.206,0,0,1,.489,1.684,6.742,6.742,0,0,0,.162,2.1,10.922,10.922,0,0,1,.245,2.714,3.645,3.645,0,0,1-.126.719.688.688,0,0,1-1.031.518,6.758,6.758,0,0,1-1.143-.626c-.573-.387-1.118-.816-1.678-1.224a7.9,7.9,0,0,0-2.153-1.095c-.207-.07-.409-.153-.608-.242a1.584,1.584,0,0,1-.7-.584,13.13,13.13,0,0,0-2.032-2.456,10.645,10.645,0,0,0-1.86-1.423,1.751,1.751,0,0,0-1.053-.312c-.472.044-.684.332-.5.767a2.349,2.349,0,0,0,.542.827c.613.543,1.27,1.035,1.915,1.542a11.688,11.688,0,0,1,1.822,1.471,1.78,1.78,0,0,1,.26.377.782.782,0,0,1-.219,1.035,2.847,2.847,0,0,1-.626.369,7.144,7.144,0,0,1-2.745.5c-1.025.039-2.051.08-3.074.157a6.076,6.076,0,0,0-1.164.252,1.77,1.77,0,0,0-.51.264A.479.479,0,0,0,227.836,94.253Z" transform="translate(-201.613 -68.386)" fill="#fff"/>
      <path id="Path_3858" data-name="Path 3858" d="M302.734,65.808a.744.744,0,0,0,.151-.027,5.161,5.161,0,0,0,1.779-.706c1.443-.811,2.867-1.66,4.382-2.334a5.226,5.226,0,0,1,.9-.318c.633-.151.822.037.776.686-.067.947-.144,1.895-.167,2.843a8.3,8.3,0,0,0,.426,3.069,4.462,4.462,0,0,0,.738,1.429c.191.223.416.458.754.347a.685.685,0,0,0,.426-.751,4.946,4.946,0,0,0-.172-1.174c-.264-.938-.591-1.858-.849-2.8a6.358,6.358,0,0,1-.3-2.355,2.142,2.142,0,0,1,.815-1.6,2.682,2.682,0,0,1,1.546-.518,5.026,5.026,0,0,1,2.46.522,15.206,15.206,0,0,1,2.328,1.495,30.96,30.96,0,0,1,4.437,4.143,30.249,30.249,0,0,1,2.644,3.4,5.645,5.645,0,0,1,.649,1.3,3.228,3.228,0,0,1-.166,2.689,4.942,4.942,0,0,1-4.3,2.686,3.033,3.033,0,0,1-2.98-1.746,10.057,10.057,0,0,1-.889-2.817,12.957,12.957,0,0,0-.852-2.872,2.37,2.37,0,0,0-.876-1.044.477.477,0,0,0-.764.278,1.49,1.49,0,0,0-.063.492,4.211,4.211,0,0,0,.363,1.526c.508,1.206,1.041,2.4,1.538,3.612a2.978,2.978,0,0,1,.176,1.922.851.851,0,0,1-1.029.7,4.5,4.5,0,0,1-1.087-.362,6.417,6.417,0,0,1-1.8-1.431c-.513-.521-1.01-1.059-1.525-1.577a2.384,2.384,0,0,0-1.308-.762c-.458-.073-.722.211-.607.661a1.475,1.475,0,0,0,.172.426,11.25,11.25,0,0,0,.817,1.207,8.55,8.55,0,0,0,3.445,2.579,4.135,4.135,0,0,0,2.376.237,3.929,3.929,0,0,1,2.09.061,12.248,12.248,0,0,0,1.6.4,5.8,5.8,0,0,0,4.657-1.09c.467-.338.9-.727,1.356-1.076s.947-.7,1.431-1.039a.971.971,0,0,1,1.061-.054,6,6,0,0,1,.994.648c.651.541,1.269,1.122,1.91,1.675a8.261,8.261,0,0,0,3.211,1.768c.631.175,1.262.348,1.9.5a4.987,4.987,0,0,1,2.77,1.77,8.261,8.261,0,0,1,1.68,3.756c.168.894.234,1.808.426,2.7.248,1.153.553,2.3.874,3.43s.709,2.251,1.036,3.385a8.78,8.78,0,0,1,.053,4.565,4.417,4.417,0,0,1-.954,1.87,2.86,2.86,0,0,1-1.436.988,3.052,3.052,0,0,1-3.366-1.3,10.686,10.686,0,0,1-.883-1.572,1.525,1.525,0,0,1,.008-1.377,5.081,5.081,0,0,1,.4-.7c.447-.688.923-1.359,1.352-2.058a6.124,6.124,0,0,0,.921-2.39,1.906,1.906,0,0,0-.063-.791c-.11-.356-.327-.425-.659-.265a1.291,1.291,0,0,0-.336.246,2.772,2.772,0,0,0-.66,1.2c-.251.822-.488,1.649-.723,2.476a4.883,4.883,0,0,1-.72,1.523A.621.621,0,0,1,335.9,98c-.011-.023-.018-.048-.027-.072a3.647,3.647,0,0,1-.253-1.7c.079-.739.215-1.471.33-2.206a2.943,2.943,0,0,0,.009-1.446c-.108-.315-.259-.372-.553-.2a1.558,1.558,0,0,0-.7.842,9.216,9.216,0,0,0-.305,1.03,4.929,4.929,0,0,0,1.018,4.583,4.375,4.375,0,0,1,.82,1.6,10.422,10.422,0,0,0,1.158,2.757,3.59,3.59,0,0,0,1.465,1.325,5.329,5.329,0,0,0,2.322.455c.6,0,1.2-.041,1.807-.049a2.845,2.845,0,0,1,1.761.576,5.953,5.953,0,0,1,1.82,2.3,4.518,4.518,0,0,1,.441,1.626,1.841,1.841,0,0,1-1.691,2.051,3.74,3.74,0,0,1-2.475-.669c-.6-.366-1.178-.778-1.778-1.149a1.942,1.942,0,0,0-.67-.27c-.566-.1-.862.26-.707.808a1.844,1.844,0,0,0,.5.768,5.89,5.89,0,0,0,3,1.7,4.731,4.731,0,0,0,1.72.089,4.448,4.448,0,0,0,2.206-.941,1.8,1.8,0,0,1,2.333.08c.351.317.672.669.991,1.02.931,1.025,1.832,2.08,2.787,3.083,1.929,2.027,3.889,4.024,5.829,6.041h10.473c.22-.419.456-.831.677-1.25a13.2,13.2,0,0,0,1.144-2.432,4.36,4.36,0,0,0,.043-2.648,3.207,3.207,0,0,1-.138-.6,1.263,1.263,0,0,1,.825-1.482,8.652,8.652,0,0,0,3.473-2.9,5.315,5.315,0,0,1,2.085-1.887,2.469,2.469,0,0,0,.935-.841,4.51,4.51,0,0,0,.838-2.979,2.359,2.359,0,0,0-.2-.774c-.091-.22-.243-.249-.435-.107a1.105,1.105,0,0,0-.357.388,7.072,7.072,0,0,0-.36,1.008c-.119.419-.182.854-.309,1.27a2.9,2.9,0,0,1-.849,1.4,1.128,1.128,0,0,1-1.513.019,3.2,3.2,0,0,1-.594-.7,4.774,4.774,0,0,1-.686-1.987c-.08-.7-.1-1.407-.137-2.111a3.456,3.456,0,0,0-.265-1.312c-.163-.346-.451-.367-.689-.073a2.4,2.4,0,0,0-.477,1.475,7.6,7.6,0,0,0,.528,2.975,5.139,5.139,0,0,0,1.272,2.04.862.862,0,0,1,.192.367,1.6,1.6,0,0,1-.379,1.536,4.158,4.158,0,0,1-1.449,1.122,2.094,2.094,0,0,1-2.92-.925,9.723,9.723,0,0,1-.908-2.366c-.424-1.56-.823-3.126-1.246-4.687a6.293,6.293,0,0,0-.939-2.135,2.362,2.362,0,0,0-.589-.54.477.477,0,0,0-.678.14,1.151,1.151,0,0,0-.243.716,4.687,4.687,0,0,0,.285,1.854c.549,1.438,1.154,2.854,1.718,4.286.315.8.612,1.607.88,2.422a2.973,2.973,0,0,1,.1,1.523,1.1,1.1,0,0,1-1.143.986,2.544,2.544,0,0,1-.647-.071,6.875,6.875,0,0,1-3.434-2.162,3.264,3.264,0,0,1-.817-2.3,29.721,29.721,0,0,1,.5-4.2c.106-.606.216-1.212.3-1.821a1.766,1.766,0,0,0-.183-1.159.421.421,0,0,0-.648-.184,1.892,1.892,0,0,0-.545.472,4.064,4.064,0,0,0-.423.816,5.63,5.63,0,0,0-.312,2.727c.074.8.222,1.6.291,2.406a7.925,7.925,0,0,1-.047,1.3c-.013.162-.074.34-.281.369a.407.407,0,0,1-.422-.274c-.114-.215-.212-.439-.326-.654-.179-.34-.348-.688-.555-1.011a1.662,1.662,0,0,0-.452-.464.334.334,0,0,0-.57.237,1.917,1.917,0,0,0-.009.61,3.8,3.8,0,0,0,.638,1.554,2.863,2.863,0,0,0,1.483,1.166,1.9,1.9,0,0,1,.683.539c.364.4.68.835,1.038,1.237a5.855,5.855,0,0,0,1.639,1.323c.761.4,1.521.8,2.274,1.216a3.392,3.392,0,0,1,1.8,3.606,2.338,2.338,0,0,1-1.685,2.088,3.007,3.007,0,0,1-2.345-.3,14.049,14.049,0,0,1-2.346-1.8,50.076,50.076,0,0,1-4.287-4.253,14.046,14.046,0,0,1-1.794-2.4,2.63,2.63,0,0,1-.34-1.592,2.877,2.877,0,0,1,.508-1.315c.221-.331.441-.663.643-1a4.033,4.033,0,0,0,.583-2.469c-.036-.4-.054-.795-.11-1.188a2.365,2.365,0,0,1,.31-1.44c.391-.765.785-1.531,1.125-2.319a5.552,5.552,0,0,0,.369-3.5,3.289,3.289,0,0,0-.651-1.381.473.473,0,0,0-.873.127.648.648,0,0,0-.064.22,4.033,4.033,0,0,0-.014.688,11.533,11.533,0,0,1-.236,4.088,4.173,4.173,0,0,1-.564,1.342.935.935,0,0,1-1.478.273,2.665,2.665,0,0,1-.82-.854c-.363-.633-.7-1.282-1.04-1.929-.214-.408-.388-.84-.626-1.233a1.842,1.842,0,0,0-.54-.535.467.467,0,0,0-.748.345,1.9,1.9,0,0,0,.04.684,6.346,6.346,0,0,0,1.413,2.577c.584.682,1.2,1.338,1.78,2.02a3.461,3.461,0,0,1,.07,4.188,1.933,1.933,0,0,1-1.979.724,3.849,3.849,0,0,1-1.773-1.041,11.769,11.769,0,0,1-2.382-3.425,6.5,6.5,0,0,1-.515-4.015,5.13,5.13,0,0,1,2.245-3.45,20.45,20.45,0,0,0,2.385-1.819c.857-.792,1.732-1.565,2.6-2.346a4.574,4.574,0,0,1,2.574-1.1,17.3,17.3,0,0,1,2.382,0c1.205.013,2.41.071,3.616.1A4.547,4.547,0,0,0,365,90.613a2.057,2.057,0,0,0,.691-.395.432.432,0,0,0-.049-.746,2.676,2.676,0,0,0-.683-.342,6.469,6.469,0,0,0-2.775-.3c-1.083.115-2.161.282-3.238.45a5.719,5.719,0,0,1-2.29.054,1.3,1.3,0,0,1-1.047-1.705,4.219,4.219,0,0,1,1.136-1.938c.66-.679,1.391-1.289,2.076-1.946.425-.407.838-.83,1.221-1.276a2.1,2.1,0,0,0,.366-.709.4.4,0,0,0-.391-.557,1.656,1.656,0,0,0-.679.084,10.052,10.052,0,0,0-1.377.676,7.66,7.66,0,0,0-2.28,2.154,6.539,6.539,0,0,0-1.178,2.731,8.467,8.467,0,0,0-.059,1.84,2.038,2.038,0,0,1-.519,1.526c-.213.239-.432.474-.659.7a16.1,16.1,0,0,1-2.207,1.855,6.287,6.287,0,0,1-2.211,1.052,2.126,2.126,0,0,1-2.2-.667,3.156,3.156,0,0,1-.491-.777,9.56,9.56,0,0,1-.927-4.365,3.343,3.343,0,0,1,.815-2.189,5.345,5.345,0,0,1,1.275-1.042,37.315,37.315,0,0,0,4.353-3.106c.733-.583,1.45-1.186,2.166-1.788q.765-.643,1.51-1.311a3.692,3.692,0,0,1,2.906-1.061,8.313,8.313,0,0,1,2.12.537c.541.2,1.084.4,1.634.57a1.964,1.964,0,0,0,1.174.064c.46-.139.568-.409.3-.806a2.464,2.464,0,0,0-1.078-.842,7.486,7.486,0,0,0-4.073-.5c-.395.046-.791.1-1.187.111a2.658,2.658,0,0,1-.791-.119c-.371-.11-.47-.281-.441-.661a2.542,2.542,0,0,1,.369-1.164,4.865,4.865,0,0,1,1.324-1.433c.566-.4,1.154-.764,1.74-1.134.434-.274.885-.521,1.315-.8a2.4,2.4,0,0,0,.546-.478.4.4,0,0,0-.169-.681,1.464,1.464,0,0,0-.485-.1,3.472,3.472,0,0,0-1.343.294,6.691,6.691,0,0,0-3.428,2.549,3.411,3.411,0,0,0-.65,2.764,1.652,1.652,0,0,1-.592,1.654,22.684,22.684,0,0,1-2.061,1.731c-1.2.862-2.429,1.675-3.667,2.477-.645.419-1.331.775-2,1.154a2.11,2.11,0,0,1-2.4-.056,3.845,3.845,0,0,1-1.654-2.756,2.034,2.034,0,0,1,.447-1.62q.442-.533.889-1.061a11.1,11.1,0,0,0,1.493-2.095q.4-.788.778-1.589a3.08,3.08,0,0,1,.806-1.065,4.165,4.165,0,0,1,1.944-.871c.768-.147,1.543-.254,2.311-.4,1.209-.232,2.421-.452,3.617-.738a8.33,8.33,0,0,0,1.683-.646,2.558,2.558,0,0,0,.785-.657.5.5,0,0,0-.192-.828.842.842,0,0,0-.363-.114,7.588,7.588,0,0,0-1.264.014,13.923,13.923,0,0,0-3.447,1.064c-.908.387-1.786.844-2.691,1.24a6.018,6.018,0,0,1-1.243.392,1.665,1.665,0,0,1-1.528-.453,2.8,2.8,0,0,1-.707-1.135,7.287,7.287,0,0,1-.3-3.569,3.475,3.475,0,0,1,.7-1.605,2.505,2.505,0,0,1,1.729-.9,8.832,8.832,0,0,1,2.492.1,10.715,10.715,0,0,0,3.751-.005,4.254,4.254,0,0,0,1.7-.673c.21-.152.43-.329.359-.628a.628.628,0,0,0-.55-.423,5.893,5.893,0,0,0-1.066-.135,12.745,12.745,0,0,0-3.192.461,8.764,8.764,0,0,1-1.893.316,2.985,2.985,0,0,1-.793-.108.515.515,0,0,1-.384-.623,1.919,1.919,0,0,1,.1-.372,13.487,13.487,0,0,0,.736-2.944c.058-.51.162-1.014.223-1.524a1.826,1.826,0,0,1,.875-1.339,4.292,4.292,0,0,0,1.7-2.227A5.738,5.738,0,0,0,352,48.71a2.035,2.035,0,0,0-.413-.55.3.3,0,0,0-.529.091.929.929,0,0,0-.1.442c.042.613.082,1.228.17,1.836a6.014,6.014,0,0,1-.392,3.5,3.878,3.878,0,0,1-.747,1.11.656.656,0,0,1-.964.05,1.8,1.8,0,0,1-.363-.442c-.277-.462-.539-.934-.8-1.4a6,6,0,0,0-.9-1.241,2.327,2.327,0,0,0-.931-.664c-.337-.11-.542.056-.487.4a1.493,1.493,0,0,0,.178.5,11.187,11.187,0,0,0,1.881,2.474,2.192,2.192,0,0,1,.68,1.221,5.714,5.714,0,0,1-.014,2.105,10.345,10.345,0,0,1-1.861,4.189,3.075,3.075,0,0,1-1.521,1.131,2.608,2.608,0,0,1-3.494-2.261,4.868,4.868,0,0,1,.187-1.828,11.9,11.9,0,0,0,.588-3.48c-.006-.513-.039-1.025-.065-1.537a1.861,1.861,0,0,1,.444-1.314,17.122,17.122,0,0,0,2.2-3.47,6.876,6.876,0,0,0,.565-1.673,1.55,1.55,0,0,0-.031-.946c-.125-.281-.272-.338-.546-.2a.837.837,0,0,0-.188.131,4.02,4.02,0,0,0-1.03,1.468c-.339.846-.677,1.692-1.023,2.535a4.68,4.68,0,0,1-.769,1.369,1.177,1.177,0,0,1-1.28.385,2.809,2.809,0,0,1-1.43-.936c-.9-1.039-1.756-2.108-2.626-3.169-.634-.774-1.24-1.571-1.9-2.323a2.212,2.212,0,0,0-1.084-.7.559.559,0,0,0-.768.613,1.51,1.51,0,0,0,.056.3,4.625,4.625,0,0,0,.977,1.817c.593.707,1.183,1.42,1.819,2.086a12.465,12.465,0,0,0,2.68,2.18c.54.318,1.106.6,1.675.861a1.339,1.339,0,0,1,.944,1.5c-.013.461-.026.924-.064,1.383a6,6,0,0,1-.86,2.925,2,2,0,0,1-2.267,1,4.813,4.813,0,0,1-2.2-1.134,11.118,11.118,0,0,1-2.536-2.971,5.924,5.924,0,0,0-.726-.991,2.489,2.489,0,0,0-.743-.53.507.507,0,0,0-.759.467,1.692,1.692,0,0,0,.034.495,5.867,5.867,0,0,0,1.188,2.31,9.943,9.943,0,0,0,2.5,2.256,7.028,7.028,0,0,0,4.013,1.25,1.754,1.754,0,0,1,1.532.737,4.638,4.638,0,0,1,.272.419,6.64,6.64,0,0,0,1.582,2.013,10.957,10.957,0,0,1,.914.823,4.969,4.969,0,0,1,1.181,2,8.48,8.48,0,0,1,.306,4.479,7.637,7.637,0,0,1-2.175,4.041,5.249,5.249,0,0,1-4.61,1.63,8.159,8.159,0,0,1-1.561-.393,5.672,5.672,0,0,1-3.15-2.57,1.742,1.742,0,0,1-.048-1.73,5.376,5.376,0,0,1,1.078-1.3c.432-.438.873-.87,1.263-1.344a16.773,16.773,0,0,0,1.178-1.612,10.757,10.757,0,0,0,1.42-2.935,6.254,6.254,0,0,0,.2-1.247,1.89,1.89,0,0,0-.413-1.294.534.534,0,0,0-.748-.159,2.384,2.384,0,0,0-.54.477,2.939,2.939,0,0,0-.519,1.231,18.268,18.268,0,0,1-1.707,4.527,8.269,8.269,0,0,1-1.349,1.862,2.263,2.263,0,0,1-2.3.737,3.1,3.1,0,0,1-1.543-.968,21.085,21.085,0,0,1-2.324-3.253,2.24,2.24,0,0,1-.265-1.914c.205-.649.4-1.3.6-1.951a11.449,11.449,0,0,0,.565-5.2,7.767,7.767,0,0,0-.478-1.975,1.416,1.416,0,0,1-.072-1.05,3.543,3.543,0,0,0,.158-1.6,6.848,6.848,0,0,0-.639-2.091,17.184,17.184,0,0,0-3.064-4.363,3.316,3.316,0,0,0-1.012-.758.541.541,0,0,0-.583,0c-.191.147-.147.366-.1.571a.442.442,0,0,0,.036.109,13.183,13.183,0,0,0,.73,1.348c.5.728,1.065,1.414,1.591,2.126a12.45,12.45,0,0,1,1.535,2.575,3.825,3.825,0,0,1,.366,1.945c-.076.629-.421.863-1.044.738a6.031,6.031,0,0,1-1.534-.607,3.9,3.9,0,0,0-1.484-.5,2.043,2.043,0,0,0-.753.084.484.484,0,0,0-.258.8,2.068,2.068,0,0,0,.493.474,3.072,3.072,0,0,0,1.433.522c.561.062,1.126.09,1.687.148a3.639,3.639,0,0,1,.752.147.918.918,0,0,1,.676.722,7.411,7.411,0,0,1,.17,1.252,11.439,11.439,0,0,1-.628,3.627,4.684,4.684,0,0,1-.6,1.2,1.1,1.1,0,0,1-1.525.378,4.374,4.374,0,0,1-.873-.556c-.536-.438-1.054-.9-1.565-1.365A18.052,18.052,0,0,0,317.385,60c-.533-.3-1.036-.662-1.542-1.01-.338-.233-.455-.5-.259-1.059a1.921,1.921,0,0,1,.717-.885,4.893,4.893,0,0,0,1.115-1.161,6.52,6.52,0,0,0,1.157-4.375,4.371,4.371,0,0,0-.605-2.008,2.617,2.617,0,0,0-.262-.33.28.28,0,0,0-.414-.027.761.761,0,0,0-.212.305,3.19,3.19,0,0,0-.142,1.594,8.776,8.776,0,0,1-.235,3.509,4.46,4.46,0,0,1-1.037,1.952,1.769,1.769,0,0,1-1.639.571,2.92,2.92,0,0,1-.828-.293,5.99,5.99,0,0,1-2.042-2,11.328,11.328,0,0,1-1.291-2.617c-.247-.661-.493-1.323-.774-1.97a2.607,2.607,0,0,0-.493-.725.44.44,0,0,0-.759.124,1.352,1.352,0,0,0-.122.4,4.145,4.145,0,0,0,.2,1.708,10.1,10.1,0,0,0,1.5,3.27,9.53,9.53,0,0,0,3.125,2.914,5.919,5.919,0,0,1,.772.506,1.015,1.015,0,0,1,.12,1.607,2.681,2.681,0,0,1-1.436.849c-.909.224-1.82.444-2.737.634a16.408,16.408,0,0,0-4.8,1.821,13.446,13.446,0,0,0-1.553,1.066,3.673,3.673,0,0,0-.633.714.427.427,0,0,0-.06.535C302.344,65.809,302.544,65.795,302.734,65.808Z" transform="translate(-252.179 -45.485)" fill="#fff"/>
    </g>
    <g id="Group_1628" data-name="Group 1628" transform="translate(61.282 127.374)">
      <g id="Group_1624" data-name="Group 1624" transform="translate(45.812 34.172)">
        <path id="Path_3859" data-name="Path 3859" d="M203.622,408.242q0-.519-.04-1.317l-.04-.585h.643q.137,0,.235,0l.315-.009.359-.013.368-.013.337-.009q.1,0,.271,0a4.112,4.112,0,0,1,1.308.2,2.753,2.753,0,0,1,1,.576,2.521,2.521,0,0,1,.641.96,3.606,3.606,0,0,1,.22,1.3,3.862,3.862,0,0,1-.211,1.308,2.775,2.775,0,0,1-.618,1.011,2.7,2.7,0,0,1-1.007.656,3.75,3.75,0,0,1-1.344.226q-.173,0-.457-.013l-.1,0-.368-.013q-.39-.018-.74-.027-.115,0-.306,0h-.532q.018-.43.031-.625.036-.745.036-1.348Zm.975-1.437v3.681q0,.794.035,1.495l1.286.022a2.164,2.164,0,0,0,.856-.164,2.086,2.086,0,0,0,.723-.5,2.419,2.419,0,0,0,.519-.851,3.3,3.3,0,0,0,.186-1.144,3.7,3.7,0,0,0-.124-.976,2.317,2.317,0,0,0-.381-.8,1.841,1.841,0,0,0-.727-.576,2.56,2.56,0,0,0-1.069-.2Z" transform="translate(-203.542 -406.158)" fill="#fff"/>
        <path id="Path_3860" data-name="Path 3860" d="M229.029,408.332q0-.594-.035-1.3-.014-.177-.031-.576h1.122q-.044.7-.058,1.175-.009.452-.009.7v2.288q0,.688.031,1.34l.014.266.022.346h-1.122q.022-.434.031-.612.035-.745.035-1.34Z" transform="translate(-220.776 -406.27)" fill="#fff"/>
        <path id="Path_3861" data-name="Path 3861" d="M242.727,412.576l-.75,0-1.658-4.058q-.279-.692-.648-1.463-.106-.222-.3-.6h1.3a.539.539,0,0,0,.027.106q.044.173.226.709.156.488.373,1.069.067.19.209.554l1.131,2.789,1.4-3.277q.253-.612.523-1.322l.239-.63h.683l-.053.106-.346.709q-.213.444-.479,1.029-.125.266-.226.506Z" transform="translate(-227.835 -406.27)" fill="#fff"/>
        <path id="Path_3862" data-name="Path 3862" d="M265.236,408.4q0-.594-.044-1.339l-.04-.612h3.81v.585q-.705-.049-1.61-.08-.505-.017-1.126-.026v2.187q.616-.009.923-.018l.262-.009,1.229-.04v.586q-.328,0-.723-.027l-.767-.022q-.577-.018-.923-.022l.009,2.537q1.317-.022,1.947-.062.341-.018.816-.049v.581H265.17q.022-.434.031-.612.035-.745.035-1.344Z" transform="translate(-245.312 -406.27)" fill="#fff"/>
        <path id="Path_3863" data-name="Path 3863" d="M303.3,411.671a1.128,1.128,0,0,1-.466.5,1.174,1.174,0,0,1-.6.155,2.01,2.01,0,0,1-1.268-.452,2.729,2.729,0,0,1-.373-.35,3.918,3.918,0,0,1-.683.465,3.356,3.356,0,0,1-.614.253,1.912,1.912,0,0,1-.53.084,3.817,3.817,0,0,1-.885-.1,2.339,2.339,0,0,1-.734-.3,1.522,1.522,0,0,1-.736-1.362,1.668,1.668,0,0,1,.474-1.162,4.014,4.014,0,0,1,1.264-.838,1.961,1.961,0,0,1-.47-.523,1.624,1.624,0,0,1-.261-.878,1.2,1.2,0,0,1,.142-.6,1.127,1.127,0,0,1,.39-.406,1.6,1.6,0,0,1,.483-.2,2.243,2.243,0,0,1,.528-.064,1.344,1.344,0,0,1,.971.341,1.064,1.064,0,0,1,.231.342.981.981,0,0,1,.08.381,1.362,1.362,0,0,1-.382.945,2.264,2.264,0,0,1-.572.443,4.55,4.55,0,0,1,.745.794q.235.31.647.967l.177.28.055.086.042.065a8.28,8.28,0,0,0,.532-.688,7.852,7.852,0,0,0,.883-1.61l.43.284a10.336,10.336,0,0,1-1.472,2.288l-.115.124a4.6,4.6,0,0,0,.395.523,1.072,1.072,0,0,0,.745.443.708.708,0,0,0,.43-.173,1.549,1.549,0,0,0,.288-.328Zm-3-.492q-.111-.151-.23-.324-.2-.293-.4-.6a8.3,8.3,0,0,0-.842-1.135,3.342,3.342,0,0,0-.28-.266,3.228,3.228,0,0,0-.883.714,1.456,1.456,0,0,0-.368.945,1.262,1.262,0,0,0,.138.6,1.175,1.175,0,0,0,.377.422,1.553,1.553,0,0,0,.494.224,2.214,2.214,0,0,0,.565.073,2.257,2.257,0,0,0,1.357-.6Zm-2.062-4.2a1.332,1.332,0,0,0,.687,1.108,1.6,1.6,0,0,0,.539-.514,1.257,1.257,0,0,0,.175-.665.6.6,0,0,0-.235-.5.708.708,0,0,0-.211-.113.668.668,0,0,0-.21-.038.743.743,0,0,0-.528.186A.7.7,0,0,0,298.244,406.983Z" transform="translate(-266.505 -405.888)" fill="#fff"/>
        <path id="Path_3864" data-name="Path 3864" d="M337.189,408.342q0-.6-.044-1.344l-.04-.612h.523q.293,0,.568-.014t.523-.013q.346,0,.51,0,.208,0,.541.022a2,2,0,0,1,.585.162,1.666,1.666,0,0,1,.461.308,1.423,1.423,0,0,1,.3.43,1.233,1.233,0,0,1,.106.506,1.177,1.177,0,0,1-.111.51,1.218,1.218,0,0,1-.319.413,1.713,1.713,0,0,1-.506.291,2.56,2.56,0,0,1-.656.148,2.959,2.959,0,0,1,1.366.417,1.342,1.342,0,0,1,.59,1.175,1.646,1.646,0,0,1-.149.688,1.6,1.6,0,0,1-.441.572,2.234,2.234,0,0,1-.8.41,3.689,3.689,0,0,1-1.113.135q-.825-.036-1.242-.035h-.718q.022-.434.031-.612.036-.745.035-1.344Zm.98-1.544V409h.146c.027,0,.074,0,.142,0a.815.815,0,0,0,.089,0h.111a.93.93,0,0,0,.111,0h.071a1.607,1.607,0,0,0,.537-.1,1.409,1.409,0,0,0,.6-.372,1,1,0,0,0,.266-.705.941.941,0,0,0-.377-.812,1.48,1.48,0,0,0-.807-.235q-.146,0-.35.014-.182.017-.4.017Zm2.027,3.038a1.96,1.96,0,0,0-.869-.355,5.369,5.369,0,0,0-.869-.062h-.288v1.428q0,.382.009.9,0,.244,0,.337c.142,0,.281,0,.417.013a3.015,3.015,0,0,0,.3.013,2.729,2.729,0,0,0,.78-.1,1.172,1.172,0,0,0,.8-.683,1.6,1.6,0,0,0,.107-.608A1.085,1.085,0,0,0,340.2,409.837Z" transform="translate(-294.093 -406.205)" fill="#fff"/>
        <path id="Path_3865" data-name="Path 3865" d="M358.631,408.4q0-.594-.044-1.339l-.04-.612h3.81v.585q-.705-.049-1.61-.08-.505-.017-1.126-.026v2.187q.616-.009.923-.018l.261-.009,1.229-.04v.586q-.328,0-.723-.027l-.767-.022q-.577-.018-.923-.022l.009,2.537q1.317-.022,1.947-.062.341-.018.816-.049v.581h-3.827q.022-.434.031-.612.035-.745.035-1.344Z" transform="translate(-308.63 -406.27)" fill="#fff"/>
        <path id="Path_3866" data-name="Path 3866" d="M380.384,406.452l1.659,4.058q.244.6.652,1.463.156.328.293.6h-1.295a.705.705,0,0,0-.035-.124q-.128-.4-.271-.807l-.2-.559q-.067-.009-.377-.031-.266-.013-.772-.013h-.86q-.426,0-.665.013l-.2.013-.137.009-.39.94-.151.355-.08.2h-.683l.053-.106.346-.71q.244-.492.488-1.029l.226-.506,1.645-3.769Zm-2.018,4.124c.157.009.3.013.417.013h1.264q.789,0,.971-.013l-1.295-3.237Z" transform="translate(-321.057 -406.27)" fill="#fff"/>
        <path id="Path_3867" data-name="Path 3867" d="M405.819,411.962a3.039,3.039,0,0,1-1.055.382,3.79,3.79,0,0,1-.785.07,3.611,3.611,0,0,1-1.293-.226,3.018,3.018,0,0,1-1.035-.647,2.878,2.878,0,0,1-.692-1.011,3.332,3.332,0,0,1-.244-1.286,3.423,3.423,0,0,1,.483-1.863,2.734,2.734,0,0,1,1.211-1.047,3.742,3.742,0,0,1,1.579-.324,4.174,4.174,0,0,1,1.326.2,2.485,2.485,0,0,1,.474.2l-.271.532a.485.485,0,0,0-.107-.08,1.631,1.631,0,0,0-.315-.16,3.776,3.776,0,0,0-.457-.147,2.557,2.557,0,0,0-.6-.066,2.325,2.325,0,0,0-1.055.244,2.054,2.054,0,0,0-.891.847,3.242,3.242,0,0,0-.386,1.649,3.354,3.354,0,0,0,.162,1.058,2.635,2.635,0,0,0,.459.854,2.129,2.129,0,0,0,.707.574,1.969,1.969,0,0,0,.88.211,2.961,2.961,0,0,0,1.206-.257,2.6,2.6,0,0,0,.341-.177l.12-.08Z" transform="translate(-337.219 -405.971)" fill="#fff"/>
        <path id="Path_3868" data-name="Path 3868" d="M429.78,410.6q0,.683.04,1.353.022.395.044.616h-1.073v-2.918l-.248,0-.275,0-.7-.013q-.191,0-.55,0t-.887.009l-.271,0-.417.009-.226,0v.962q0,.674.04,1.344.022.395.044.612h-1.14q.022-.434.031-.612.035-.745.035-1.344v-2.2q0-.6-.044-1.348l-.04-.616h1.073v2.678a.848.848,0,0,0,.115,0l.12,0q.461.018.958.018.2,0,.612,0t1.078-.009q.315,0,.443,0l.129,0a1.018,1.018,0,0,0,.124,0V408.4q0-.594-.044-1.339l-.04-.612h1.14q-.044.767-.058,1.237t-.009.714Z" transform="translate(-353.099 -406.27)" fill="#fff"/>
        <path id="Path_3869" data-name="Path 3869" d="M468.675,412.461a.946.946,0,0,1-.173.053,1.084,1.084,0,0,1-.244.026.961.961,0,0,1-.107,0,1.475,1.475,0,0,1-.248-.035,1.283,1.283,0,0,1-.481-.3,3.484,3.484,0,0,1-.468-.561q-.2-.3-.4-.665l-.377-.688a1.439,1.439,0,0,0-.377-.413,1.294,1.294,0,0,0-.519-.168q-.284.018-.657.018l-.368,0v.811q0,.674.04,1.335.022.395.044.612h-1.131a1.722,1.722,0,0,0,.018-.2q.027-.528.044-1.229.009-.523.009-.789v-1.885q0-.6-.044-1.375l-.04-.643q.7,0,1.264-.022t.936-.022a2.828,2.828,0,0,1,1.841.5,1.573,1.573,0,0,1,.532,1.259,1.262,1.262,0,0,1-.413.954,2.37,2.37,0,0,1-1.1.541,1.228,1.228,0,0,1,.594.2,1.549,1.549,0,0,1,.514.661,10.074,10.074,0,0,0,.563,1.087,3.28,3.28,0,0,0,.421.572.821.821,0,0,0,.35.257Zm-3.907-5.677q-.333.031-.515.031v2.528q.16.013.4.013a5.045,5.045,0,0,0,.55-.026,2.336,2.336,0,0,0,1.064-.319,1.027,1.027,0,0,0,.506-.923,1.232,1.232,0,0,0-.408-1.007,1.739,1.739,0,0,0-1.113-.319C465.142,406.762,464.981,406.77,464.768,406.784Z" transform="translate(-379.577 -406.177)" fill="#fff"/>
        <path id="Path_3870" data-name="Path 3870" d="M487.267,408.4q0-.594-.044-1.339l-.04-.612h3.81v.585q-.705-.049-1.61-.08-.506-.017-1.126-.026v2.187q.616-.009.922-.018l.262-.009,1.228-.04v.586q-.328,0-.723-.027l-.767-.022q-.576-.018-.922-.022l.009,2.537q1.317-.022,1.947-.062.342-.018.816-.049v.581H487.2q.022-.434.031-.612.035-.745.035-1.344Z" transform="translate(-395.841 -406.27)" fill="#fff"/>
        <path id="Path_3871" data-name="Path 3871" d="M506.293,411.111a2.867,2.867,0,0,0,1.033.63,3.381,3.381,0,0,0,.508.142,2.338,2.338,0,0,0,.446.049,2.449,2.449,0,0,0,.678-.087,1.521,1.521,0,0,0,.51-.246,1.121,1.121,0,0,0,.306-.353.871.871,0,0,0,.107-.419,1.11,1.11,0,0,0-.55-.865,4.294,4.294,0,0,0-.488-.31q-.266-.146-.718-.373-.417-.208-.7-.375a3.736,3.736,0,0,1-.5-.353,1.34,1.34,0,0,1-.049-2.124,2.674,2.674,0,0,1,1.649-.417,4.2,4.2,0,0,1,.952.111,3.858,3.858,0,0,1,.978.386l-.248.559a2.365,2.365,0,0,0-.781-.386,4.533,4.533,0,0,0-.49-.129,2.156,2.156,0,0,0-.419-.049,1.588,1.588,0,0,0-.843.191.758.758,0,0,0-.368.679.524.524,0,0,0,.139.348,1.821,1.821,0,0,0,.406.33,4.943,4.943,0,0,0,.558.3q.785.364,1.282.656a2.442,2.442,0,0,1,.954.927,1.332,1.332,0,0,1,.151.634,1.564,1.564,0,0,1-.184.763,1.733,1.733,0,0,1-.526.581,2.5,2.5,0,0,1-.787.372,3.471,3.471,0,0,1-.96.128,3.834,3.834,0,0,1-1.126-.155,3.6,3.6,0,0,1-1.162-.594Z" transform="translate(-408.632 -405.971)" fill="#fff"/>
        <path id="Path_3872" data-name="Path 3872" d="M531.865,406.237a3.041,3.041,0,0,1,1.058.647,2.913,2.913,0,0,1,.7,1.022,3.656,3.656,0,0,1-.02,2.688,2.816,2.816,0,0,1-.745,1.018,3.157,3.157,0,0,1-1.053.6,4.061,4.061,0,0,1-2.592-.018,3.073,3.073,0,0,1-1.06-.638,2.858,2.858,0,0,1-.7-1.009,3.339,3.339,0,0,1-.246-1.3,3.374,3.374,0,0,1,.266-1.366,2.915,2.915,0,0,1,.749-1.033,3.149,3.149,0,0,1,1.058-.621,3.735,3.735,0,0,1,1.257-.213A3.825,3.825,0,0,1,531.865,406.237Zm-1.845.335a2.258,2.258,0,0,0-.526.22,2.38,2.38,0,0,0-.909.9,2.977,2.977,0,0,0-.386,1.53,3.412,3.412,0,0,0,.16,1.053,2.609,2.609,0,0,0,.461.863,2.169,2.169,0,0,0,.743.585,2.234,2.234,0,0,0,.965.213,2.087,2.087,0,0,0,.528-.071,2.326,2.326,0,0,0,1.424-1.091,3,3,0,0,0,.386-1.548,3.4,3.4,0,0,0-.16-1.053,2.667,2.667,0,0,0-.461-.867,2.154,2.154,0,0,0-.743-.59,2.227,2.227,0,0,0-.96-.213A1.981,1.981,0,0,0,530.02,406.572Z" transform="translate(-422.973 -405.971)" fill="#fff"/>
        <path id="Path_3873" data-name="Path 3873" d="M561.093,412.461a.963.963,0,0,1-.173.053,1.087,1.087,0,0,1-.244.026.955.955,0,0,1-.106,0,1.474,1.474,0,0,1-.249-.035,1.283,1.283,0,0,1-.481-.3,3.486,3.486,0,0,1-.468-.561q-.2-.3-.4-.665l-.377-.688a1.444,1.444,0,0,0-.377-.413,1.293,1.293,0,0,0-.519-.168q-.284.018-.656.018l-.368,0v.811q0,.674.04,1.335.022.395.044.612h-1.131a1.767,1.767,0,0,0,.018-.2q.027-.528.044-1.229.009-.523.009-.789v-1.885q0-.6-.044-1.375l-.04-.643q.7,0,1.264-.022t.936-.022a2.827,2.827,0,0,1,1.84.5,1.572,1.572,0,0,1,.532,1.259,1.262,1.262,0,0,1-.413.954,2.374,2.374,0,0,1-1.1.541,1.227,1.227,0,0,1,.594.2,1.547,1.547,0,0,1,.514.661,10.187,10.187,0,0,0,.563,1.087,3.3,3.3,0,0,0,.422.572.819.819,0,0,0,.35.257Zm-3.907-5.677q-.332.031-.514.031v2.528q.159.013.4.013a5.05,5.05,0,0,0,.55-.026,2.336,2.336,0,0,0,1.064-.319,1.027,1.027,0,0,0,.506-.923,1.232,1.232,0,0,0-.408-1.007,1.739,1.739,0,0,0-1.113-.319C557.56,406.762,557.4,406.77,557.185,406.784Z" transform="translate(-442.233 -406.177)" fill="#fff"/>
        <path id="Path_3874" data-name="Path 3874" d="M579.737,406.9q-.638.026-1.268.08l-.59.053v-.581h4.7v.581q-.5-.053-1.144-.1-.439-.027-.714-.035v3.725q0,.692.031,1.335c.012.269.022.473.031.612h-1.108q.035-.772.053-1.237t.009-.71Z" transform="translate(-457.33 -406.27)" fill="#fff"/>
      </g>
      <g id="Group_1625" data-name="Group 1625" transform="translate(95.992 24.752)">
        <rect id="Rectangle_2159" data-name="Rectangle 2159" width="114.496" height="0.463" fill="#fff"/>
      </g>
      <g id="Group_1626" data-name="Group 1626" transform="translate(5.958 24.752)">
        <rect id="Rectangle_2160" data-name="Rectangle 2160" width="66.093" height="0.463" fill="#fff"/>
      </g>
      <g id="Group_1627" data-name="Group 1627" transform="translate(0 0)">
        <path id="Path_3875" data-name="Path 3875" d="M79.8,299.98a1.618,1.618,0,0,0-.295.044c-.137.029-.314.063-.53.1q-.353.059-.869.1t-1.222.044H65.846q-.265,0-.971-.044t-1.354-.1a2.473,2.473,0,0,1-.869-.206,1.034,1.034,0,0,0-.427-.147c-.059,0-.113.069-.162.206s-.094.255-.133.353c-.02.059-.064.235-.132.53s-.143.618-.221.972-.147.682-.206.987a4.35,4.35,0,0,0-.088.574q0,.265.147.265c.118,0,.216-.1.295-.295a3.335,3.335,0,0,1,.162-.338c.069-.127.181-.319.339-.574a1.789,1.789,0,0,1,.412-.442,1.847,1.847,0,0,1,.589-.279,5.4,5.4,0,0,1,.839-.162,9.976,9.976,0,0,1,1.163-.059l4.358-.059v12.455q0,2.12-.015,3.784a23.955,23.955,0,0,1-.133,2.605c0,.019-.006.035-.008.053a2.106,2.106,0,0,1-.189.56,2.069,2.069,0,0,1-1.563.839c-.332.055-.5.174-.5.365,0,.224.141.333.43.333.07,0,.149,0,.232-.007.032,0,.058.007.093.007.216,0,.48-.005.795-.015l.913-.029q.442-.015.78-.03c.226-.01.358-.015.4-.015s.172,0,.4.015.51.02.854.03l1.133.029q.618.014,1.237.015a1.08,1.08,0,0,0,.239-.025c.065,0,.132.008.186.008.332,0,.495-.125.495-.381,0-.191-.266-.322-.8-.4a3.469,3.469,0,0,1-1.477-.479,2.45,2.45,0,0,1-.79-1.15,4.449,4.449,0,0,1-.2-1.05c-.016-.384-.027-.81-.031-1.281q-.015-1.664-.015-3.784V301.452l3.71.059a11.283,11.283,0,0,1,1.752.162,4.127,4.127,0,0,1,1.089.338,1.4,1.4,0,0,1,.574.5,1.45,1.45,0,0,1,.206.619l.03.324a1.441,1.441,0,0,0,.073.412.165.165,0,0,0,.162.089c.137,0,.206-.127.206-.383,0-.078,0-.25.015-.515s.019-.564.029-.9.019-.667.029-1,.015-.608.015-.824a1.838,1.838,0,0,0-.015-.251A.115.115,0,0,0,79.8,299.98Z" transform="translate(-61.282 -299.774)" fill="#fff"/>
        <path id="Path_3876" data-name="Path 3876" d="M140.586,313.985c-.176,0-.371,0-.586.012l-.622.024c-.2.008-.371.016-.515.024s-.239.012-.287.012c-.032,0-.132,0-.3-.012s-.371-.016-.61-.024l-.79-.024c-.287-.007-.567-.012-.838-.012-.256,0-.383.064-.383.192,0,.1.063.143.191.143q.167,0,.419.012a1.545,1.545,0,0,1,.4.06,1.142,1.142,0,0,1,.79.431,2.14,2.14,0,0,1,.239.934c.016.191.028.395.036.61s.012.507.012.874v6.677a18.492,18.492,0,0,1-.275,3.351,5.488,5.488,0,0,1-1.113,2.513,5.039,5.039,0,0,1-3.758,1.723,6.905,6.905,0,0,1-1.879-.239,4.291,4.291,0,0,1-1.735-1.077,5.109,5.109,0,0,1-.718-.85,4.933,4.933,0,0,1-.574-1.185,8.74,8.74,0,0,1-.371-1.64,16.443,16.443,0,0,1-.132-2.238v-7.036q0-.551.012-.874c.008-.215.02-.419.036-.61a2.474,2.474,0,0,1,.227-.958.828.828,0,0,1,.658-.407,2.974,2.974,0,0,1,.347-.06c.088-.008.171-.012.251-.012.128,0,.192-.048.192-.143,0-.128-.128-.192-.383-.192-.176,0-.387,0-.634.012l-.73.024-.646.024q-.287.013-.359.012c-.048,0-.172,0-.371-.012l-.694-.024-.838-.024c-.3-.007-.579-.012-.85-.012-.256,0-.383.064-.383.192,0,.1.063.143.191.143.111,0,.252,0,.419.012a1.545,1.545,0,0,1,.395.06,1.141,1.141,0,0,1,.79.431,2.135,2.135,0,0,1,.24.934c.016.191.028.395.036.61s.012.507.012.874v7.18a14.822,14.822,0,0,0,.156,2.3,8.706,8.706,0,0,0,.443,1.735,5.76,5.76,0,0,0,.67,1.293,7.575,7.575,0,0,0,.814.969,5.48,5.48,0,0,0,1.376.945,7.366,7.366,0,0,0,1.424.515,7.513,7.513,0,0,0,1.257.2q.562.036.874.036.526,0,1.125-.06a6.29,6.29,0,0,0,1.221-.251,7.445,7.445,0,0,0,1.28-.539,6.621,6.621,0,0,0,1.3-.921,5.211,5.211,0,0,0,1.149-1.473,8.12,8.12,0,0,0,.67-1.771,11.151,11.151,0,0,0,.311-1.939q.072-.993.072-1.975v-6.246q0-.551.012-.874c.008-.215.02-.419.036-.61a2.264,2.264,0,0,1,.227-.934.991.991,0,0,1,.658-.431,2.985,2.985,0,0,1,.347-.06c.088-.008.171-.012.252-.012.128,0,.192-.048.192-.143C140.968,314.049,140.84,313.985,140.586,313.985Z" transform="translate(-103.136 -309.409)" fill="#fff"/>
        <path id="Path_3877" data-name="Path 3877" d="M206.9,331.745c-.08,0-.2,0-.359-.012s-.351-.028-.575-.06a5.517,5.517,0,0,1-1.2-.383,5.609,5.609,0,0,1-1.724-1.341q-1.053-1.124-2.274-2.681l-2.7-3.447a9.788,9.788,0,0,0,2.25-2.836,6.2,6.2,0,0,0,.646-2.693,3.547,3.547,0,0,0-.179-1.149,4.61,4.61,0,0,0-.431-.934,4.263,4.263,0,0,0-.538-.706,5.011,5.011,0,0,0-.5-.467,4.8,4.8,0,0,0-2.094-.873,14.583,14.583,0,0,0-2.286-.18c-.192,0-.431,0-.718.012l-.873.024-.79.024q-.347.013-.443.012c-.032,0-.14,0-.323-.012s-.407-.016-.67-.024l-.85-.024c-.3-.007-.591-.012-.862-.012-.255,0-.383.064-.383.192,0,.1.063.143.192.143q.167,0,.419.012a1.542,1.542,0,0,1,.395.06,1.142,1.142,0,0,1,.79.431,2.135,2.135,0,0,1,.239.934c.016.191.028.395.036.61s.012.507.012.874v7.9q0,1.724-.012,3.076a19.483,19.483,0,0,1-.108,2.118,4.254,4.254,0,0,1-.2.886.628.628,0,0,1-.49.431,2.3,2.3,0,0,1-.359.072,2.953,2.953,0,0,1-.359.024c-.128,0-.192.048-.192.143,0,.127.128.192.383.192q.263,0,.646-.012l.742-.024q.359-.013.862-.036c.032,0,.139,0,.323.012s.415.016.694.024l.921.024q.5.012,1.005.012c.255,0,.383-.064.383-.192,0-.1-.064-.143-.191-.143-.112,0-.276-.008-.491-.024a5.407,5.407,0,0,1-.586-.072.838.838,0,0,1-.718-.431,2.655,2.655,0,0,1-.215-.886,19.339,19.339,0,0,1-.108-2.118q-.013-1.352-.012-3.076v-9.957a.279.279,0,0,1,.192-.287,5.191,5.191,0,0,1,.622-.1,9.058,9.058,0,0,1,.981-.048,3.814,3.814,0,0,1,3.04,1.269,5.2,5.2,0,0,1,1.1,3.519,5.7,5.7,0,0,1-.419,2.31,3.187,3.187,0,0,1-1.041,1.376,2.166,2.166,0,0,1-.886.371s-.745.052-.791.44c-.026.22.083.327.312.386a.4.4,0,0,1,.311.143q.167.24.467.635t.646.874q.347.479.73,1.005t.766,1.029q1.029,1.365,1.747,2.238a5.013,5.013,0,0,0,1.484,1.281,3,3,0,0,0,1.005.359,9.652,9.652,0,0,0,1.556.1h1.7a1.881,1.881,0,0,0,.455-.036.151.151,0,0,0,.12-.156C207.112,331.793,207.04,331.745,206.9,331.745Z" transform="translate(-147.882 -309.409)" fill="#fff"/>
        <path id="Path_3878" data-name="Path 3878" d="M278.8,334.3a.523.523,0,0,0-.132.024,2.068,2.068,0,0,0-.2.072,12.114,12.114,0,0,1-2.525.718,13.516,13.516,0,0,1-2.19.215q-.455,0-1.34-.059a16.133,16.133,0,0,1-2.178-.335,25.02,25.02,0,0,1-2.944-.85,28.738,28.738,0,0,1-3.615-1.58l-4.906-2.537a8.576,8.576,0,0,0,1.328-1.1,9.736,9.736,0,0,0,1.376-1.735,10.759,10.759,0,0,0,1.089-2.322,8.931,8.931,0,0,0,.443-2.884,9.363,9.363,0,0,0-.718-3.746,8.23,8.23,0,0,0-1.975-2.824,8.673,8.673,0,0,0-2.98-1.783,10.916,10.916,0,0,0-3.734-.622,10.018,10.018,0,0,0-2.992.419,8.965,8.965,0,0,0-2.393,1.137,8.194,8.194,0,0,0-1.807,1.664,10.532,10.532,0,0,0-1.257,1.986,9.717,9.717,0,0,0-.742,2.119,9.383,9.383,0,0,0-.239,2.035,10.851,10.851,0,0,0,.527,3.291,8.858,8.858,0,0,0,1.664,3.028,8.618,8.618,0,0,0,2.908,2.226,9.656,9.656,0,0,0,4.26.862,8.919,8.919,0,0,0,1.005-.06q.526-.059,1.029-.167a7.738,7.738,0,0,0,.945-.264,6.714,6.714,0,0,0,.778-.323l4.021,2.226a31.415,31.415,0,0,0,5.3,2.418,14.467,14.467,0,0,0,4.56.79,17.355,17.355,0,0,0,2.477-.168,19.625,19.625,0,0,0,2.13-.419,16.51,16.51,0,0,0,1.724-.538q.754-.287,1.257-.527c.127-.063.191-.143.191-.239A.127.127,0,0,0,278.8,334.3Zm-20.6-4.979a5.551,5.551,0,0,1-2.166,1.185,7.7,7.7,0,0,1-1.939.3,7.055,7.055,0,0,1-3.016-.646,7.248,7.248,0,0,1-2.43-1.843,8.647,8.647,0,0,1-1.627-2.9,11.525,11.525,0,0,1-.586-3.782,10.185,10.185,0,0,1,.527-3.435,6.973,6.973,0,0,1,1.46-2.465,5.886,5.886,0,0,1,2.214-1.484,7.734,7.734,0,0,1,2.788-.491,6.768,6.768,0,0,1,5.051,2.262,8.433,8.433,0,0,1,1.616,2.765,10.95,10.95,0,0,1,.61,3.806,10.354,10.354,0,0,1-.73,4.224A6.994,6.994,0,0,1,258.2,329.317Z" transform="translate(-185.271 -308.703)" fill="#fff"/>
        <path id="Path_3879" data-name="Path 3879" d="M327.811,313.985c-.176,0-.371,0-.586.012l-.622.024c-.2.008-.371.016-.515.024s-.239.012-.287.012c-.032,0-.131,0-.3-.012s-.371-.016-.61-.024L324.1,314c-.287-.007-.566-.012-.838-.012-.255,0-.383.064-.383.192,0,.1.063.143.192.143.111,0,.251,0,.418.012a1.543,1.543,0,0,1,.4.06,1.142,1.142,0,0,1,.79.431,2.136,2.136,0,0,1,.239.934c.016.191.028.395.036.61s.012.507.012.874v6.677a18.491,18.491,0,0,1-.275,3.351,5.488,5.488,0,0,1-1.113,2.513,5.039,5.039,0,0,1-3.758,1.723,6.907,6.907,0,0,1-1.879-.239,4.293,4.293,0,0,1-1.735-1.077,5.108,5.108,0,0,1-.718-.85,4.921,4.921,0,0,1-.574-1.185,8.739,8.739,0,0,1-.371-1.64,16.437,16.437,0,0,1-.132-2.238v-7.036q0-.551.012-.874c.008-.215.02-.419.036-.61a2.473,2.473,0,0,1,.227-.958.83.83,0,0,1,.658-.407,2.985,2.985,0,0,1,.347-.06c.088-.008.171-.012.251-.012.128,0,.192-.048.192-.143,0-.128-.128-.192-.383-.192-.176,0-.387,0-.634.012l-.73.024-.646.024q-.287.013-.359.012c-.048,0-.172,0-.371-.012l-.694-.024-.838-.024c-.3-.007-.579-.012-.85-.012-.255,0-.383.064-.383.192,0,.1.063.143.191.143.111,0,.252,0,.419.012a1.55,1.55,0,0,1,.4.06,1.142,1.142,0,0,1,.79.431,2.14,2.14,0,0,1,.239.934c.016.191.028.395.036.61s.012.507.012.874v7.18a14.857,14.857,0,0,0,.156,2.3,8.726,8.726,0,0,0,.443,1.735,5.761,5.761,0,0,0,.67,1.293,7.571,7.571,0,0,0,.814.969,5.479,5.479,0,0,0,1.376.945,7.367,7.367,0,0,0,1.424.515,7.512,7.512,0,0,0,1.257.2q.562.036.873.036.527,0,1.125-.06a6.285,6.285,0,0,0,1.221-.251,7.448,7.448,0,0,0,1.281-.539,6.629,6.629,0,0,0,1.3-.921,5.211,5.211,0,0,0,1.149-1.473,8.1,8.1,0,0,0,.67-1.771,11.151,11.151,0,0,0,.311-1.939q.072-.993.072-1.975v-6.246q0-.551.012-.874c.008-.215.02-.419.036-.61a2.265,2.265,0,0,1,.227-.934.991.991,0,0,1,.658-.431,2.978,2.978,0,0,1,.347-.06c.088-.008.171-.012.251-.012.128,0,.192-.048.192-.143C328.193,314.049,328.065,313.985,327.811,313.985Z" transform="translate(-230.069 -309.409)" fill="#fff"/>
        <path id="Path_3880" data-name="Path 3880" d="M390.379,315.351a8.671,8.671,0,0,0-2.98-1.783,10.915,10.915,0,0,0-3.734-.622,10.016,10.016,0,0,0-2.992.419,8.963,8.963,0,0,0-2.394,1.137,8.2,8.2,0,0,0-1.807,1.664,10.514,10.514,0,0,0-1.256,1.986,9.684,9.684,0,0,0-.742,2.119,9.364,9.364,0,0,0-.24,2.035,10.86,10.86,0,0,0,.527,3.291,8.966,8.966,0,0,0,1.652,3.028,8.532,8.532,0,0,0,2.884,2.226,9.517,9.517,0,0,0,4.224.862,9.66,9.66,0,0,0,3.926-.778,9.079,9.079,0,0,0,3.016-2.107,9.417,9.417,0,0,0,1.927-3.111,10.524,10.524,0,0,0,.682-3.794,9.363,9.363,0,0,0-.718-3.746A8.23,8.23,0,0,0,390.379,315.351Zm-.335,11.465a6.99,6.99,0,0,1-1.771,2.5,5.552,5.552,0,0,1-2.166,1.185,7.7,7.7,0,0,1-1.939.3,7.054,7.054,0,0,1-3.016-.646,7.245,7.245,0,0,1-2.43-1.843,8.654,8.654,0,0,1-1.628-2.9,11.526,11.526,0,0,1-.586-3.782,10.194,10.194,0,0,1,.527-3.435,6.978,6.978,0,0,1,1.46-2.465,5.886,5.886,0,0,1,2.214-1.484,7.735,7.735,0,0,1,2.788-.491,6.768,6.768,0,0,1,5.05,2.262,8.422,8.422,0,0,1,1.616,2.765,10.95,10.95,0,0,1,.61,3.806A10.348,10.348,0,0,1,390.044,326.816Z" transform="translate(-273.454 -308.703)" fill="#fff"/>
        <path id="Path_3881" data-name="Path 3881" d="M486.08,324.039A8.07,8.07,0,0,0,485,322.663a17.058,17.058,0,0,0-1.735-1.556l-.67-.527q-.862-.67-1.424-1.2a7.345,7.345,0,0,1-.9-.981,2.917,2.917,0,0,1-.467-.9,3.284,3.284,0,0,1-.132-.945,2.555,2.555,0,0,1,.85-2.047,3.1,3.1,0,0,1,2.095-.73,5.1,5.1,0,0,1,1.364.155,3.561,3.561,0,0,1,.9.371,1.958,1.958,0,0,1,.515.431,2.28,2.28,0,0,1,.215.312,1.886,1.886,0,0,1,.2.586q.084.395.108.61a2.162,2.162,0,0,0,.048.228c.016.056.064.084.144.084.111,0,.167-.184.167-.551q0-1.221.048-1.831t.048-.706q0-.168-.239-.168a2.39,2.39,0,0,1-.323-.024q-.179-.024-.515-.1a6.947,6.947,0,0,0-.993-.179,11.354,11.354,0,0,0-1.233-.06,6.348,6.348,0,0,0-2.058.311,4.5,4.5,0,0,0-1.556.886,3.907,3.907,0,0,0-.993,1.364,4.3,4.3,0,0,0-.347,1.748,5.474,5.474,0,0,0,.132,1.209,4.667,4.667,0,0,0,.479,1.22,7.077,7.077,0,0,0,.945,1.3,14.251,14.251,0,0,0,1.556,1.46l1.077.886q.766.646,1.292,1.161a6.177,6.177,0,0,1,.849,1.005,3.582,3.582,0,0,1,.467,1.005,4.228,4.228,0,0,1,.144,1.137,3.254,3.254,0,0,1-.215,1.149,3,3,0,0,1-.634,1.017,3.266,3.266,0,0,1-1.065.73,3.677,3.677,0,0,1-1.508.287,5.224,5.224,0,0,1-1.173-.131,3.761,3.761,0,0,1-1.065-.419,2.665,2.665,0,0,1-.826-.754,3,3,0,0,1-.479-1.137,3.86,3.86,0,0,1-.06-.491q-.012-.228-.012-.4,0-.263-.167-.263t-.192.383q-.024.287-.072.957t-.048,1.58a2.623,2.623,0,0,0,.048.634.516.516,0,0,0,.311.276,5.893,5.893,0,0,0,1.556.5,9.463,9.463,0,0,0,1.651.144,8.075,8.075,0,0,0,1.915-.227,4.852,4.852,0,0,0,1.7-.778,4.244,4.244,0,0,0,1.018-.97,5.208,5.208,0,0,0,.622-1.089,4.856,4.856,0,0,0,.311-1.053,5.381,5.381,0,0,0,.084-.862,6.418,6.418,0,0,0-.144-1.376A4.369,4.369,0,0,0,486.08,324.039Z" transform="translate(-343.496 -308.703)" fill="#fff"/>
        <path id="Path_3882" data-name="Path 3882" d="M598.968,313.618a6.849,6.849,0,0,0-1.258-1.843,7.527,7.527,0,0,0-1.678-1.318,9.219,9.219,0,0,0-1.753-.794q.54-.54,1.034-1.109a9.623,9.623,0,0,0,.9-1.214,6.1,6.1,0,0,0,.644-1.393,5.49,5.49,0,0,0,.24-1.677,4.554,4.554,0,0,0-.24-1.334,3.781,3.781,0,0,0-.914-1.468,5.462,5.462,0,0,0-1.843-1.2,7.759,7.759,0,0,0-3-.495q-1.049,0-1.888.045t-1.379.045c-.04,0-.175,0-.4-.015s-.509-.02-.839-.03l-1.064-.03c-.38-.009-.739-.015-1.079-.015-.32,0-.479.081-.479.24,0,.119.079.179.24.179.139,0,.314.005.524.015a1.953,1.953,0,0,1,.495.075,1.429,1.429,0,0,1,.989.54,2.676,2.676,0,0,1,.3,1.169q.03.359.045.764t.015,1.094v9.888q0,2.158-.015,3.851a24.541,24.541,0,0,1-.135,2.652,5.368,5.368,0,0,1-.255,1.109.788.788,0,0,1-.614.539,2.921,2.921,0,0,1-.45.09,3.649,3.649,0,0,1-.449.03c-.16,0-.24.06-.24.179,0,.16.16.24.479.24q.329,0,.809-.03c.319-.021.629-.03.929-.03q.479-.031.809-.03h.389q.09,0,.63.015t1.2.075l1.288.06c.42.02.709.03.869.03a9.077,9.077,0,0,0,3.356-.57,7.032,7.032,0,0,0,2.382-1.5,6.26,6.26,0,0,0,1.423-2.1,6.193,6.193,0,0,0,.479-2.367A5.49,5.49,0,0,0,598.968,313.618Zm-9.993-12.525q0-.24.359-.329a4.613,4.613,0,0,1,.779-.12q.419-.029.659-.03a3.638,3.638,0,0,1,1.873.45,3.724,3.724,0,0,1,1.244,1.184,5.3,5.3,0,0,1,.7,1.664,7.859,7.859,0,0,1,.224,1.858,4.719,4.719,0,0,1-.3,1.708,4.274,4.274,0,0,1-.779,1.318,2.476,2.476,0,0,1-.464.419,1.992,1.992,0,0,1-.509.24,2.706,2.706,0,0,1-.7.105q-.42.015-1.049.015-.839,0-1.259-.045t-.569-.075a.328.328,0,0,1-.21-.329Zm7.476,18.294a3.787,3.787,0,0,1-1.078,1.3,4.014,4.014,0,0,1-1.378.674,5.222,5.222,0,0,1-1.334.2c-.14,0-.314,0-.525-.015s-.44-.03-.689-.06a6.54,6.54,0,0,1-.749-.135,3.167,3.167,0,0,1-.674-.24,2.07,2.07,0,0,1-.539-.36,1.3,1.3,0,0,1-.285-.434,2.077,2.077,0,0,1-.135-.629q-.03-.374-.06-.915,0-.179-.015-.884t-.015-1.663v-5.633c0-.14.06-.21.18-.21h1.2c.24,0,.464.005.674.015a3.5,3.5,0,0,1,.464.045,8.3,8.3,0,0,1,1.124.209,4.8,4.8,0,0,1,1.364.66,5.971,5.971,0,0,1,1.423,1.348,7.188,7.188,0,0,1,.884,1.558,7.581,7.581,0,0,1,.464,1.619,8.983,8.983,0,0,1,.135,1.468A4.44,4.44,0,0,1,596.451,319.386Z" transform="translate(-415.648 -299.774)" fill="#fff"/>
        <path id="Path_3883" data-name="Path 3883" d="M648.729,331.04c-.128,0-.275-.008-.443-.024a2.064,2.064,0,0,1-.515-.12,1.891,1.891,0,0,1-.419-.167,1.765,1.765,0,0,1-.479-.407,5.474,5.474,0,0,1-.55-.79,9.016,9.016,0,0,1-.611-1.293l-.9-2.274q-.538-1.365-1.125-2.884t-1.185-3.076q-.6-1.556-1.089-2.861t-.838-2.214q-.347-.909-.443-1.125a5.607,5.607,0,0,0-.311-.706.266.266,0,0,0-.215-.156c-.08,0-.152.056-.215.168a6.178,6.178,0,0,0-.311.766l-5.433,14.864a6.947,6.947,0,0,1-.754,1.52,1.74,1.74,0,0,1-1.257.73,3.552,3.552,0,0,1-.359.036c-.144.008-.255.012-.335.012-.144,0-.215.048-.215.143,0,.127.152.192.455.192q.431,0,.862-.012l.814-.024.658-.024q.275-.012.371-.012c.063,0,.171,0,.323.012l.491.024.55.024q.287.012.5.012c.239,0,.359-.064.359-.192,0-.1-.08-.143-.239-.143h-.239a1.235,1.235,0,0,1-.61-.168.561.561,0,0,1-.3-.526,4.879,4.879,0,0,1,.335-1.6l1.436-4.237a.25.25,0,0,1,.239-.192h5.146a.23.23,0,0,1,.215.144l2.226,5.888a.567.567,0,0,1,.048.442.373.373,0,0,1-.192.2c-.112.032-.167.088-.167.167s.063.124.192.132.3.019.526.036q.622.024,1.233.036t1.113.012h1.412a1.4,1.4,0,0,0,.335-.036q.143-.036.144-.156C648.969,331.088,648.889,331.04,648.729,331.04Zm-7.156-7.587H637q-.144,0-.072-.168l2.106-6.463q.167-.526.359,0l2.274,6.463Q641.716,323.453,641.573,323.453Z" transform="translate(-447.349 -308.703)" fill="#fff"/>
        <path id="Path_3884" data-name="Path 3884" d="M529.466,328.527c-.1.009-.19.088-.288.235q-1.455,2.293-6.551,2.294a4.4,4.4,0,0,1-2.007-.274c-.261-.182-.394-.638-.394-1.373v-4.779l-.013-.426a.568.568,0,0,1,.213-.522,1.911,1.911,0,0,1,.851-.129h2.87a2.982,2.982,0,0,1,1.582.31,1.709,1.709,0,0,1,.62,1.183l.08.363a.3.3,0,0,0,.328.284c.164,0,.248-.107.248-.323,0-.08-.009-.2-.027-.377-.049-.518-.076-1.041-.076-1.568,0-.691.036-1.457.1-2.3.009-.129.014-.222.014-.284,0-.226-.084-.341-.248-.349s-.283.1-.328.309a2.638,2.638,0,0,1-.376,1.094,1.758,1.758,0,0,1-.908.376,11.826,11.826,0,0,1-2.153.156h-2c-.372,0-.6-.04-.669-.124a1.338,1.338,0,0,1-.111-.722v-5.222a1.211,1.211,0,0,1,.235-.89,1.762,1.762,0,0,1,1.036-.2h2.037a12.986,12.986,0,0,1,2.764.195,1.362,1.362,0,0,1,1,.779,2.088,2.088,0,0,1,.155.793v.337c0,.27.084.4.248.389a.3.3,0,0,0,.288-.2,5.865,5.865,0,0,0,.129-.943l.053-.762c.044-.571.075-.917.1-1.041a1.455,1.455,0,0,0,.04-.3c0-.252-.141-.377-.43-.377a3.9,3.9,0,0,0-.518.053c-.111.018-.425.035-.935.053l-1.843.088q-1.223.054-2.8.053a41.434,41.434,0,0,1-4.465-.208,7.507,7.507,0,0,0-.868-.067c-.39,0-.585.12-.585.363,0,.164.124.244.377.244a1.742,1.742,0,0,1,1.59.642,5.2,5.2,0,0,1,.407,2.5v10.971l-.013.842q0,1.561-.934,1.821l-.491.141c-.227.062-.337.164-.337.31,0,.19.138.283.417.283a4.393,4.393,0,0,0,.673-.093,22.832,22.832,0,0,1,3.207-.155q1.621,0,4.1.231c.425.035.762.053,1.015.053a3.557,3.557,0,0,0,2.879-1.4,3.421,3.421,0,0,0,.948-2.007C529.7,328.629,529.621,328.518,529.466,328.527Z" transform="translate(-369.476 -309.499)" fill="#fff"/>
        <path id="Path_3885" data-name="Path 3885" d="M694.467,313.082c-.132.009-.369.032-.709.063q-.368.041-1.732.042a14.82,14.82,0,0,1-1.864-.068,5.665,5.665,0,0,0-.709-.078c-.2,0-.3.078-.3.227s.1.25.318.3c1.118.268,1.872.728,1.677,1.29-.209.607-2.457,3.378-3.509,5.954l-.137.2a.361.361,0,0,1-.277.186.256.256,0,0,1-.241-.186,27.174,27.174,0,0,0-3.908-6.586c-.861-1.086-.726-1.346-2.4-1.354-.627,0-1.232-.032-1.809-.091a5.669,5.669,0,0,0-.677-.041c-.277,0-.414.1-.414.291,0,.159.128.241.386.241a2.893,2.893,0,0,1,1.4.391,3.965,3.965,0,0,1,1.09,1.022,22.131,22.131,0,0,1,4.755,9.438,6.536,6.536,0,0,1,.118,1.254v2.292l-.013.573a3.741,3.741,0,0,1-.3,1.859,2.067,2.067,0,0,1-1.418.591c-.3.046-.441.154-.441.331,0,.15.1.223.3.223a4.837,4.837,0,0,0,.509-.054c.223-.023.664-.037,1.318-.037l1.04-.027,1.055.054c.427.027.75.05.972.077.364.045.6.068.691.068.314,0,.468-.1.468-.318,0-.159-.136-.25-.413-.277-.8-.082-1.28-.237-1.45-.468a4.108,4.108,0,0,1-.254-1.891v-4.5c0-2.166,2.818-6.681,4.927-8.951a4.848,4.848,0,0,1,1.972-1.491c.223-.068.332-.177.332-.318C694.826,313.145,694.708,313.063,694.467,313.082Z" transform="translate(-479.245 -308.703)" fill="#fff"/>
        <path id="Path_3886" data-name="Path 3886" d="M450.11,331.56a2.816,2.816,0,0,1-1.2-.39,1.991,1.991,0,0,1-.642-.935,8.287,8.287,0,0,1-.221-2.4v-9.708c0-1.825.319-2.861.961-3.1l.673-.261c.226-.075.337-.195.337-.35s-.115-.244-.35-.244c-.053,0-.159,0-.323.014l-.868.062q-.691.04-1.648.04a24.874,24.874,0,0,1-2.516-.1,2.3,2.3,0,0,0-.235-.014c-.261,0-.385.093-.376.284.009.155.146.257.417.31a2.244,2.244,0,0,1,1.576.753,4.35,4.35,0,0,1,.368,2.166V328.8a5.22,5.22,0,0,1-.284,2.161,1.681,1.681,0,0,1-1.27.682c-.271.045-.4.142-.4.3,0,.182.115.27.35.27a6.056,6.056,0,0,0,.624-.04l1.528-.088,1.882.026c.647,0,1.1.018,1.373.049a3.85,3.85,0,0,0,.492.04c.27,0,.4-.1.4-.31C450.756,331.728,450.54,331.622,450.11,331.56Z" transform="translate(-320.549 -309.535)" fill="#fff"/>
      </g>
    </g>
  </g>
</svg>
